<svg id="Design_Layer" data-name="Design Layer" xmlns="http://www.w3.org/2000/svg" viewBox="0 0 753.3 968.1">
  <defs>
    <style>
      .cls-1 {
        fill: #60A5F3;
      }
    </style>
  </defs>
  <title>background-splatter-grey</title>
  <path class="cls-1" d="M4359.3,6892.8a0.8,0.8,0,0,1,.7,1.1,2.4,2.4,0,0,1-3.3,2.1c-0.6-.1-1.4-1.4-2.4-3.8a44.5,44.5,0,0,1-2-5.6q1.2-5.4,5.7-4.3,0.9,0.2,2.1,3.3a8.8,8.8,0,0,1,.8,4.9A3.7,3.7,0,0,1,4359.3,6892.8Zm-0.3,200.3c-0.4,1.8-.4,3,0.1,3.8a1.9,1.9,0,0,0-1.4.1,1.9,1.9,0,0,1-1.4.1,1.6,1.6,0,0,1-1.4-2.2C4355.2,7093.1,4356.6,7092.5,4359,7093.1Zm10.9,26q-1.2,5.4-3,4.9-4.5-1-4.4-9.5t-0.1-16c0.4-1.8,1.2-2.5,2.4-2.3q4.5,1,3,7.3l0.2-.9a60.5,60.5,0,0,1-.1,8.4C4367.7,7114.9,4368.4,7117.5,4369.9,7119.1Zm8.5-199.3a2.6,2.6,0,0,1-1.3,1.6,1.6,1.6,0,0,1-1.4-2.2Zm13.6,30.4a3.6,3.6,0,0,1-3.5,3,15.3,15.3,0,0,1-4.7-.1c-4.8-1.1-6.7-3.7-5.7-7.9s3.5-5.8,7.7-4.8a9.8,9.8,0,0,1,4.9,3Q4393.1,6945.8,4392.1,6950.2Zm-3.6-228.5c-0.5,2.4-2.3,3.2-5.3,2.5s-4.2-2.2-3.6-4.6,2.5-4.1,5.5-3.4S4389.2,6718.8,4388.5,6721.8Zm31,309.1c0.5,0.7.5,2,.1,3.8-2.4-.6-3.4-1.4-3.2-2.6S4417.7,7030.5,4419.5,7030.9Zm15.1-40.7a1.6,1.6,0,0,1-2.2,1.4l-0.5-2,1.3-1.6A1.6,1.6,0,0,1,4434.5,6990.2Zm32.6-421.4a12.2,12.2,0,0,0-3.6,3.4c-0.9,1.3-2.6,1.8-5,1.2a12.2,12.2,0,0,1-6.5-4.3c-2-2.3-2.7-4.4-2.3-6.2q2.3-9.8,11.2-7.8T4467.2,6568.8Zm-8.3,259.6c0.1-.6,1.1-0.7,2.9-0.3l-0.8,3.6a8,8,0,0,0-2-1.4C4458.6,6830.2,4458.6,6829.5,4458.8,6828.4Zm8.2-291.6c-1.6,1.5-3,2.1-4.2,1.9q-4.5-1-3.2-6.4,0.8-3.6,5.3-2.5c3,0.7,4.2,2.2,3.6,4.6A3.7,3.7,0,0,1,4467.1,6536.8Zm35.1,571.6a2.7,2.7,0,0,1-1.6-1.3,8,8,0,0,0-3.8.1,8.3,8.3,0,0,1-3.8.1q-8-1.9-14-10.8t-2.8-22.3q1-4.5,10.3-8t22.2-2.4q1.6,5.1,7.5,8.3t3.6,13.1a68,68,0,0,1-5.6,11.9l-5.6,8.1Q4505.7,7109.2,4502.2,7108.4Zm-24.6-210.7c1.2,0.3,1.7.7,1.6,1.3l-0.2.9a2.7,2.7,0,0,1-1.3,1.6c-1.2-.3-1.6-1.3-1.2-3.1Zm8.7-305.6a8.2,8.2,0,0,1-2.3,3.7c-1.2,1.3-2.5,1.8-3.6,1.5s-2.4-1.8-1.9-4.2,2.8-4.1,6.4-3.2A1.6,1.6,0,0,1,4486.3,6592Zm22.6,158.5q-0.8,3.6-5.7,4.3a2.9,2.9,0,0,1-2.3-2.4l-1-4c0.7-3,2.5-4.1,5.5-3.4S4509.5,6747.6,4508.8,6750.6Zm2-154.7c-0.1.6-.8,0.8-2,0.5l0.4-1.8A2.6,2.6,0,0,1,4510.8,6595.8Zm3.8,459c-3-.7-4.4-3.5-4.2-8.5a66,66,0,0,1,1.1-11,50.4,50.4,0,0,1,3.4-8.6c1.9-4,4.3-5.6,7.3-4.9s2.7,3,2.9,7.7a44.7,44.7,0,0,1-.6,10.7,88.1,88.1,0,0,1-3.1,9.2Q4519,7055.8,4514.6,7054.8Zm7.8-509c-1.8-.4-3.1-2.3-3.9-5.6a20.3,20.3,0,0,1-.2-9.4q0.8-3.6,3.5-3c1.2,0.3,2.3,2.1,3.4,5.5a17.6,17.6,0,0,1,.6,9.5C4525.3,6545.2,4524.1,6546.2,4522.3,6545.8Zm1.2,157.4a1.8,1.8,0,1,1-3.6-.8,0.8,0.8,0,0,1,1.1-.7l1.1-.7A1.6,1.6,0,0,1,4523.5,6703.2Zm54.9,453.8q-13.3,4.4-21.1,7.8t-20.7,2.3c-3-.7-6.1-3.9-9.5-9.7s-4.8-9.6-4.4-11.4a6.2,6.2,0,0,1,1.1-2.6,6.5,6.5,0,0,0,1.1-2.6,15.2,15.2,0,0,0,.4-3.7,14.7,14.7,0,0,1,.4-3.7q1-4.5,10.7-9.7c6.5-3.5,10.3-5.1,11.5-4.9a12.1,12.1,0,0,1,2.6,1.1,12.7,12.7,0,0,0,2.6,1.1c2.5-.1,4.1-1.6,4.8-4.5q2.3-9.8,11.3-12.4a37,37,0,0,1,18.9-.3,39.3,39.3,0,0,1,15.7,7.4,19.4,19.4,0,0,1,7.6,14,8.3,8.3,0,0,1-1.7,3.4,1.5,1.5,0,0,0,.6,1.5c0.5,0.4.7,1.2,0.4,2.4a91,91,0,0,1-5.2,12.4q-2.5,4.6-4.6,7.9c-1.4,2.2-3.1,3.1-4.8,2.6l0.9,0.2c-0.1.6-2.9,1-8.3,1.4S4579.6,7157.3,4578.4,7157Zm-47.1-381.5c-0.4,1.8-1,2.9-1.7,3.4a1.9,1.9,0,0,0-.1-1.4,1.9,1.9,0,0,1-.1-1.4C4529.4,6775.4,4530.1,6775.2,4531.3,6775.5Zm3.3,127.8a3.6,3.6,0,0,1,4.2-1.9c1.2,0.3,2,1.5,2.4,3.8a15.2,15.2,0,0,1,0,6.1,6.2,6.2,0,0,0-2.8-.2,4.2,4.2,0,0,1-1.9,0c-3-.7-4.1-2.8-3.2-6.4A2.6,2.6,0,0,1,4534.6,6903.3Zm29.9-80.5c-0.8-2.1-1.8-3.2-3-3.5s-4.3-.4-5.8.5-5.3-2.3-8.7-5.3-4.9-5.1-4.7-6.3,0.3-.9.7-0.8,0.6-.5.9-1.7q-6-2.3-4.8-7.7a13.8,13.8,0,0,1,3-4.9,8,8,0,0,1-1.3-4.5,8,8,0,0,0-1.3-4.5q5-5.4,8.1-8.5a52.8,52.8,0,0,0,5.1-5.9c1.4-1.9,2-2.5,1.9-1.9a0.8,0.8,0,0,0-.7-1.1c0.3-1.2,2.5-1.9,6.6-2.2a67.5,67.5,0,0,0,8.2-.9c2.6-.7,3.7-1,3.1-1.2l5.7,1.8a35.7,35.7,0,0,1,9.6,5.1,41.5,41.5,0,0,1,8.5,8.1,11.3,11.3,0,0,1,2.4,10,15.4,15.4,0,0,1-1.3,3.5,14.5,14.5,0,0,0-1.3,3.5,51.6,51.6,0,0,1-.9,12q-2.1,8.9-11.8,12.3A78.5,78.5,0,0,1,4564.5,6822.7Zm-18.2-315.6c-0.7,3-1.6,4.3-2.8,4.1s-2.4-1.8-1.9-4.2A10.3,10.3,0,0,0,4546.3,6507.2Zm11,541.5a42.7,42.7,0,0,0-6-10.8q-3-3.5-3.1-11.1a21.2,21.2,0,0,1,7.5-11.9,14.3,14.3,0,0,1,12.9-3.1l3.9,1.4a22.4,22.4,0,0,1,6.2,3.8,16.9,16.9,0,0,1,4.9,7.2c1.2,3.1,1.2,7,.1,11.8q-1,4.5-9.3,9.6A22,22,0,0,1,4557.4,7048.7Zm-1.5-631.5a2.4,2.4,0,0,1-3.3,2.1,0.8,0.8,0,0,1-.7-1.1l0.6-2.7a4,4,0,0,1,1.7.9A4.1,4.1,0,0,0,4555.9,6417.2Zm1,198.7c-0.4,1.8-1.2,2.5-2.4,2.3a2.4,2.4,0,0,1-2.1-3.3,0.8,0.8,0,0,1,1.1-.7C4555.3,6614.6,4556.5,6615.2,4556.9,6615.9Zm10-2.4a35.6,35.6,0,0,0-9.4-14.4q-6.6-6.2-3.9-17.8,1-4.5,3.8-6.2a7.1,7.1,0,0,0,3.4-4.4c0.4-1.8.4-3.1-.1-3.8s1.9-2.2,7.6-6.2,12.6-5.1,21-3.1a35.3,35.3,0,0,1,15.9,8.4q7,6.3,5.1,14.4a21.7,21.7,0,0,1-1.4,3.9,20.4,20.4,0,0,0-1.4,3.9,6.9,6.9,0,0,0,1.6,3.2,3.1,3.1,0,0,1,.7,3q-0.8,3.6-4.6,7.9a42.9,42.9,0,0,1-9.3,7.7,58.1,58.1,0,0,1-11.1,5.4q-5.6,2-9.2,1.2a20,20,0,0,1-4.7-2c-2-1.1-2.6-1.5-2-1.4s-0.9-.1-1,0.2S4567.5,6613.6,4566.9,6613.5Zm-8.2-151.5c-0.3,1.2-1.6,1.5-4,1l0.6-2.7a1.6,1.6,0,0,1,2.2-1.4C4558.7,6459.2,4559.1,6460.3,4558.7,6462.1Zm17.7,716.1a92.3,92.3,0,0,1-7.2,19q-5.4,11-8.5,12.2a2.7,2.7,0,0,1-1.6-1.3,3.7,3.7,0,0,1-.3-2.9,58.5,58.5,0,0,1,8.1-18.8Q4572.7,7177.3,4576.3,7178.2Zm4.5-722.3c1.2,0.3,1.6,1.2,1.3,2.6l-0.7,3.1c-2.4-.6-3.3-2-2.7-4.4A1.6,1.6,0,0,1,4580.8,6455.9Zm39.3,618.6q-1.3,1.6-10.3,1.8c-6,.2-10.5-0.1-13.5-0.8q-8.9-2.1-11.9-11.7a35.2,35.2,0,0,1-.9-18.5c1.5-6.6,4.1-10.8,7.7-12.8a32.3,32.3,0,0,0,9.3-7.7q-2.7-4.4-1.1-11.5a57.5,57.5,0,0,1,7.5-18q5.2-8.2,5.8-10.9a20,20,0,0,0,.2-5.1c-0.1-2.2-.3-4.3-0.4-6.2a35.6,35.6,0,0,1,2.6-7.4q1.8-3.8,3.6-3.4a16.2,16.2,0,0,1-.1-7.6,18.6,18.6,0,0,1,2.8-5.9q2.2-3.3,4.8-2.6c0.6,0.1,1.3.9,2.3,2.4q0.4-1.8,4.9-3.1a30.4,30.4,0,0,0,5.6-2c1.6-4,3.9-6.5,6.9-7.3a30.2,30.2,0,0,1,8.8-1.3,71.9,71.9,0,0,1,8.8.6,11.7,11.7,0,0,0,7.9-1.5,20.1,20.1,0,0,0,5-5.4c1.9-2.7,3.7-3.8,5.5-3.4l-1.8-.4a15.9,15.9,0,0,0,12.3-2.3,30.3,30.3,0,0,0,8.9-7.8q-2.5-1.5-10.5-11.4t-4.6-25q1.7-7.2,9.2-9.2t9.8-11.8a21.4,21.4,0,0,0,.5-4.1,20.6,20.6,0,0,1,.5-4.1,11.1,11.1,0,0,1,1.8-3.8,16.5,16.5,0,0,0,2.2-5.6,18.6,18.6,0,0,0,.1-6.6,20.8,20.8,0,0,1,.3-7.5l0.9,0.2a2.7,2.7,0,0,0-.5-2l1.3-1.6a6.4,6.4,0,0,0,.2-2.8,9.4,9.4,0,0,1,.4-3.7,30.6,30.6,0,0,1,7.6-14.7c3.7-3.8,5.3-5.8,4.7-6a2.7,2.7,0,0,0-.5-2l0.2-.9c0.3-1.2,1.3-1.6,3.1-1.2,0.1-.6.1-0.9-0.2-1s-0.4-.4-0.2-1,1.9,0.1,2-.5a2.6,2.6,0,0,1,1.3-1.6c0.6-2.4-.2-3.8-2.3-4.3a6.8,6.8,0,0,1-4.5-2.9l0.9,0.2q0.6-2.7-2.8-6.3t-1.5-11.6a3.1,3.1,0,0,1,2-2.4,3.1,3.1,0,0,0,2-2.4l-0.7-1.1a9.9,9.9,0,0,1,4.3-6.5,13.7,13.7,0,0,1,4.2-1.9,1.9,1.9,0,0,1,1.2.8,1.9,1.9,0,0,0,1.2.8,10.8,10.8,0,0,1-1.7-7c0.2-2.5-1.4-4.1-5-4.9l1.8,0.4q-9.8-2.3-8.2-9.4a8,8,0,0,1,1.7-3.4,8.3,8.3,0,0,0,1.7-3.4q0.1-4.7-6.8-9.1t-14.8-9.1a128.7,128.7,0,0,1-13.8-9.3c-4-3.1-5.6-6.5-4.7-10l0.9,0.2q2.1-8.9-6.9-11l-4.6-.6a50,50,0,0,1-5.5-.8c-2.4-.6-3.5-1.1-3.4-1.7s1.4-2.7,3-2.6a25,25,0,0,1,5,.7,9.6,9.6,0,0,0,5.2-.2c1.7-.6,2.9-2.3,3.6-5.3s-1-7.1-5.9-8.9-7.1-3.8-6.6-6.2,2.4-4.8,5.4-7.2,5.4-4.4,7-5.9l-8.5-2q-5.8-1.3-5.7-6a46.5,46.5,0,0,1,6.5,2.4,50.4,50.4,0,0,0,8.3,2.9q3.6,0.8,6.4-3.2a21.3,21.3,0,0,0,3.4-6.7q0.8-3.6-3.9-7.5a82.5,82.5,0,0,1-7-6.3c1.5-.9,3.4-1.1,5.8-0.5a21.6,21.6,0,0,1,5.6,2.2,22.1,22.1,0,0,0,5.6,2.2,2.2,2.2,0,0,0-1.3-2.6,14.7,14.7,0,0,0-3.5-1.3c0.3-1.2.7-1.7,1.3-1.6a3.1,3.1,0,0,1,2.4,2,3.1,3.1,0,0,0,2.4,2,6.7,6.7,0,0,0,5.9-1,7,7,0,0,0,2.7-3.6,10.8,10.8,0,0,0-.3-4.8,40.7,40.7,0,0,1-1-5.9,3.7,3.7,0,0,0,2.3.1,3.5,3.5,0,0,1,2.3.1c0.6,0.1.9,0.3,0.8,0.7s0.2,0.5.8,0.7,1.9-.2,7.6-0.1,9.2-3.2,10.7-9.7a2.7,2.7,0,0,0-.5-2,0.8,0.8,0,0,1,1.1-.7,0.8,0.8,0,0,0,1.1-.7,1.9,1.9,0,0,0-.1-1.4,1.9,1.9,0,0,1-.1-1.4l3.6,2.7a11.4,11.4,0,0,0,3.8,1.8q3.6,0.8,4.9-3.1a33.4,33.4,0,0,1,2.9-6.4,12.2,12.2,0,0,0-1.3-8.8,12.2,12.2,0,0,1-1.3-8.8,58.1,58.1,0,0,0,7.3.8q5.6,0.3,7.4-7.7c0.3-1.2.2-3.7-.1-7.6a5.7,5.7,0,0,0,3.3-.2,5.6,5.6,0,0,1,3.3-.2l1.6,1.3c1.2,0.3,2.5-.8,4.1-3.3a21.8,21.8,0,0,0,2.7-5.5,7.7,7.7,0,0,0,.1-2.3,9.9,9.9,0,0,1,.3-3.2,2.4,2.4,0,0,1,3.3-2.1c2.4,0.5,3.7,1.8,3.8,3.7s1.8,3.2,4.7,3.9a17.3,17.3,0,0,0,7,.2,17.2,17.2,0,0,1,7,.2c1.8,0.4,3.3,1.9,4.6,4.4a9.2,9.2,0,0,0,6.4,4.8l1.1-.7a6.6,6.6,0,0,1,4.3,3.8,6.5,6.5,0,0,0,4.3,3.8,2.7,2.7,0,0,0,2-.5,0.8,0.8,0,0,1,.7,1.1c0.6,0.1.8,0,.5-0.3s-0.1-.5.5-0.3,2.8,2.1,3.1,4.9,0.5,5.9.7,9.1a43.6,43.6,0,0,0,1.6,9.3,7.4,7.4,0,0,0,5.8,5.6,7.9,7.9,0,0,1-2.9,4.5,7.8,7.8,0,0,0-2.9,4.5,2.4,2.4,0,0,0,2.1,3.3c2.4,0.5,4.6-.2,6.6-2.2a54,54,0,0,0,5.9-7.1,46.8,46.8,0,0,1,6.4-7.4c2.4-2.3,5.8-3.2,10.1-2.8,1.8,0.4,2.6.9,2.5,1.5-0.5,2.4-3.8,4.9-9.8,7.6s-9.3,5.8-10.2,9.4,1.8,5.3,6.9,8.7,6.8,9.2,4.9,17.6a5.7,5.7,0,0,1-1.6,2.9,5.6,5.6,0,0,0-1.6,2.9q-1.9,8,5.3,9.7a21.7,21.7,0,0,0,4.1.5,20.4,20.4,0,0,1,4.1.5,15.4,15.4,0,0,1-1.9,4.3,17.2,17.2,0,0,0-2.1,5.1,6.2,6.2,0,0,0,.8,4.9,30.7,30.7,0,0,1,2.5,5.3c-0.5,2.4-2.2,4.2-5,5.4s-4.5,3-5,5.4a11.2,11.2,0,0,0,0,4.2,16.4,16.4,0,0,1-.5,6q-0.2.9-6.3,8.9a46.3,46.3,0,0,0-8.4,17.8,17.6,17.6,0,0,0,1.4,12.1q2.9,5.8,2.1,9.4a6.5,6.5,0,0,1-1.1,2.6,6.2,6.2,0,0,0-1.1,2.6c-0.4,1.8,1,2.6,4.2,2.4s4.4,1.2,3.7,4.2a25.2,25.2,0,0,1-6.5-2.4,28.6,28.6,0,0,0-7.4-2.6c-2.4-.6-3.7-0.2-4,1l-0.2.9c-0.1.6-.1,0.9,0.2,1s0.4,0.4.2,1a15.4,15.4,0,0,1-1.9,4.3,14.9,14.9,0,0,0-1.9,4.3c-0.4,1.8-.4,3,0.1,3.8a0.8,0.8,0,0,0,.7,1.1c-0.1.6-2.2,1.9-6,3.8s-8,4.3-12.4,7a131.3,131.3,0,0,0-13,9.2q-6.4,5.1-7.4,9.6c-0.3,1.2.3,2.9,1.6,5.1a2.6,2.6,0,0,0-1.6-1.3q-1.7,7.1,4,11.3a73.9,73.9,0,0,1,10.2,8.9q9,5.8,7.8,13.1a99.5,99.5,0,0,0-1.3,15.7,10.6,10.6,0,0,0,1.4,8.3q2.4,3.8.7,11a5.3,5.3,0,0,1-2.6,3.2,25.1,25.1,0,0,0-.7,5,26,26,0,0,1-.7,5,14,14,0,0,1-5.1,7.8,59.4,59.4,0,0,1-8.9,5.9c-3.2,1.8-6.2,3.3-9,4.5s-4.7,2.7-5.7,4.3l1.1-.7c-0.8,3.6-3.4,5.2-7.7,4.8s-7.5,1.4-9.7,5.3-0.6,5.2.3,6.7a7.5,7.5,0,0,1,.5,5.8,23.3,23.3,0,0,1-5.8,10.9,47.4,47.4,0,0,1-9.3,7.7q-4.9,3.1-8.7,5c-2.5,1.3-3.9,2.5-4.2,3.7a26.7,26.7,0,0,0,.4,12.3,42.3,42.3,0,0,1,.9,14.3,32.3,32.3,0,0,1-2.2,5.6,39.7,39.7,0,0,0-2.9,8.3c-0.5,2.4-.4,4.3.5,5.8a8.8,8.8,0,0,0-5.6-4.1q-8.9-2.1-16.4,5.6t-8.5,12.2a11.2,11.2,0,0,0,0,4.2,13.6,13.6,0,0,1-.2,5.1q-1.9,4.2-3.6,7.6a6.9,6.9,0,0,0-1.5,2.5,7.3,7.3,0,0,1-1.5,2.5,6.9,6.9,0,0,0-1.5,2.5,1.9,1.9,0,0,0,.1,1.4,1.9,1.9,0,0,1,.1,1.4,0.8,0.8,0,0,0-.7-1.1q-3.6-.8-13.5,5.3-4.4,2.7-10.1,7.1l0.9,0.2a33.7,33.7,0,0,0-8.2-1c-5,.1-7.7.7-8,1.9a7.4,7.4,0,0,0,1.3,6.4q2.2,2.8,1.7,4.6-1.9,8-13.1,12T4620.1,7074.5Zm-32-670.5a1.6,1.6,0,0,1-2.2,1.4l0.6-2.7C4587.7,6402.9,4588.2,6403.4,4588.1,6404Zm-0.4,521.9c-1.2-.3-1.7-0.7-1.6-1.3l1.3-1.6A3.7,3.7,0,0,1,4587.7,6925.9Zm11.6-277.6c1.2,0.3,1.6,1.3,1.2,3.1-2.4-.6-3.5-1.1-3.4-1.7A1.6,1.6,0,0,1,4599.3,6648.3Zm3.4-315.3a1.9,1.9,0,0,1-.8,1.2,1.8,1.8,0,0,0-.8,1.2c-3-.7-4.3-1.9-3.8-3.7a1.6,1.6,0,0,1,2.2-1.4,3.6,3.6,0,0,1,2.1,1,1.9,1.9,0,0,0,1.2.8Zm-0.3,480.6a1.6,1.6,0,0,1-1.4-2.2l1.1-.7C4602.7,6810.9,4602.8,6811.8,4602.4,6813.6Zm2.7,106c-2.4-.6-3.4-1.4-3.2-2.6a1.6,1.6,0,0,1,2.2-1.4C4605.4,6915.9,4605.7,6917.2,4605.1,6919.6Zm11.7-387.7c-2.3,2-4.7,2.7-7.1,2.1s-4-2.2-5-4.9a13.7,13.7,0,0,1-.6-7.7,9.8,9.8,0,0,1,3-4.9q2.4-2.3,6.9-1.2,8,1.9,6,10.8C4619.3,6529.1,4618.3,6531,4616.8,6531.9Zm-1.9,207.4a2.4,2.4,0,0,1-3.3,2.1l-0.5-2c0.4-1.8,1.2-2.5,2.4-2.3A1.6,1.6,0,0,1,4614.9,6739.4Zm10.6-281.6a6.2,6.2,0,0,1-6,1.4c-3-.7-4.1-2.5-3.4-5.5s3.5-5.8,7.7-4.8a3.9,3.9,0,0,1,2.7,2.5,5.5,5.5,0,0,1,.7,3,1.9,1.9,0,0,1-.8,1.2A3.5,3.5,0,0,0,4625.5,6457.8Zm-3.4,19c-1.8-.4-2.5-1.2-2.3-2.4C4621.6,6474.7,4622.3,6475.5,4622.1,6476.7Zm5.1-127.7c1.2,0.3,1.6,1.3,1.2,3.1s-1.2,2.5-2.4,2.3a1.6,1.6,0,0,1-1.4-2.2C4625.1,6349.8,4626,6348.8,4627.2,6349Zm3,173.8c-0.9-1.5-1.3-3.8-1.2-6.9s-0.4-5.1-1.4-6a15.3,15.3,0,0,1,7.6-10.5,17.6,17.6,0,0,1,13.1-1.7q8,1.9,10.5,7.6a19,19,0,0,1,1,12,7.9,7.9,0,0,1-4.7,6c-2.4,1-4,3-4.7,6-0.5-.7-1.6-1.3-3.4-1.7s-2.3,1.7-2.4,2.3a1.9,1.9,0,0,1-1.2-.8,1.9,1.9,0,0,0-1.2-.8l-0.2.9a66.3,66.3,0,0,0-6.4-2.9A14.4,14.4,0,0,1,4630.2,6522.8Zm1.9-69.2a2.7,2.7,0,0,1-1.2,5.4c-2.4-.6-3.3-2-2.7-4.4s1.8-2.4,4.2-1.9Zm8.1-43.3q-1.3,1.6-1.6,1c-0.2-.4-0.7-0.3-1.4.1,0.3-1.2.7-1.7,1.3-1.6Zm2.9,316.7a1.6,1.6,0,0,1-2.2,1.4A1.6,1.6,0,0,1,4643.1,6727.1Zm-0.1-117.6a2.7,2.7,0,0,1-.5-2c0.3-1.2,1.3-1.6,3.1-1.2a0.8,0.8,0,0,1,.7,1.1A2.4,2.4,0,0,1,4643.1,6609.5Zm1-219.9,2.2-1.4c1.2,0.3,2.1,1.3,2.6,3a8.2,8.2,0,0,1,.4,4.3q-4.5-1-5-2.6A5.6,5.6,0,0,1,4644.1,6389.6Zm12.2,735.6a14.1,14.1,0,0,0,4.9,3c1.8,0.4,3.7-.3,5.6-2s4.4-2.3,7.4-1.6a13,13,0,0,1,7.1,4,7.9,7.9,0,0,1,1.6,7.4,7.6,7.6,0,0,1-5.1,5.9,15.3,15.3,0,0,1-8.6.4,3051.9,3051.9,0,0,1-3.2-2.6l-0.9-.2c-1.2-.3-2.7.6-4.4,2.7s-4.7,2.7-8.9,1.7q-8.9-2.1-6.7-11.9a5.9,5.9,0,0,1,4.4-4.6Zm14.8-689.8q-1,4.5-6,7.6a13.2,13.2,0,0,1-10.3,1.8,11.3,11.3,0,0,1-7.9-6.5,15.8,15.8,0,0,1-1.3-10.6q2.9-12.5,14.5-9.8Q4674.4,6421.1,4671.1,6435.4Zm-24.8,46a5.9,5.9,0,0,1,4.5,4.8c-1.2-.3-1.8-0.3-1.9,0s-0.4.4-1,.2-1.6-1.3-1.2-3.1A2.6,2.6,0,0,1,4646.4,6481.4Zm24.2,240.8q-0.4,1.8-3.3,2.1a17.6,17.6,0,0,1-5.6-.3c-4.8-1.1-6.8-3.1-6.1-6.1s3.6-4.8,8.4-3.7,5.7,1.9,6.3,3.3A7.4,7.4,0,0,1,4670.6,6722.2Zm15.7-311.5q-1.9,4.2-5.7,4.3c-2.5,0-4.3.9-5.3,2.5a33.3,33.3,0,0,1-13.1-6.3q-6-4.7-3.9-13.6c0.8-3.6,3.2-7.1,7.1-10.6s7.4-4.9,10.4-4.2a36.2,36.2,0,0,1,11.6,4.6c3,1.9,4,5,3.1,9.2a4.2,4.2,0,0,1-.9,1.7,6.2,6.2,0,0,0-1.1,2.6c-0.4,1.8-.1,2.6.8,2.5s1.2,0.8.8,2.5Q4686.9,6408,4686.3,6410.7Zm-19.8,455.4a7.9,7.9,0,0,0-3.8,2.4c-1.2,1.3-2.2,1.9-2.7,1.7s0.1-.9-0.2-1-0.4-.4-0.2-1a1.8,1.8,0,0,1,.8-1.2,1.9,1.9,0,0,0,.8-1.2,3.6,3.6,0,0,0,.1-2.3,1.9,1.9,0,0,1-.1-1.4c0.6-2.4,2.3-3.2,5.3-2.5,1.2,0.3,1.5,1.1.8,2.5A6.2,6.2,0,0,0,4666.4,6866.1Zm0,341.4q4.9-.8,7.2-2.6t9.4-.2q8.5,3.8,6.2,13.7a9.9,9.9,0,0,1-4.3,6.5l-6.6,4.1c-0.5-.7-1.9-1.4-4.3-1.9a1.8,1.8,0,0,0-1.4.1,1.9,1.9,0,0,1-1.4.1q-6.3-1.4-6-8.5A60.4,60.4,0,0,1,4666.4,7207.5Zm3.1-838.3c-0.4,1.8-1.2,2.5-2.4,2.3a0.8,0.8,0,0,1-.7-1.1c0.4-1.8,1.2-2.5,2.4-2.3A0.8,0.8,0,0,1,4669.5,6369.2Zm10.2,289.2a4.2,4.2,0,0,1-3.2,1.6,17.1,17.1,0,0,0-3.9.5c-2.4-.6-3.3-2-2.7-4.4s2.6-3.2,6.2-2.3S4680.3,6656.1,4679.7,6658.4Zm12.3,105.4q-2.1,8.9-11,6.9t-6.2-9.9q1.9-8,10.8-6T4692,6763.8ZM4680.4,6367c-1.5.9-2.5,1.3-3.1,1.2a2.7,2.7,0,0,1-1.6-1.3c-0.9-1.5-1.3-2.5-1.2-3.1s1.6-1.5,4-1S4680.9,6364.6,4680.4,6367Zm4.8,702.8c-1.5.9-2.5,1.3-3.1,1.2s-1.4-1.9-.8-4.9c0.6,0.1.9,0.1,1-.2s0.4-.4,1-0.2l0.7,1.1C4684.9,7068.2,4685.3,7069.2,4685.1,7069.8Zm1.1-216.1a3.7,3.7,0,0,1,2.5,1.5,2.6,2.6,0,0,0-2,.5C4686.1,6855.6,4686,6854.9,4686.2,6853.7Zm16.6-144.8c0.6,0.1.6,1.4,0.1,3.8-3-.7-4.3-1.9-3.8-3.7a0.8,0.8,0,0,1,1.1-.7Zm13.4-163.4a16.2,16.2,0,0,1-4.8-7.7,28.7,28.7,0,0,1-1.5-9.8c0.6,0.1,2,2,4.3,5.7A15,15,0,0,1,4716.2,6545.5Zm1-146.5c0.6,0.1.6,1.4,0.1,3.8a3.5,3.5,0,0,0-2.3-.1,3.7,3.7,0,0,1-2.3-.1,4.1,4.1,0,0,0,0-1.9,4,4,0,0,1,0-1.9C4712.6,6398.3,4714.2,6398.3,4717.2,6399Zm3.3,160.7a2.9,2.9,0,0,1,2.3,2.4,8.2,8.2,0,0,1,.1,3.8A21.3,21.3,0,0,1,4720.4,6559.7Zm4.6-52.5a1.6,1.6,0,0,1-2.2,1.4l0.6-2.7C4724.7,6506.1,4725.2,6506.6,4725.1,6507.2Zm5-94.8,0.7,1.1a5.6,5.6,0,0,1-2,2.4,4,4,0,0,1-3.5,1.1c-1.2-.3-1.3-2.5-0.3-6.7a1.6,1.6,0,0,1,2.2-1.4C4728.3,6409.1,4729.3,6410.3,4730.1,6412.4Zm3.4,168.2c-1.8-.4-2.8-1.9-3.2-4.5a17.6,17.6,0,0,1-.1-5.7c-0.3,1.2.1,2.8,1.2,5A26.1,26.1,0,0,1,4733.5,6580.6Zm10.2,415.3-1.1.7q-1.8-.4-4.1-6.6a66.3,66.3,0,0,0-3-7.3,65,65,0,0,1,5.4,7.4,63.7,63.7,0,0,0,5.4,7.4C4744.3,6997,4743.5,6996.5,4743.6,6995.9Zm20.2-583.2q-7.2-1.7-12.7-10a74,74,0,0,1-8.9-18.5,128.8,128.8,0,0,1-4.7-18.5c-0.9-5.5-1.3-8.6-1.2-9.2s2.2-3.6,5.5-5.3,5.2-4.1,5.9-7.1,0.3-7.6-1.8-10.3-2.6-7-1.2-13a168.2,168.2,0,0,1,17.4-22.3,97.6,97.6,0,0,1,16.1-14.6q8.4-6,15.8-5.3l0.9,0.2,1.6,1.3c1.2,0.3,2-.3,2.3-1.8a5.7,5.7,0,0,1,2.7-3.6c-0.6-.1-1-1.3-1.1-3.5a24.7,24.7,0,0,1,.7-6.9c0.5-2.4,1.4-3.4,2.6-3.2s3.1,3.5,2.2,9-1.5,8.4-1.6,9l-1.3,1.6a15.4,15.4,0,0,0,.7,9.1q1.7,4.6,4.4,5.3a3.6,3.6,0,0,0,2.3.1,3.6,3.6,0,0,1,2.3.1c1.2,0.3,1.7.7,1.6,1.3l-1.1.7,0.9,0.2,1.6,1.3q4.5,1,5.9-5.2a30.4,30.4,0,0,0,.8-9.7,37.6,37.6,0,0,1,1.2-11.5q1.2-5.4,4.1-5.6a39.7,39.7,0,0,0-1.1,8.7,40.6,40.6,0,0,1-1.1,8.7,49.4,49.4,0,0,1-2,6.6,41,41,0,0,0-1.8,5.7l0.2-.9c0.6,0.1,1.7,1.5,3.3,4.1a76,76,0,0,0,5.7,7.9c2.2,2.7,4.5,5.4,7,8.2a15.8,15.8,0,0,0,8.2,5.2q5.4,1.2,8.4-1.8a13.9,13.9,0,0,1,7.9-3.8,11.4,11.4,0,0,1-5.4,7.2,11.4,11.4,0,0,0-5.4,7.2c0.6,0.1,1,1,1.3,2.6s1,2.6,2.2,2.9a2.6,2.6,0,0,0,2-.5,2.7,2.7,0,0,1,2-.5,2.4,2.4,0,0,1,2.1,3.3c-0.4,1.8-1.4,2.5-2.9,2.2s-2.5.7-3.1,3.1,1,4,2.7,4.4a6.3,6.3,0,0,0,2.8.2,6.4,6.4,0,0,1,2.8.2,0.8,0.8,0,0,1,.7,1.1,5.7,5.7,0,0,1-1.6,2.9,5.6,5.6,0,0,0-1.6,2.9q-1.7,7.2,7.3,9.2a47.5,47.5,0,0,0,6.8,1.1,43,43,0,0,1,5.9.9,15.2,15.2,0,0,1,5.5,2.7,5,5,0,0,1,2,5.6q-1.4,6.3-6.7,4.6t-7.9,1.5l0.9,0.2c-0.3,1.2-3.6,2.1-10.1,2.8s-10.3.9-11.4,0.6l0.9,0.2c-0.1.6-1,1-2.6,1.3l-5.8.5a22.2,22.2,0,0,0-5.9,1c-1.7.5-2.8,2-3.4,4.4s-2.6,3.3-6.7,4.6l-14.3,4.7a140.8,140.8,0,0,0-17.2,7.3,55.1,55.1,0,0,0-16.7,13.1l0.7,1.1a15.3,15.3,0,0,1-4.3-1.9,15,15,0,0,0-4.3-1.9,3.7,3.7,0,0,0-2.9.3c0.9-1.1-.2-1.9-3.2-2.6S4763.6,6413.9,4763.9,6412.7Zm-23.5,40.6c-1.2-.3-1.6-1.3-1.2-3.1a1.6,1.6,0,0,1,2.2-1.4c1.2,0.3,1.6,1.3,1.2,3.1A1.6,1.6,0,0,1,4740.3,6453.3Zm4.2,112a1.6,1.6,0,0,1-2.2,1.4l-2.7-.6q0.8-3.6,3.5-3A1.6,1.6,0,0,1,4744.5,6565.3ZM4743,7023c0.7-3,1.6-4.3,2.8-4.1s3.3,2,2.7,4.4a2.2,2.2,0,0,1-2.3,1.8,5.6,5.6,0,0,0-3,.7,1.9,1.9,0,0,0-.1-1.4A1.9,1.9,0,0,1,4743,7023Zm16.8-7.4a4.5,4.5,0,0,1-3.5-3.2,21.2,21.2,0,0,0-2.2-4.7,13.9,13.9,0,0,1,4.9,3,6,6,0,0,1,2.1,3.3C4760.8,7015.2,4760.3,7015.7,4759.8,7015.6Zm2.7-544c0.6,0.1.6,1.4,0.1,3.8a2.7,2.7,0,0,1-1.6-1.3,2.7,2.7,0,0,0-1.6-1.3C4760.8,6471.8,4761.9,6471.5,4762.5,6471.6Zm4.1,551.2q-1.8-.4-5.2-5.9C4764.9,7017.7,4766.6,7019.7,4766.6,7022.8Zm0.2,186.3c0.6-2.4,1.7-3.4,3.5-3s2.2,1.4,3,3.5-2.2,4.2-4.6,3.6S4766.2,7211.5,4766.7,7209.1Zm4.2-176.8a2.7,2.7,0,0,1,1.6,1.3c-0.4,1.8-1.2,2.5-2.4,2.3a2.7,2.7,0,0,1-1.6-1.3,2.7,2.7,0,0,0,1.2-1.1A2.5,2.5,0,0,1,4770.9,7032.3Zm14.2,11.8c-0.9-1.5-3-3.5-6.1-6.1s-4.6-4.5-4.3-5.7c1.8,0.4,4.4,2.1,7.8,5.1s4.9,5.1,4.7,6.3S4786.3,7044.3,4785.2,7044Zm-4.4-554.1c0.4-1.8,0-2.8-1.2-3.1a40.6,40.6,0,0,1,3.7-3.8c1.6-1.5,3-2.1,4.2-1.9s2.3,2.1,1.6,5.1-1.5,3.9-2.9,4.5a5.6,5.6,0,0,1-3,.7,1.9,1.9,0,0,1-1.2-.8A1.9,1.9,0,0,0,4780.8,6490Zm14.3-61.6a3.7,3.7,0,0,0-.3-2.9,3.7,3.7,0,0,1-.3-2.9,3.8,3.8,0,0,0,2.5-.8,3.7,3.7,0,0,1,2.5-.8c1.2,0.3,1.5,1.6,1,4S4798.4,6427.3,4795,6428.4Zm4,100.6c0.6,0.1.8,0.8,0.5,2s-1.7-.7-1.6-1.3Zm18.5,245.1c-0.5-.7-0.5-2-0.1-3.8a2.4,2.4,0,0,1,3.3-2.1,20.7,20.7,0,0,1,3.9,1.4c1.4,0.6,1.9,1.9,1.5,3.6a13,13,0,0,1-1.1,2.6c-0.6,1.1-1.2,1.6-1.8,1.5l-0.5-2a2.7,2.7,0,0,1-2,.5,4.1,4.1,0,0,1-1.7-.9A4,4,0,0,0,4817.5,6774.1Zm22.9-281.6a19.8,19.8,0,0,1-9.6-11.2q-2.9-7.7-1.7-13.1a20.2,20.2,0,0,1,4.3-8.4,20.5,20.5,0,0,0,4.3-8.4,6.3,6.3,0,0,1,2.6,1.1,4.1,4.1,0,0,0,1.7.9c1.8,0.4,4.1-.3,7.1-2.1s5-2.6,6.2-2.3q11.6,2.7,13.9,8.9t4.1,6.6c0.6,0.1,1-.4,1.3-1.6a43.8,43.8,0,0,0,1,10.1c0.7,3.6.9,6.3,0.5,8.1q-1.9,8-11.4,12.9t-17.6,3a8.2,8.2,0,0,1-3.4-1.7Zm1.3,87.8a2.7,2.7,0,0,1-2,.5C4839.9,6580.1,4840.5,6580,4841.7,6580.2Zm10.9,598.9,0.9,0.2a6.2,6.2,0,0,1,4.1,2.8c-1.7,2.1-3.2,3-4.4,2.7s-1.5-1.6-1-4Zm16.9-597.1a0.8,0.8,0,0,0-.7-1.1q3.8-8.5,12.8-6.4a1.6,1.6,0,0,1,1.4,2.2q-1,4.5-5.3,4.4A32.7,32.7,0,0,0,4869.5,6582Zm11.3,36.5c0.8-3.6,2.7-5,5.7-4.3q7.1,1.7,5.5,8.8c-0.4,1.8-1.8,2.9-4.1,3.3a15.6,15.6,0,0,0-5.6,2c0.3-1.2-.4-2.1-2.2-2.9s-2.3-2.3-1.7-4.6S4879.6,6618.2,4880.8,6618.5Zm8.5,333.1c0.3-1.2,1.6-1.5,4-1s1.6,1.3,1.2,3.1-1,3.1-2.6,7.4-3.9,6.1-6.9,5.5-3.2-2.6-2.3-6.2a6.6,6.6,0,0,1,3.5-4.8A5.7,5.7,0,0,0,4889.3,6951.5Zm12-128.9c0.3-1.2,1.9-1.4,4.9-.8a13,13,0,0,1-1.1,2.6,2.2,2.2,0,0,1-2.6,1.3C4901.3,6825.4,4900.9,6824.4,4901.3,6822.6Zm25.4-349.7,2.7,0.6-3.3,2.1,0.4-1.8Zm26.1-68.3q5.5-3.4,6.4-3.2,7.1,1.7,8.5,8.1a25.7,25.7,0,0,1,.3,10.9,15.3,15.3,0,0,1-5.3,8.7q-4.1,3.3-11.2,1.6a12.2,12.2,0,0,1-8.8-6.7,17.1,17.1,0,0,1-1.1-11.5q1.8,0.4,3.5-4.8t3.5-4.8a4,4,0,0,1,1.7.9A6.4,6.4,0,0,0,4952.9,6404.7Zm32.1,219.1c0.3-1.2.7-1.7,1.3-1.6s2.4,1.8,1.9,4.2-3.4,2.6-9.1,2.6l-13.1-.2c-1.8-.4-2.5-1.2-2.3-2.4s3.3-3.9,8.1-4.7,8.8-.8,11.8-0.1a0.8,0.8,0,0,1,.7,1.1A0.8,0.8,0,0,0,4985,6623.8Zm-13.6,50.5q0.8-3.6,7.1-2.1a7.9,7.9,0,0,1,6,4.7,11.7,11.7,0,0,1,.7,7.2,9.2,9.2,0,0,1-4.8,6.4c-2.5,1.3-4.6,1.7-6.4,1.3a10.5,10.5,0,0,1-5.3-3.6c-1.7-2-2.4-3.8-2-5.6a8.2,8.2,0,0,1,2.3-3.7A9.6,9.6,0,0,0,4971.4,6674.2Zm-0.9-28.4q1.7-3.4,8.4-3.7l4,0.9q1.3,0.3,3.4,3.6c-1.8-.4-3.1-0.1-4,1s-2.5,1.3-4.9.8a15.2,15.2,0,0,1-3.5-1.3A14.7,14.7,0,0,0,4970.5,6645.8Zm36.4-55.5c-1.2-.3-2.6.5-4.3,2.3a43.1,43.1,0,0,1-5.9,5.2q-3.4,2.5-7.2,4.9a11.8,11.8,0,0,1-9.2,1.2q2.5-7,10.4-12.6t14.2-4.2A2.4,2.4,0,0,1,5006.8,6590.2Zm-9.1,124.9a0.8,0.8,0,0,1,1.1-.7,1.6,1.6,0,0,1,1.4,2.2,1.9,1.9,0,0,1-.8,1.2,1.8,1.8,0,0,0-.8,1.2,1.6,1.6,0,0,1-1.4-2.2Zm17.8-267.7a10.4,10.4,0,0,0,1.9-4.3,2.4,2.4,0,0,1,3.3-2.1q4.5,1,4.5,4.8a4.8,4.8,0,0,1-2.7,3.6,6.1,6.1,0,0,1-3.9.5c-1.2-.3-1.7-0.7-1.6-1.3S5016.6,6447.7,5015.4,6447.4Zm5.3,99a41.5,41.5,0,0,1,4.7-6q3.1-3.5,6.7-2.7c1.8,0.4,2.6.9,2.5,1.5s-2.3,2.6-6.2,4.2A66.3,66.3,0,0,1,5020.7,6546.4Zm0.5-136.3c0.5-2.4,2-3.3,4.4-2.7s5,2.7,4.3,5.7c-0.1.6-1,1.6-2.6,3.2s-3,2.1-4.2,1.9-1.9-1.4-2.1-3.3A14.9,14.9,0,0,1,5021.2,6410.2Zm14,187.6c1.3-2.8,4.4-4.6,9.2-5.4a67.2,67.2,0,0,1,12-1c-1.7,2.1-3.5,3.1-5.4,3S5043.9,6595.4,5035.2,6597.8Zm29.2-8.3a5.9,5.9,0,0,1-3.7,2,11.5,11.5,0,0,1-4.2,0q0.4-1.8,3.3-2.1A14.9,14.9,0,0,1,5064.4,6589.5Zm17.6-72.1a3.6,3.6,0,0,1,3.5-3c-0.4,1.8-.7,2.5-1,2.1S5083.5,6516.4,5082,6517.4Zm22.2,50.3c1.2,0.3,1.6,1.3,1.2,3.1a1.8,1.8,0,1,1-3.6-.8C5102.2,6568.1,5103,6567.4,5104.2,6567.6Z" transform="translate(-4352.3 -6261)"/>
</svg>
