<svg id="Design_Layer" data-name="Design Layer" xmlns="http://www.w3.org/2000/svg" viewBox="0 0 865.2 540.1">
  <defs>
    <style>
      .cls-1 {
        fill: #f75a21;
      }
    </style>
  </defs>
  <title>background-splatter-red</title>
  <g>
    <path class="cls-1" d="M2886,7740.2c0,0.6.6,1.4,1.9,2.7a11,11,0,0,1,2.7,4.3q-1.2,0-2.9,2.7t-5.8,2.7q-2.1,0-5.8-2.1t-3.7-4.1c0-.8,1-1.9,2.9-3.3s2.9-2.6,2.9-3.7l3.9,0.6Zm14.9,1.7a1.3,1.3,0,0,1,1.4,1.2,12.6,12.6,0,0,1,.2,2.1,23,23,0,0,1-5.4.8v-1.2c0-.3-0.3-0.4-0.8-0.4,0.3-1.9,1-2.9,2.1-2.9l1.2,0.2Zm70.8,16.6c0.8,0,1.2.6,1.2,1.7a9.1,9.1,0,0,1-.4,1.9,6,6,0,0,1-2.3,2.9,19.7,19.7,0,0,1-5.2,2.7,26.8,26.8,0,0,1-9.1,1.2c0-.6-0.7-0.8-2.1-0.8s-2.1.3-2.1,0.8h-7a86.9,86.9,0,0,1-8.7-.4,33.2,33.2,0,0,1-7.2-1.4q-3.1-1-3.1-3.1t2.1-4.8a11.2,11.2,0,0,1,4.8-1.9,19.5,19.5,0,0,1,4.8-.2c1.4,0.1,2.1-.1,2.1-0.6a1.7,1.7,0,0,0,1.2.4,21.3,21.3,0,0,0,5-1.2l3.7-.8c1.1-.3,1.7-0.5,1.7-0.8l15.3,0.8c0.6,1.4,1.4,2.1,2.5,2.1A3.6,3.6,0,0,1,2971.8,7758.5Zm-40.6-12a5.1,5.1,0,0,1-3.3-1.4,3.9,3.9,0,0,1-1.7-2.7,2.6,2.6,0,0,1,1-2.1l1.9-1.7,3.9,0.8q1.9,0.4,1.9,3.7C2934.9,7745.4,2933.7,7746.5,2931.2,7746.5Zm432.8,19.5c0,0.6.8,0.8,2.5,0.8h2.1a2.1,2.1,0,0,1-1.7,1.9,14.7,14.7,0,0,1-3.7.8,10.7,10.7,0,0,0-3.7,1,3,3,0,0,0-1.7,2.9q0,7.5,3.1,10.8a15.1,15.1,0,0,1,3.9,7,5.6,5.6,0,0,1-4.3.8,2.9,2.9,0,0,0-3.5,2.1c0,0.8-.3,1.2-0.8,1.2v3.7a5.8,5.8,0,0,1-.4,2.5,7.1,7.1,0,0,0-.4,2.9v3.3c-1.4.6-2.1,1.1-2.1,1.7a1.7,1.7,0,0,0,.4,1.2c0,0.3-.1,1.1-0.2,2.5a26.9,26.9,0,0,1-.8,4.3,29.1,29.1,0,0,1-1.4,4.1c-0.6,1.2-1.1,1.9-1.7,1.9s-1.4-.7-1.7-2.1a0.7,0.7,0,0,0,.8-0.8,4.2,4.2,0,0,0-1.2-2.3,4,4,0,0,0-1.7-1.4,28.3,28.3,0,0,1-.4,4.6,25.1,25.1,0,0,0-.4,3.3c0.6,0,.8.7,0.8,2.1a50.4,50.4,0,0,1-.8,10.4,18.4,18.4,0,0,1-1.9,5.4,4.5,4.5,0,0,1-2.3,2.1,8.6,8.6,0,0,1,.4,2.7,8.4,8.4,0,0,0,.4,2.7c-0.6,0-.8.1-0.8,0.2a1.4,1.4,0,0,1-.8.6c-1.4,0-1.9-.6-1.4-1.7s-0.1-1.7-1.4-1.7a3.4,3.4,0,0,0-2.5,1.4,10.4,10.4,0,0,0-1.9,3.1,49,49,0,0,0-1.4,5,9.2,9.2,0,0,0,.2,1.9,9.8,9.8,0,0,1,.2,1.9,3.8,3.8,0,0,1-1.9,3.3,7,7,0,0,1-3.9,1.2,23.7,23.7,0,0,1,1-3.7,9.4,9.4,0,0,0,.6-3.3,3.4,3.4,0,0,0-.8-2.5q0,1.7-2.7,2.5l-6.2,2.1a32.6,32.6,0,0,0-6.2,2.9,5.8,5.8,0,0,0-2.7,5.4,18.5,18.5,0,0,0,.2,2.7,17.6,17.6,0,0,1,.2,2.3,13.1,13.1,0,0,1-1.2,2.9,2.3,2.3,0,0,1-1.2-1,3.1,3.1,0,0,1-.8-1.9,4.2,4.2,0,0,1,1.2-2.3,5.8,5.8,0,0,0,1.2-3.9c0-1.9-.8-2.9-2.5-2.9l-1.7.2-1.2.2c-0.3,0-.4-0.1-0.4-0.2s-0.1-.2-0.4-0.2-0.8.1-.8,0.4l0.4,0.4h-4.6c0-1.7-1-2.5-2.9-2.5a10.6,10.6,0,0,0-5.4,2.1,13.9,13.9,0,0,1-5.4,2.5c-0.8,2.2-1.5,3.3-2.1,3.3a8.5,8.5,0,0,1-3.9-1.2,41.9,41.9,0,0,0-4.3-2.1,1.1,1.1,0,0,1-1.2,1.2c-1.7,0-2.3-.2-2.1-0.6s-0.3-.6-1.7-0.6a2,2,0,0,0-2.3,2.1c-0.1,1.4-.6,2.1-1.4,2.1s-0.8-.7-0.8-2.1,0.3-1.2.8-1.2a10.6,10.6,0,0,0-3.5-3.5c-1.8-1.2-3.1-1.9-3.9-1.9a1.2,1.2,0,0,0-.8.4,0.7,0.7,0,0,1-.8-0.8l0.4-.4h-6.2c-2.2,0-3.3-1.1-3.3-3.3a10.7,10.7,0,0,0,3.3.4,12.5,12.5,0,0,0,3.7-.4,15.5,15.5,0,0,1-1-4.6,3.6,3.6,0,0,0-2.3-3.3c-1.4-.6-2.2-0.7-2.5-0.4s-0.7-.4-1.2-2.1,1.6-1.8,3.1-3.7,2.3-3.6,2.3-5a2.8,2.8,0,0,0-1.2-2.5,2.2,2.2,0,0,1-1.2-1.7c0,0.3.2-.1,0.6-1l1.7-3.5a35.8,35.8,0,0,0,1.9-4.6,31.4,31.4,0,0,1,1.7-4.1l1.7,1a2.7,2.7,0,0,0,1.7.6l1.2-1.2,1.2-.8a1.7,1.7,0,0,1,1.2-.4,1.2,1.2,0,0,1-.4-0.8,10.5,10.5,0,0,1,2.5-2.5l2.7-1.9a5.3,5.3,0,0,1,3.1-1,7.7,7.7,0,0,0-2.7-5.8c-1.8-1.7-3.5-2.5-5.2-2.5a3.7,3.7,0,0,1-3.3,2.1l-4.1-.2c-1.4-.1-2.1-0.5-2.1-1a2.3,2.3,0,0,1,1.4-2.3l3.3-1.2a16.4,16.4,0,0,0,3.5-1.7,3.8,3.8,0,0,0,1.7-3.5,12.8,12.8,0,0,0-1.9-6.2q-1.9-3.3-3.9-3.3a12.5,12.5,0,0,1,.2-2.1,13.2,13.2,0,0,0,.2-2.1,4.2,4.2,0,0,0-2.1-3.5,7.2,7.2,0,0,0-4.1-1.4c-1.7,0-2.5,1.4-2.5,4.1s0.5,4.8,1.4,5.4a2.4,2.4,0,0,1,1.4,2.1,12.7,12.7,0,0,1-1.7,7,16.6,16.6,0,0,1-3.5,3.9l-3.3,2.7a4.6,4.6,0,0,0-1.4,3.7,4.3,4.3,0,0,0,2.9,4.1,4.5,4.5,0,0,1,2.9,4.6,9.1,9.1,0,0,1-5.4-1.4,7.2,7.2,0,0,0-4.1-1.4c-0.8,0-1.6.7-2.3,2.1a9.2,9.2,0,0,0-1,4.1q0.8,0,1.7,2.7a16.2,16.2,0,0,1,.8,3.5,0.7,0.7,0,0,1,.8.8l-0.4.4c0,0.8.7,1.1,2.1,0.8s2.1,0.6,2.1,2.5-0.1,3.5-.4,3.9a7.8,7.8,0,0,0-.8,1.9c0,1.4.3,2.3,1,2.7a5.4,5.4,0,0,1,1.9,2.3l-3.1.4c-0.7,0-1,.8-1,2.5v6.6a25,25,0,0,0-2.7,3.1,18.3,18.3,0,0,1-1.9,2.3c0,0.3-.5.6-1.4,0.8l-3.3.8a9.1,9.1,0,0,0-3.3,1.4,3.2,3.2,0,0,0-1.4,2.7c-0.8,0-1.2-.3-1.2-0.8a0.7,0.7,0,0,0-.8-0.8,2.8,2.8,0,0,0-2.1.8,0.7,0.7,0,0,0-.8-0.8,9.5,9.5,0,0,0-3.5,1l-3.5,1.4a6.9,6.9,0,0,0-2.7-2.1l-5-2.7a18.7,18.7,0,0,1-5-3.9,8.3,8.3,0,0,1-2.3-5.8,5.3,5.3,0,0,0-2.5-1.2,2,2,0,0,1-1.7-2.1,1.3,1.3,0,0,1,1.2-1.4,1.3,1.3,0,0,0,1.2-1.4v0.8a25.3,25.3,0,0,0-1-3.5q-1-3.1-6.4-3.1a1.7,1.7,0,0,1-1.2.4l-0.4-.4c0-.3.1-0.4,0.2-0.4s0.2-.1.2-0.4-1.4.2-1,.6,0.1,0.6-1,.6a1.7,1.7,0,0,1-.4-1.2q-3.7,0-5,4.3a61.8,61.8,0,0,0-1.9,9.3,87.8,87.8,0,0,1-1.7,9.3q-1,4.3-3.5,4.3a21.5,21.5,0,0,1,1.2-4.6,23.8,23.8,0,0,0,1.2-4.1,5.8,5.8,0,0,1-2.5.4q-2.1,0-3.1-3.1l-2.3-6.6q-1.2-3.5-2.5-6.6t-3.7-3.1a28.5,28.5,0,0,1-3.1,4.6,19.6,19.6,0,0,1-3.5,3.1,8.4,8.4,0,0,1-5,1.4q-7,0-9.5,2.1a13.7,13.7,0,0,0-3.7,4.8l-2.3,4.8c-0.7,1.4-2.3,2.1-4.8,2.1s-5.5.5-6.4,1.4a8.4,8.4,0,0,0-2.1,3.3c-0.4,1.2-.8,2.4-1,3.5s-1.4,1.8-3.3,2.1a15.7,15.7,0,0,1-1.7-3.1,19.9,19.9,0,0,1-1.7-5.6h-5a4,4,0,0,1-1.4,1l-1.4.6a6.2,6.2,0,0,0,.8,2.5,1.2,1.2,0,0,0-1.2,1.4,10.6,10.6,0,0,1-.4,2.9,24.3,24.3,0,0,1-1,2.9c-0.4,1-1.4,1.4-3.1,1.4a1.9,1.9,0,0,1-2.1-1.4,25.1,25.1,0,0,0-1-2.9,11.5,11.5,0,0,0-1.9-2.9c-0.8-1-2.2-1.4-4.1-1.4a18.3,18.3,0,0,0-3.9.4,20.1,20.1,0,0,1-4.3.4l-2.5,4.6a2.7,2.7,0,0,1-2.5,1.7q-1.2,0-1.2.6c0,0.4-.1.6-0.4,0.6a2.2,2.2,0,0,1-1.7-1.2l-1.2-1.7c-1.1,0-1.7-.3-1.7-0.8a7,7,0,0,0-.4-3.1,2.4,2.4,0,0,0-.8-0.8l-0.8-.4a1,1,0,0,1-.4-1,4.5,4.5,0,0,0-2.3,2.9c-0.4,1.4-.8,2.9-1.2,4.6a26.9,26.9,0,0,1-1.4,4.3c-0.6,1.2-1.2,1.9-2.1,1.9s-1.6-.7-2.3-2.1a8,8,0,0,1-1-2.9,9.2,9.2,0,0,1,1-4.1,9.2,9.2,0,0,0,1-4.1q0-4.1-5.2-5.6a33.1,33.1,0,0,0-8.5-1.4,16.7,16.7,0,0,1-2.1,2.5,6.3,6.3,0,0,1-4.6,2.1q-4.1,0-4.1-3.7a3.2,3.2,0,0,1,1-2.3,3.2,3.2,0,0,0,1-2.3c0-1.9-.5-3.1-1.4-3.5a6.9,6.9,0,0,0-2.7-.6,3.4,3.4,0,0,0-2.5,1.7q-1.2,1.7-2.7,3.9a23.2,23.2,0,0,1-3.1,3.9,5.2,5.2,0,0,1-3.7,1.7,1.3,1.3,0,0,1-1.4-.8,2.2,2.2,0,0,1,0-3.7,7.3,7.3,0,0,1,.6-2.1,8.1,8.1,0,0,1,3.5-3.7,5.4,5.4,0,0,0,2.7-5v0.4q-0.4,0-1.9-2.5l-3.3-5.6a61.7,61.7,0,0,0-3.9-5.8c-1.4-1.8-2.5-2.7-3.3-2.7a9.4,9.4,0,0,0-6,2.7,15.4,15.4,0,0,1-6.8,3.5l-1.4-2.7a9.9,9.9,0,0,1-1-3.1l1.7-1.2a4.1,4.1,0,0,1,3.5-2.5q2.7-.4,2.7-3.7a11.2,11.2,0,0,0-.6-3.5,10.2,10.2,0,0,1-.6-3.1v-4.1a15.1,15.1,0,0,0-.4-3.1q-0.4-1.9-3.7-1.9l-3.7,1.2c-1.7,0-2.6-.3-2.9-0.8a7.2,7.2,0,0,1-.4-2.9q0-2.1,2.5-2.9t2.5-5q0-4.6-2.1-5.8a8.7,8.7,0,0,0-4.6-1.2v3.9a4.9,4.9,0,0,1-1.7,3.5v-3.7a10.3,10.3,0,0,1,.8-3.7,2.4,2.4,0,0,1-1.7.4c-2.8,0-4.1-1.1-4.1-3.3s1.6-2.5,4.8-3.3,5.2-2.5,6-5c-0.8,0-1.5-1-2.1-2.9l-1.2-4.1a33.9,33.9,0,0,1,2.9-5.4,24.4,24.4,0,0,1,1.9-3.7,5.5,5.5,0,0,0,1-2.5,9.8,9.8,0,0,0-.2-1.9,11.3,11.3,0,0,1-.2-2.3v-6.2a3.7,3.7,0,0,0-1.4-2.9,18.8,18.8,0,0,0-2.9-2.1l-2.9-1.7a2.7,2.7,0,0,1-1.4-2.5q0-.8,2.5-1.9c1.7-.7,2.3-1,2.1-1s0.4,0.1.4,0.2,0.3,0.2.8,0.2a10.2,10.2,0,0,0,5.8-1.7c1.7-1.1,2.5-2.9,2.5-5.4a4.2,4.2,0,0,0-1-3.1,6.4,6.4,0,0,1-1.4-3.5,1.6,1.6,0,0,1,1-1.7,5.5,5.5,0,0,0,1.9-1.2,1.9,1.9,0,0,0-.2-0.8,1.8,1.8,0,0,1-.2-0.8c0-.5.4-0.8,1.2-0.8a6.6,6.6,0,0,1-.8-2.9l2.1-3.3c0-1.7.3-2.5,1-2.5s1-.1,1-0.4l-0.4-.4a53.3,53.3,0,0,0,9.5-2.5,31.3,31.3,0,0,0,6.4-3.3,6.2,6.2,0,0,0,3.1-5.4,7.2,7.2,0,0,0-1.9-5,6.7,6.7,0,0,1-1.9-4.6q0-2.1,1.2-2.5a10.9,10.9,0,0,1,3.3-.4c1.1,0,1.7.4,1.7,1.2a0.8,0.8,0,0,1-.2.6,0.8,0.8,0,0,0-.2.6,2.4,2.4,0,0,0,1.2,2.1c0.8,0.6,2.8.8,5.8,0.8a13.4,13.4,0,0,1,1.7-2.1,4,4,0,0,0,.8-2.9,9.8,9.8,0,0,0-.2-1.9,9.2,9.2,0,0,1-.2-1.9,2.3,2.3,0,0,1,1.2-2.3,4.9,4.9,0,0,1,2.1-.6,5.2,5.2,0,0,1,3.5,1.2,4.7,4.7,0,0,0,3.1,1.2,4.2,4.2,0,0,0,4.3-3.1,19.1,19.1,0,0,0,1-6,4.7,4.7,0,0,0-.2-1.4,4.5,4.5,0,0,1-.2-1.4v-1.2a6.1,6.1,0,0,1,1.2-2.1c0.8-1.1,1.8-2.3,2.9-3.5a26.3,26.3,0,0,0,2.9-3.9,7.4,7.4,0,0,0,1.2-3.7,14.7,14.7,0,0,1,6.2,2.5,18.2,18.2,0,0,1,3.5,3.7,19.1,19.1,0,0,0,3.1,3.5,6.7,6.7,0,0,0,4.6,1.4c0-.8.1-1.2,0.4-1.2a1.7,1.7,0,0,1,1.2.4,5.9,5.9,0,0,0,2.1-1.4,27.4,27.4,0,0,0,3.3-3.5,25.8,25.8,0,0,0,2.9-4.6,10.3,10.3,0,0,0,1.2-4.6,6.2,6.2,0,0,0-.4-2.3,6,6,0,0,1-.4-2.3l0.8-.8c0.8-.8,1.1-1.2.8-1.2a4.9,4.9,0,0,0-.6-2.1,4.9,4.9,0,0,1-.6-2.1,65.2,65.2,0,0,1,.8-9.9q0.8-5.4,1.2-9.9h2.5a7.1,7.1,0,0,0-.4,2.9c0,1.4-.4,2.1-1.2,2.1v10.4a44.3,44.3,0,0,0-1.2,10.8,34.5,34.5,0,0,0,1.4,10.1,27.4,27.4,0,0,1,1.4,6.8h1.2c0.8,0,1.2.3,1.2,0.8l6.6-2.5,6.6-2.5a7,7,0,0,1,2.7-3.3,21.5,21.5,0,0,1,3.9-2.1c0,0.3.1,1,.2,2.3a11.4,11.4,0,0,0,1.4,4.1,13,13,0,0,0,3.7,4.1q2.5,1.9,7.5,1.9a26.2,26.2,0,0,0,4.3-.6c2.1-.4,3.1-0.9,3.1-1.4a17.2,17.2,0,0,1,4.3,2.1,33.9,33.9,0,0,1,5,3.7,37.4,37.4,0,0,1,3.9,4.1,21.8,21.8,0,0,1,2.1,2.9,3.8,3.8,0,0,0,2.9,2.1l4.1,1a11.9,11.9,0,0,1,3.7,1.9q1.7,1.2,2.1,4.6a5,5,0,0,0,1.7,3.9,15.4,15.4,0,0,0,3.3,2.3l3.1,1.7a2.7,2.7,0,0,1,1.4,2.5,13.8,13.8,0,0,1-.4,3.3,13.6,13.6,0,0,0-.4,3.3,3.1,3.1,0,0,0,3.3,3.5,15,15,0,0,1,5.8,1.4,5.2,5.2,0,0,1,.8,2.1,27.6,27.6,0,0,1,.6,3.7,25.4,25.4,0,0,0,.6,3.7c0.3,1.1.7,1.7,1.2,1.7l0.8,0.8c0.6,0,1.2.6,1.9,1.7s2.1,1.7,4.3,1.7,1.2-.3,1.2-0.8l3.3,1.7a8.1,8.1,0,0,0,3.7.8q2.1,0,3.3-2.5c0.8-1.7,1.9-2.5,3.3-2.5a7.4,7.4,0,0,1,2.1.8,4.6,4.6,0,0,1-.2,1.4,4.5,4.5,0,0,0-.2,1.4c0,1.4.9,2.6,2.7,3.5a10.3,10.3,0,0,0,4.8,1.4l4.3-4.3q3.5-3.5,4.3-3.5a10.8,10.8,0,0,1-1.7,6.4,23.5,23.5,0,0,0-2.9,5.6q0.8,0,1.9,1.9l1.4,2.7a8.8,8.8,0,0,0,3.1-.4,3,3,0,0,0,1.4-1l1-1.2a2.5,2.5,0,0,1,1.9-.6,2.2,2.2,0,0,1,2.5,2.5,3.2,3.2,0,0,1-1.2,2.9,3.2,3.2,0,0,0-1.2,2.9,5.9,5.9,0,0,0,2.1,4.1c1.4,1.4,2.6,2.1,3.7,2.1q6.6,0,9.5-2.7t5.4-2.7c0.8,0,1.2.3,1.2,0.8a13.2,13.2,0,0,1,3.7-.8,2.6,2.6,0,0,1-1.9,2.7l-4.3,1.7a19,19,0,0,0-4.3,2.5c-1.2,1-1.9,2.7-1.9,5.2,1.4,0,2.1.3,2.1,0.8q0,3.7-1.4,5.2c-1,1-1.4,2.7-1.4,5.2a14.5,14.5,0,0,0,.6,3.1q0.6,2.3,4.3,2.3l3.1-.6,4.3-1c1.4,0,1.9-.4,1.7-1.2s0-1.2.8-1.2-0.1-1.6-.2-3.1-0.6-2.3-1.4-2.3a34.4,34.4,0,0,1,1.9-4.6,29.6,29.6,0,0,0,1.9-5,2.4,2.4,0,0,0-2.3-2.5q-2.3-.4-3.1-3.3a18.9,18.9,0,0,1,3.3,1.7,5.8,5.8,0,0,0,3.3.8c0-.6.6-0.8,1.7-0.8h2.1c0-1.1.4-1.7,1.2-1.7l3.1-.2a10.2,10.2,0,0,0,3.5-1q1.7-.8,2.5-4.1c0.3,0-.2-0.6-1.4-1.9s-2.8-5.4-4.8-12.6a4.8,4.8,0,0,1,3.3,1.7,4.6,4.6,0,0,1,1.7,2.9,1.2,1.2,0,0,1-.4.8q0,2.1,2.9,4.1a8.2,8.2,0,0,0,2.9,2.5l1.4-.2,2.5-1,5.2-2.7q3.3-1.9,9.1-5.6v-4.6c0.8,0,1.2.3,1.2,0.8a2,2,0,0,1-.4,1,2,2,0,0,0-.4,1,5.2,5.2,0,0,0,1.9,3.5,6.4,6.4,0,0,0,4.8,1.9q3.3,0,4.6-4.3a28.3,28.3,0,0,0,1.2-7.7v-4.6c0.8,0,1.3.8,1.4,2.5l0.4,5.2a21.2,21.2,0,0,0,1,5.2,3.2,3.2,0,0,0,3.3,2.5,12.7,12.7,0,0,0,5-1.7q0,3.3,3.5,6c2.3,1.8,3.7,2.7,3.9,2.7s3.1-1,4.3-3.1,2.8-3.1,4.8-3.1a7,7,0,0,1,.4,2.1,6.7,6.7,0,0,1-1,2.7,33.8,33.8,0,0,0-1.9,3.9c0,1.7.7,2.6,2.1,2.9a2.3,2.3,0,0,1,2.1,2.5,2.5,2.5,0,0,0,1.4-.4,2.6,2.6,0,0,1,1.4-.4c-0.3,0,.9.6,3.5,1.7a17.2,17.2,0,0,0,5.6,1.7c1.7,0,2.8-.3,3.3-0.8a9.6,9.6,0,0,0,1.4-1.9l1.2-1.9a2.2,2.2,0,0,1,1.9-.8h2.7c0.1,0,.3.7,0.6,2.1q-5,1.7-7.9,2.9a26,26,0,0,0-5.4,3.1,5.7,5.7,0,0,0-2.5,4.8q0,1.2,4.6,5a36,36,0,0,0,4.6,3.7A13.7,13.7,0,0,1,3364,7765.9Zm-362.8,92.8a3.3,3.3,0,0,1,3.3,2.5H3002a2.7,2.7,0,0,1-2.9-2.5h2.1Zm44.7-186a3.9,3.9,0,0,1,1.2,1.7q0,0.8-2.1,1.7A13.4,13.4,0,0,1,3045.9,7672.7Zm11.2,214.6a13.1,13.1,0,0,1,1.2-2.9c0.8-1.7,1.5-2.5,2.1-2.5l0.4,0.8a5.3,5.3,0,0,0-1.4,3.3l-0.4,3.9a7,7,0,0,1-1,3.1,4.7,4.7,0,0,1-3.3,1.7,15.5,15.5,0,0,1,1.7-4.1A5.9,5.9,0,0,0,3057.1,7887.3Zm91.1-298.2c0,2.2-.7,3.3-2.1,3.3s-3.3-1-3.3-2.9,1.1-2.5,3.3-2.5Q3147,7587,3148.2,7589.1Zm11.2,85.3a2.4,2.4,0,0,1-.6,2.1l-1.4,1.2a3.4,3.4,0,0,1,.4-1.9l0.8-1.4h0.8Zm2.5-5.8a10,10,0,0,1,1.7,2.5,4.8,4.8,0,0,0-1.9,1.2l-2.3,2.1a4.2,4.2,0,0,1,.8-2.7A12.6,12.6,0,0,0,3161.9,7668.6Zm14.5,181.4c0.8,0,1.2-1.5,1.2-4.6q0-7-1-8.3t-3.9-1.2a32.3,32.3,0,0,0-4.8.4l-3.5.4c0.3,0,.8.8,1.7,2.3l2.7,4.8a54.7,54.7,0,0,0,3.1,4.8c1.1,1.5,2.1,2.3,2.9,2.3q0,3.7.4,3.7C3175.4,7854.6,3175.8,7853,3176.4,7850Zm9.5,12a0.7,0.7,0,0,0,.8.8h1.2q-0.4,3.7-5.4,3.7a9,9,0,0,1-1.7-3.7A11.5,11.5,0,0,1,3185.9,7862Zm2.1-223.7a7.9,7.9,0,0,1-1.7,3.9,18.1,18.1,0,0,1-2.9,2.7,6.3,6.3,0,0,1,1.4-3.9A9.3,9.3,0,0,1,3188,7638.4Zm1.7,226.1c0,0.8-.3,1.2-0.8,1.2l-0.4-.4C3188.4,7864.8,3188.8,7864.5,3189.6,7864.5Zm0.8-9.5a1.1,1.1,0,0,1,.6-0.8l1-.8,2.5,0.8a5.9,5.9,0,0,1-2.1,1.7,2.3,2.3,0,0,1-1.2-.8h-0.8Zm0.8,11.6c1.4,0,2.1.4,2.3,1.2a3.7,3.7,0,0,0,1,2.1c-0.8,0-1.2.1-1.2,0.4l0.4,0.4Q3191.7,7869.9,3191.3,7866.6Zm53.4,56.7c0,0.6.8,1.1,2.5,1.7,0,0.6-.1.8-0.4,0.8l-0.4-.4v0.8l-1.7-.2-1.7-.2c0,0.5-.1.8-0.4,0.8s-0.8-.2-0.8-0.6-0.3-.6-0.8-0.6l-2.3.2-1.9.2a1.5,1.5,0,0,1-1.7-1.7,48.8,48.8,0,0,0-6.4-.8q-4.8-.4-4.8-1.7h-6.2c0-.8-0.2-1.2-0.6-1s-0.6-.1-0.6-0.6a3.9,3.9,0,0,1,1.2-1.7q3.7,0,11.8,2.1A116.5,116.5,0,0,0,3244.7,7923.3Zm-7.9-38.1-1.7.2-1.7.2a8.1,8.1,0,0,1-4.3-1.4,5.2,5.2,0,0,1-2.3-4.8q0-5.4,5.8-5.4a6.3,6.3,0,0,1,4.1,1.9,5.7,5.7,0,0,1,2.1,4.3,3.3,3.3,0,0,1-.6,2.1A13.8,13.8,0,0,0,3236.9,7885.2Zm-2.5-171.9a6.1,6.1,0,0,0-2.1,2.7c-0.6,1.2-1.2,1.9-2.1,1.9a8.7,8.7,0,0,1,2.9-6.2,13.4,13.4,0,0,0,3.7-6.2h0.8c-0.8,2.8-1.6,4.4-2.3,5A3.5,3.5,0,0,0,3234.4,7713.3Zm5-9.5a1.5,1.5,0,0,1-1.7,1.7,2.8,2.8,0,0,1,.2-1.2,2.9,2.9,0,0,0,.2-1.2,1.2,1.2,0,0,0,.8.4Zm1.7-2.5q0,1.7-2.1,1.7a6.4,6.4,0,0,0,.8-2.5,1.2,1.2,0,0,0,.8.4Zm4.6-5.4a4,4,0,0,0-2.1,1.9l-1.2,2.7h-1.7a35.7,35.7,0,0,1,4.3-10.8q3.5-6.2,7.7-8.3a7.5,7.5,0,0,1-1,4.3,15.1,15.1,0,0,1-2.5,2.7,12.4,12.4,0,0,0-2.5,2.9A8.6,8.6,0,0,0,3245.6,7695.9Zm8.7,57.2a3.9,3.9,0,0,1-3.3-1.7l2.1,0.2A1.3,1.3,0,0,1,3254.3,7753.1Zm3.7,24a25,25,0,0,0,.8-4.1l-4.8.4q-3.1.4-3.1,2.5c0,1.4,1,2.1,2.9,2.1A9.2,9.2,0,0,0,3258,7777.1Zm-1.2-23.2a0.7,0.7,0,0,1,.8.8c-0.6-.3-0.8-0.3-0.8-0.2s-0.3-.1-0.8-0.6h0.8Zm3.7,2.5a4.3,4.3,0,0,1-2.9-1.7C3259.5,7754.7,3260.5,7755.3,3260.5,7756.4Zm35.2-70.8a4.9,4.9,0,0,1,1.7,4.1,8.2,8.2,0,0,1-.8,3.7,5.6,5.6,0,0,1-1.7-4.1A13,13,0,0,1,3295.7,7685.6Zm2.9,15.7c-1.4,0-2.1-1.2-2.1-3.7a3.4,3.4,0,0,1,.8-2.5,11.2,11.2,0,0,0,.4,3.1Zm1.7,19.9a3.4,3.4,0,0,1,1.7,2.5,6.3,6.3,0,0,1-.8,2.5,5,5,0,0,1-1.2-2.5A7.8,7.8,0,0,1,3300.2,7721.2Zm74.1,144.1a6.8,6.8,0,0,1,3.7-.8,5,5,0,0,1-1.2,2.5c-0.8,1.1-1.5,1.7-2.1,1.7s-1.7-.4-1.7-1.2A3.4,3.4,0,0,1,3374.4,7865.3Z" transform="translate(-2872.4 -7493)"/>
    <path class="cls-1" d="M3238.9,7593.2a2.7,2.7,0,0,1,2.5-2.9,36.2,36.2,0,0,1,5.8-.4,3.4,3.4,0,0,1,.8,2.5c0,0.8-.6,1.3-1.9,1.4l-3.1.2C3240.9,7594,3239.5,7593.8,3238.9,7593.2Zm8.3-30.2,0.8-.4,1.7,1.7,2.9,2.5a70.1,70.1,0,0,1,5.4,5,3.6,3.6,0,0,1-.4,1.7,1.3,1.3,0,0,1-1.2.8q-3.3,0-5.6-4.1l-3.5-6.6V7563Zm52.2,70.8a1.5,1.5,0,0,1,1.7,1.7,3,3,0,0,1-1.2,2.3,3.6,3.6,0,0,1-2.1,1,1.5,1.5,0,0,1-1.7-1.7Q3296.1,7635.5,3299.4,7633.8Zm34.8,306.5q2.5,0,2.5,1.7c0,1.4-.3,2.1-0.8,2.3l-1.7.2h-2.9c-1.4,0-2.1-.1-2.1-0.4a3.2,3.2,0,0,1,1.4-2.7A5.9,5.9,0,0,1,3334.2,7940.3Zm28.2-19.9q8.3,0,12.8,5a17.7,17.7,0,0,1,4.6,12.4,13.8,13.8,0,0,1-4.8,10.6,15.8,15.8,0,0,1-11,4.3q-8.3,0-12-4.3t-3.7-11.4a16,16,0,0,1,3.9-10.8A17.5,17.5,0,0,1,3362.4,7920.4Zm101.9-223.7q-5.4,2.1-7.2,5.8t-3.3,7.5a20.1,20.1,0,0,1-3.9,6.4q-2.5,2.7-8.7,2.7v2.7c0,1-.3,1.4-0.8,1.4s-1.5-.6-2.1-1.9l-1.9-4.3a13.4,13.4,0,0,0-2.9-4.3,6.5,6.5,0,0,0-4.8-1.9q-5.8,0-7.5,3.1a16.2,16.2,0,0,0-1.9,6.8c-0.1,2.5-.2,4.8-0.2,6.8s-0.7,3.1-2.1,3.1l-0.8-.8a19.5,19.5,0,0,1,.8-5.4,15.3,15.3,0,0,0,.2-9.3q-0.6-2.7-1.9-2.7a12.4,12.4,0,0,0-2.9.4,12.1,12.1,0,0,1-2.9.4,7,7,0,0,1-2.9-.4,4.7,4.7,0,0,0-2.1-.4,2.6,2.6,0,0,0-2.7,1.7,25.7,25.7,0,0,0-1,3.5,11.9,11.9,0,0,1-1.2,3.3c-0.6,1-1.7,1.4-3.3,1.4a0.4,0.4,0,0,1-.4-0.4,1.7,1.7,0,0,1-.4-1.2,7,7,0,0,1,1.7-3.5,8,8,0,0,0,1.7-4.8q0-2.5-3.7-4.6a14.6,14.6,0,0,0-7-2.1,23.7,23.7,0,0,1-4.6,6,51.4,51.4,0,0,1-6.2,4.8,12.1,12.1,0,0,1,4.6-7.9q3.7-2.9,3.7-5.4a7.2,7.2,0,0,0-1.7-4.6,5.1,5.1,0,0,0-4.1-2.1,8,8,0,0,0-4.8,1.7,7,7,0,0,1-3.5,1.7q0-3.3,1.7-4.3a3.4,3.4,0,0,0,1.7-3.1c0-1.4-.8-3-2.3-4.8a20.6,20.6,0,0,0-3.5-3.5,43.5,43.5,0,0,0-6.4.4,32,32,0,0,0-5.2,1.2,6.5,6.5,0,0,0-1.7-1.2,1.3,1.3,0,0,1-.8-1.2,2.3,2.3,0,0,1,1.7-2.3l3.7-1.2a11.7,11.7,0,0,0,3.7-1.9c1.1-.8,1.7-2.3,1.7-4.6s-0.6-5.9-1.7-7a7.2,7.2,0,0,0-3.7-2.1l-3.7-.6c-1.1-.1-1.7-1-1.7-2.7s0.4-2.3,1.2-2.7l2.5-1.2a12.9,12.9,0,0,0,2.5-1.7q1.2-1,1.2-4.3c0-1.7-1.1-2.9-3.3-3.7s-3.3-2.1-3.3-3.7a1.5,1.5,0,0,1,1.7-1.7,2.6,2.6,0,0,1,1.4.4,3.4,3.4,0,0,0,1.9.4q4.1,0,4.1-5.8,0-2.1-2.9-1.9c-1.9.1-2.9-.9-2.9-3.1,0-.6.6-1.4,1.7-2.5a4.7,4.7,0,0,1,2.1.4,4.6,4.6,0,0,0,2.1.4q6.6,0,6.6-8.3c0-1.7-.6-2.7-1.7-3.1a2.6,2.6,0,0,1-1.7-2.7,2.8,2.8,0,0,1,.6-1.7,2.2,2.2,0,0,1,1.9-.8,5.2,5.2,0,0,1,2.3.8,6.9,6.9,0,0,0,3.5.8q3.3,0,5.8-5.8a4.5,4.5,0,0,0-.8-2.5,4.4,4.4,0,0,1-.8-2.5,2.2,2.2,0,0,1,1-1.7,3.6,3.6,0,0,1,2.3-.8,12.7,12.7,0,0,0,5,1.7,14.5,14.5,0,0,0,4.1-1.7q3.3-1.7,3.3-2.5a10.9,10.9,0,0,0-.4-3.3,10.7,10.7,0,0,1-.4-3.3,21,21,0,0,1,.2-2.5c0.1-1.1.9-1.7,2.3-1.7a3,3,0,0,1,2.9,2.3,11.9,11.9,0,0,0,2.9,4.3,36.2,36.2,0,0,1,9.3-.4,15.4,15.4,0,0,0,8.9-2.1c0.8-.5,1.1-1.9.8-3.9s0.3-3.5,1.7-4.3a4.8,4.8,0,0,1,2.7,1,3.6,3.6,0,0,1,1.4,3.1q0,2.9,1.2,3.7a9,9,0,0,0,2.9,1.2l3.7,0.6a6.1,6.1,0,0,1,3.7,1.9,19.9,19.9,0,0,0,2.9-2.5,5.2,5.2,0,0,1,3.7-1.7,3.8,3.8,0,0,1,1.7.4,1.3,1.3,0,0,1,.8,1.2,5.1,5.1,0,0,1-.4,1.9,6,6,0,0,0-.4,2.3,2.3,2.3,0,0,0,2.1,2.5,4.3,4.3,0,0,1,2.9,1.7l9.1-2.5a8,8,0,0,1,1.2,4.1,2.9,2.9,0,0,1-.2,1.2,1.8,1.8,0,0,0-.2.8,7.5,7.5,0,0,0,.6,3.3q0.6,1.2,3.5,1.2a7.8,7.8,0,0,0,2.5-.4,7.9,7.9,0,0,1,2.5-.4q3.3,0,3.3,2.5a2.8,2.8,0,0,1-.8,2.1,2.8,2.8,0,0,0-.8,2.1q0,5,3.9,9.9t5.2,5a5.6,5.6,0,0,1,4.1-1.7l1.7,0.2a1.3,1.3,0,0,1,.8,1.4,1.8,1.8,0,0,1-1.2,1.4l-2.9,1.4a11.1,11.1,0,0,0-2.9,2.1,4.5,4.5,0,0,0-1.2,3.3c0,1.7,1,3,3.1,4.1s4.3,2.5,6.8,4.1a5.4,5.4,0,0,1-1.9,2.7l-2.1,1.2a5.9,5.9,0,0,0-1.9,1.9,7.7,7.7,0,0,0-.8,4.1q0,3.3,3.5,3.1c2.3-.1,3.9.5,4.8,1.9s-0.6.6-1.9,1a34.2,34.2,0,0,0-4.3,1.9,13.3,13.3,0,0,0-4.3,3.5,8,8,0,0,0-1.9,5.2c0,1.4.8,2.5,2.5,3.3a47.5,47.5,0,0,0,5.4,2.3,49.4,49.4,0,0,1,5.4,2.3c1.7,0.8,2.5,1.8,2.5,2.9s-0.6.8-1.7,0.8-3.9-1.1-6.8-3.3-5.6-3.3-8.1-3.3c-0.3,0-.9.6-1.9,1.7l-3.3,3.9a31.2,31.2,0,0,0-3.3,5,9.9,9.9,0,0,0-1.4,4.3,6.7,6.7,0,0,0,2.9,4.1,3.8,3.8,0,0,1,2.1,3.3,18.9,18.9,0,0,1-3.7-2.9,22.5,22.5,0,0,1-3.1-1.9,4.5,4.5,0,0,0-2.3-1c-0.6,0-.8.1-0.8,0.4S3464.8,7696.8,3464.3,7696.8Zm-75.4,193.8c1.4,0,2.4.9,3.1,2.7a13.4,13.4,0,0,1,1,3.5v0.4a5.7,5.7,0,0,1-3.1-3.3A11.3,11.3,0,0,1,3388.9,7890.6Zm12.4-318.9a3.8,3.8,0,0,0-2.1-1c-0.8-.1-1.2-0.9-1.2-2.3a3.1,3.1,0,0,1,1.7-1.4l1.7-.2a8.9,8.9,0,0,1,3.5.6,2,2,0,0,1,1.4,1.9,3,3,0,0,1-1.2,2.3,3.6,3.6,0,0,1-2.1,1c-0.6,0-.8-0.1-0.8-0.4S3401.8,7571.7,3401.3,7571.7ZM3485,7792q-2.5,5-9.1,5-2.1,0-5-2.5a32.5,32.5,0,0,1-5.4-6,49.6,49.6,0,0,1-4.3-7.5,17.1,17.1,0,0,1-1.9-7.2,8,8,0,0,1,1.7-4.8,20.5,20.5,0,0,0,2.5-4.3q-2.5,0-5-5t-2.5-7.5a8,8,0,0,1,.6-2.5,2.6,2.6,0,0,1,2.7-1.7q2.5,0,4.1,5.2a32.2,32.2,0,0,1,1.7,9.7,4.6,4.6,0,0,0,2.1-.4,4.7,4.7,0,0,1,2.1-.4,11.3,11.3,0,0,1,7.7,2.7,19.1,19.1,0,0,1,5,7,34.5,34.5,0,0,1,2.5,9.5A88.7,88.7,0,0,1,3485,7792Zm-6.6-88.6q3.7,0,5,3.1c0.8,2.1,1.5,3.1,2.1,3.1l0.4-.4a1.5,1.5,0,0,1-1.7,1.7q-0.8,0-5-2.9t-4.1-5.4l0.8,0.2,1.2,0.2Zm163.2,164c1.1,0.6,1.7,1.1,1.7,1.7s-0.9,2.3-2.7,2.7a19.8,19.8,0,0,1-3.9.6,9.2,9.2,0,0,1-4.1-.8l-1.2,1.9a2.5,2.5,0,0,0-.4,1.4,41.9,41.9,0,0,0,.8,9.3,23.4,23.4,0,0,0,2.1,5.8c0.8,1.5,1.5,2.7,2.1,3.5a5.1,5.1,0,0,1,.8,2.9c0,0.3-.8.9-2.3,1.9l-5.2,3.5a54.6,54.6,0,0,0-5.2,4.1q-2.3,2.1-2.3,3.7,0.8,5.8,4.3,8.1t7.2,4.3a2.3,2.3,0,0,0-.8,1.2c0,0.3-.3.4-0.8,0.4a3.6,3.6,0,0,1-3.5-2.3q-1-2.3-4.8-3.5l-13.3,11.6a9.2,9.2,0,0,1,.8,4.1q0,2.9-4.1,5.8a2.4,2.4,0,0,1-2.5-2.3,6.5,6.5,0,0,0-1.7-3.5,11.1,11.1,0,0,0-8.1,3.5q-3.5,3.5-3.5,7.2a9.2,9.2,0,0,0,.8,4.1,14.7,14.7,0,0,1-4.1,1.7q-3.3,0-3.5-2.5t-2.3-2.5q-4.6,0-6.4,1.7a18.2,18.2,0,0,0-3.1,3.5l-2.1,3.3a2.7,2.7,0,0,1-2.5,1.4,1.9,1.9,0,0,1-2.1-1.2,15.9,15.9,0,0,1-.6-2.5,6.5,6.5,0,0,0-1-2.5,3.2,3.2,0,0,0-2.9-1.2q-2.1,0-8.3,1.9t-8.3,6.4a2.2,2.2,0,0,1-2.5-1.9l-0.8-3.9a10.9,10.9,0,0,0-1.7-3.9q-1.2-1.9-5-1.9a11.4,11.4,0,0,0-5,.8,12.9,12.9,0,0,1-3.9-1.7l-4.3-2.5a14.2,14.2,0,0,1-3.7,3.9,7.8,7.8,0,0,1-4.6,1.9,2.2,2.2,0,0,1-1.7-1,3.5,3.5,0,0,1-.8-2.3,6.1,6.1,0,0,1,1.7-3.3,6.7,6.7,0,0,0,1.7-4.1q0-2.1-2.5-6.4t-5.8-4.3a5.8,5.8,0,0,0-3.9,1.7,6.4,6.4,0,0,1-4.3,1.7,2.7,2.7,0,0,1-1.7-.6,2.2,2.2,0,0,1-.8-1.9q0-1.2,2.5-3.7a8.4,8.4,0,0,0,2.5-6.2q0-4.1-4.1-4.1a11.6,11.6,0,0,1-5,.8,2.2,2.2,0,0,1-1.9-.8,2.8,2.8,0,0,1-.6-1.7,5.4,5.4,0,0,1,2.5-4.3,6.5,6.5,0,0,0,2.5-5.6c0-2.5-1-3.7-2.9-3.7a11.9,11.9,0,0,1-6.2-2.1,5,5,0,0,1,1-3.3l2.3-2.5a21.7,21.7,0,0,0,2.3-2.7,6.7,6.7,0,0,0,1-3.9c0-.8-1.4-1.5-4.1-2.1s-4.1-1.5-4.1-2.9a2.8,2.8,0,0,1,1.2-2.5l3.1-2.1,3.7-2.7a8.1,8.1,0,0,0,2.7-4.3q0-2.1-2.5-1.9t-2.5-3.1c0-1.7.5-2.8,1.4-3.3a21.5,21.5,0,0,1,3.1-1.4l3.1-1q1.4-.4,1.4-2.5l-0.8-11.6a9.4,9.4,0,0,1,3.3-3.3,47.1,47.1,0,0,1,5-2.9l4.6-2.5q2.1-1.2,2.1-2.9t-3.7-4.8a7.5,7.5,0,0,1-3.7-6.8,10.9,10.9,0,0,1,5.2,2.7l3.9,3.9a53.7,53.7,0,0,0,7-2.9,21.1,21.1,0,0,0,4.8-3.3,6.1,6.1,0,0,0,2.3-4.6v-3.7q0-3.7,1.7-3.7c0.8,0,1.7,1,2.7,2.9s2.3,2.9,3.9,2.9a7.2,7.2,0,0,0,4.1-1.4,16.2,16.2,0,0,0,3.5-3.3,42.9,42.9,0,0,0,2.5-3.5c0.7-1.1,1.2-1.7,1.4-1.7,1.9,0,2.8,1,2.7,2.9s0.6,2.9,2.3,2.9q5.4,0,7.7-1a5.3,5.3,0,0,0,2.9-2.5,20.6,20.6,0,0,0,1-3.1,3.7,3.7,0,0,1,2.5-2.5,2.6,2.6,0,0,1,2.7,1.7,14.8,14.8,0,0,1,.8,3.5,8.4,8.4,0,0,0,1,3.3c0.6,1,1.8,1.4,3.7,1.4a4.3,4.3,0,0,0,3.5-1.9,16.3,16.3,0,0,0,2.3-3.9c1.9,0,3.1.3,3.5,1a10.5,10.5,0,0,1,1,2.5,23.2,23.2,0,0,0,1,2.9q0.6,1.5,3.5,1.9a4.8,4.8,0,0,0,3.5-1.4,21.7,21.7,0,0,0,2.7-3.3l2.3-3.5a2.9,2.9,0,0,1,2.3-1.7h0.4l0.4,0.8a14.9,14.9,0,0,1-1.7,7.5,10.5,10.5,0,0,0-1.7,5,4.8,4.8,0,0,0,2.7,4.1,9,9,0,0,0,3.9,1.7,3.2,3.2,0,0,0,2.9-1.2,2.4,2.4,0,0,1,2.1-1.2,4.9,4.9,0,0,1,2.1.6,2,2,0,0,1,1.2,1.9,10,10,0,0,1-.4,2.7,8.8,8.8,0,0,0-.4,2.3,9.9,9.9,0,0,0,3.3,5.4,8.8,8.8,0,0,0,5.8,2.1,4.4,4.4,0,0,0,2.5-.8,4.5,4.5,0,0,1,2.5-.8,1.5,1.5,0,0,1,1.7,1.7q0,3.3-2.5,4.3t-2.5,3.1c0.3,2.2,1.1,3.7,2.5,4.6a17.2,17.2,0,0,0,4.3,1.9l3.9,0.8a1.7,1.7,0,0,1,1.7,1.9c0,0.6-1,1.3-2.9,2.3l-5.4,2.7a52.8,52.8,0,0,0,3.3,8.9,6.9,6.9,0,0,0,6.6,4.3,3.7,3.7,0,0,0,1.7-.4,3.7,3.7,0,0,1,1.7-.4Zm-145.8-178.1a1.5,1.5,0,0,1,1.7-1.7,21.2,21.2,0,0,0,4.8,1.2q2.7,0.4,3.5,3.7,0,1.7-2.5,1.7a11,11,0,0,1-4.1-.8C3497.7,7692.9,3496.6,7691.5,3495.7,7689.3Zm12.4-167.3a11.5,11.5,0,0,1-8.3-6,22.5,22.5,0,0,1-2.5-10.6q0-4.6,3.9-8.5a13.7,13.7,0,0,1,10.1-3.9,16.8,16.8,0,0,1,11,3.9q4.8,3.9,4.8,8.5t-3.5,11.2q-3.5,6.2-9.7,6.2a12.8,12.8,0,0,1-3.5-.4Zm117.6,503.7,3.5,3.1a5.5,5.5,0,0,1,2.3,4.3q-0.8,0-4.1-2.1a6.8,6.8,0,0,1-3.3-6.2c0.6,0,.8.1,0.8,0.4S3625.2,8025.6,3625.8,8025.6Zm35.2-212.9,0.4,0.8q0,2.1-5.4,4.1t-7.9,3.3a26.4,26.4,0,0,1,5.8-4.3l6.6-3.9h0.4Zm64.2,21.5a35.7,35.7,0,0,1,7.5,2.1q2.9,1.2,5,6.2a11,11,0,0,1-7.5-2.5A24.9,24.9,0,0,1,3725.2,7834.3Z" transform="translate(-2872.4 -7493)"/>
  </g>
</svg>
