<svg id="Design_Layer" data-name="Design Layer" xmlns="http://www.w3.org/2000/svg" viewBox="0 0 1020.7 937">
  <defs>
    <style>
      .cls-1 {
        fill: #ffcd42;
      }
    </style>
  </defs>
  <title>background-splatter-yellow</title>
  <path class="cls-1" d="M2866.3,5238.6c-2.3,0-5.7-6.8-5.7-10.8a7.3,7.3,0,0,1,.6-3.4c9.7,1.7,9.1,6.8,9.1,13.1C2868.6,5238,2867.5,5238.6,2866.3,5238.6Zm1.7,390.2c2.3,0,2.9,1.7,2.9,3.4s0.6,7.4-3.4,7.4c-1.1,0-4-2.8-4-4a8.3,8.3,0,0,1,1.1-4C2865.2,5629.4,2866.3,5628.8,2868,5628.8Zm45,178.3a10.7,10.7,0,0,0,1.1,4.6c-4.6,0-9.7,12.5-21.1,12.5s-13.1-5.1-16.5-11.4a2.1,2.1,0,0,1-1.7.6s0-.6-1.1-0.6a28.7,28.7,0,0,1,1.1-6.8c-1.7,0-2.3-1.7-2.3-3.4,0-4,8.5-8,8.5-16,3.4,0,8.5-1.5,10.8-3.5h5.7c4,0,4,1.2,6.3,4.6,0.6,0,1.1-.5,1.7-0.5,3.4,0,8,8.6,8,14.3C2913.6,5803.6,2913,5805.4,2913,5807.1Zm-19.9-456.8a16.6,16.6,0,0,1-1.1-5.1c0-1.7,1.1-2.3,3.4-2.3,4,0,4.6,4,4.6,8.5Zm55.8,302.5c0,1.7-4.6,4.6-5.7,4.6-7.4,0-7.4-5.7-8.5-9.7,1.7-.6,4.6,0,4.6-2.3C2943.8,5646.4,2948.9,5647,2948.9,5652.7Zm36.5,256.3c0,1.1-.6,1.3-2.9,1.3s-3.4-.4-3.4-0.4h0.6c0-1-.6-0.8-1.1-0.8s0.6-2.4,1.1-3.5a2,2,0,0,1,1.1.5c0.6,0,1.1-.6,1.1-1.7C2985.4,5906.2,2985.4,5907.3,2985.4,5909Zm26.2-430.1c-1.1,5.7-.6,10.3-6.8,10.8,0-2.3-8-2.8-10.8-17.1,0-3.4,1.7-4,3.4-6.8,5.7,0,7.4,5.7,10.8,5.7C3008.1,5473.9,3009.3,5479,3011.6,5479Zm8,25.6c0,1.7-2.3,2.3-4,2.8,0-1.7-1.7-4-2.3-6.3C3014.4,5501.2,3019.5,5500.6,3019.5,5504.6Zm37.6,306.4c0,2.3,1.1,1.1,1.1,3.4,0,14.8-9.7,18.2-18.8,18.2-14.8,0-14.8-16.5-15.9-16.5,0-6.3,4-16.5,17.7-16.5,10.3,0,10.3,5.1,17.1,5.1C3058.3,5805.9,3057.1,5809.4,3057.1,5811.1Zm-25.6-109.4c0-10.3-.6-10.8,6.3-11.4,0,2.8,14.2,5.7,14.2,21.1,0,2.8-1.1,5.1-5.7,5.1-2.9,0-5.7-2.3-6.8-5.7C3034.9,5709.7,3032.6,5706.3,3031.5,5701.7Zm17.7,136.1c3.4,0,5.7,3.4,9.1,3.4,0,8,1.1,12-13.1,12l-4.6-6.3a0.6,0.6,0,0,1,.6.6c0.6,0-.6-6.3,4-7.4C3046.9,5838.4,3048,5837.8,3049.2,5837.8Zm35.3-450.6c-1.7-6.3-5.7-8.5-5.7-13.7s3.4-10.3,6.8-10.3,9.1,8,9.1,14.2a5.1,5.1,0,0,1-.6,2.8C3092.4,5386.7,3090.2,5387.3,3084.5,5387.3Zm416.9,353.2c-4-4-6.8-6.3-13.1-6.3a33.5,33.5,0,0,0,1.1,7.4c-3.4,0-1.1-3.4-2.8-4.6,0,2.8-6.3,8-6.3,8.5a22.2,22.2,0,0,0,1.1,3.4c-1.1,0-1.7,0-1.7-.6l0.6-.6c0-.6-0.6-0.6-1.7-0.6s-1.7-.2-1.7.4l0.6,0.4h-1.1c0,2,.6,4.2.6,6.5-1.1,0-1.1.1-1.1,0.7a2.2,2.2,0,0,0,.6,1.8,21.3,21.3,0,0,0-5.7-.5c-3.4.6-1.7,2.9-4.6,3.4s-2.3,1.1-2.3,1.7c0,5.1,25.1,0,25.1,14.8,0,1.7-2.3,2.8-3.4,2.8-4.6,0-9.7-6.8-13.7-13.7-2.3.6-2.8,1.1-2.8,2.3s1.7,2.8,1.7,5.7c-6.3-1.7-4.6-8-15.4-8a2.1,2.1,0,0,0-2.3,2.3c-1.7-.6-4.6-1.7-6.8-1.7a2.1,2.1,0,0,0-2.3,2.3c0,5.1,2.3,12,2.3,16.5,0,1.1-.6,1.7-2.8,2.8l-4.6-20a36.4,36.4,0,0,0-4.6,6.2h-0.6c0-1,1-4,1-5.1l0.4,0.6V5768h-7.6c-5.7,0-1.7,8.4-5.7,8.4,0,1.1.6,2.2,0.6,3.9s-1.1,9.1-5.7,9.1c-2.8,0-4-3.4-4-5.1,0-9.7,5.7-2.9,10.8-17.7-2.3,0-5.1-2.3-8.5-3.4,0,9.1-18.8,9.1-18.8,21.1,0,5.7-.6,12-5.1,12-0.6,0-3.4-4-3.4-7.4,0-17.1,14.2-15.9,15.9-24.5,0-9.1-12.4-18.2-17-27.3-2.3,1.1-2.5,4.6-4.5,4.6v6.8c-4,0-1.8,5.1-4.1,5.1-7.4,0-15.4-5.1-23.4-5.1-3.4,4.6-5.2,6.2-5.2,13,1.1,0,1.1.6,1.1,1.6h-0.6c0,1,2.8,5.8,24.5,22.9,0,4-5.1,6.9-10.8,6.9,0-1.7-5.7,0-5.7-5.1,0-1.7,1.7-2.8,1.7-4s-12-14.8-17.1-14.8c1.1,8,2.3,16.5,3.4,24.5,0,11.4,4.6,10.3,6.8,17.1-0.6,0-1.7,0-1.7.6a2.1,2.1,0,0,0,.6,1.7c-2.9,0-8.5,8.5-8.5,14.8,0,1.7.6,4.6,0.6,6.8,0,5.1-1.1,9.7-5.7,9.7-11.4,0-17.1,27.4-23.4,27.4-1.7,0-5.7-.5-8-0.5h0.6c0,2-26.2,11-29.6,11H3277a3.4,3.4,0,0,1,1.1,2.1c-1.1,0-1.7,14.7-15.4,19.3,0-2.3-4-5.2-4-7.4s3.4-4,3.4-5.7c0-5.1-2.8-5.1-6.8-5.1,0,1.1-5.7,2.3-5.7,2.8,0,14.8,13.1,9.1,13.1,26.2-4,4-7.4,5.1-12,5.1-6.3,0-6.8-2.8-6.8-6.8,0,0.6,0-14.2,5.7-14.2-0.6-2.3-.6-4-1.1-5.7-4,0-13.1,2.3-13.1,5.7a9.6,9.6,0,0,0,1.1,2.8,2.1,2.1,0,0,1-1.7.6c-1.1,0-.6-1.7-0.6-2.8-1.7,0-.6,1.1-2.3,1.1a9,9,0,0,1,1.6,5.1c0,5.1-3.6,8-3.6,10.3v-0.6s-1.6,12-10.1,13.7c0-6.8-2.2-19.6-9.6-19.6,0,3.4-4.5,5.2-6.8,7.2h-5.1c0,2,0,1.9-.6,1.9s-10.8-8.4-11.4-8.4c-4.6,0-8,4.6-14.2,4.6-1.1,0-11.4,20-15.4,21.1,0-1.1,0-1.7-.6-1.7s-2.3,8.6-3.4,9.1a3.9,3.9,0,0,1-1.7-2.8c0-4,0-10.8,2.9-10.8,0.6,0,1.1.6,2.3,1.1,0-5.1,5.7-5.1,5.7-9.7,0-1.7-.6-3.4-0.6-5.7s3.4-3.4,3.4-6.3-1.1-4-3.4-4c-1.7,5.1-4,21.1-6.8,21.1,0-6.3,1.1-18.2,3.4-23.4-1.1,0-10.8-10.3-15.4-10.3-2.3,0-.6,2.8-4.6,5.1v-0.6c0,1.1-4,29-14.2,29,0-3.4,2.9-9.1,4.6-9.1,0-.6-0.6-1.7-0.6-2.3,0-3.4,8.5-16.5,12.5-23.9a0.6,0.6,0,0,0-.6.6c-0.6,0-.6-0.6-0.6-1.7-3.4,1.1-6.8,5.7-9.1,5.7-4.6,0-5.7-2.3-9.7-2.3-1.7,0-11.4,1.1-11.4,4,0,1.1.6,1.7,0.6,2.8-0.6,4.6-4.6,6.3-9.7,6.3a20.4,20.4,0,0,1-1.1-6.3c0-3.4,1.1-4,2.3-4s2.3,0.6,4,.6,5.7-1.1,8-8a4.8,4.8,0,0,0-5.1-5.1c-3.4,0-6.8,4.6-10.8,4.6-2.3,0-8.5-2.3-8.5-6.3s1.7-6.8,1.7-10.3-2.8-8.1-2.8-12.1c0-2.3,1.7-2.8,1.7-5.8h-0.6c0-1,11.4-6.2,11.4-9.6s-1.7-1.7-1.7-4.5c0-1.1.6-2.3,0.6-3.4-2.8,0-3.4-10.8-4.6-14.2a1.5,1.5,0,0,0,1.7-1.7c0-1.7-1.7-4-1.7-4.6s1.7-3.4,1.7-6.3c0-14.2-3.4-4.6-3.4-13.7,0-4,12.5-19.9,19.9-25.1,2.3-1.1,1.1-4.6,2.9-4.6-0.6-2.8,0-6.3-3.4-6.3,0,8-.6,9.7-5.1,9.7-1.7,0-9.7-6.8-9.7-15.9,0-2.8.6-4,2.9-4s5.7,1.1,7.4,1.1a110.7,110.7,0,0,0,1.1-14.2,8.5,8.5,0,0,0-4-1.7c-1.1,0-1.1,1.7-1.7,1.7s-2.3-1.1-3.4-1.1c-3.4,0-2.8,11.4-7.4,11.4s-9.1-6.3-12-14.8c0-5.1,0-5.1,4.6-6.2,0,2.8,10.3,2.9,12.5,2.9h-0.6c2.8,0,5.1-5.2,6.8-5.2,0-6.8-5.7-5.2-10.8-6.3,0-17.1,13.1-5.7,13.1-19.9,0-2.3-.6-18.8-6.8-22.8-2.3-1.1-12.5-1.7-12.5-5.1s6.8-6.8,8.5-6.8,2.3,0.6,3.4.6c9.1,0,9.1-2.3,11.4-12.5-2.3,0-6.8-10.3-7.4-10.3,1.7-5.1,12-8,12-10.8,0-6.8-8-8.5-8-13.7,0-.6,15.4-7.4,19.9-9.1,0-1.7,0-2.3.6-2.3s2.3,3.4,2.9,3.4c2.3-2.8,6.3-3.4,7.4-8a1.5,1.5,0,0,1-1.7-1.7c0-1.1.6-2.3,0.6-3.4-4.6-1.7-8-9.7-9.7-9.7,0-5.1-11.4-8.5-12-16.5,5.1,1.7,9.7,10.3,13.1,13.1,4,0,8.5,10.8,15.9,10.8,4,0,8-5.1,11.4-6.8,0-4-.6-4-3.4-6.8-7.4-10.8-8.5-15.4-9.7-24.5l3.4,1.1c0-.6.6-1.1,1.7-1.1s8,2.3,9.1,2.3a0.9,0.9,0,0,0,1.1,1.1c0.6,0,2.3-.6,3.4-0.6,8.5,0,6.8,15.9,10.3,15.9,1.1,0,2.3-2.3,2.3-4.6s-4-6.8-4-10.8c0-1.7,1.1-3.4,4-3.4,7.4,0,3.4,10.8,12.5,10.8,5.7,0,11.4-4,11.4-6.8s-1.7-5.7-1.7-10.3,1.7-4,4.6-6.8c2.9,0.6,4.6,3.4,7.4,4,1.1-3.4,3.4-4,6.8-4,1.1,1.7,2.8,3.6,2.8,6.5s-2.3,4-2.8,7h6.3c1.1,0,.6,1.5,2.3,1.5s5.1-9.2,8.5-9.2c5.1,0,2.3,5.1,10.3,6.2,0.6-1.7,2.3-8,2.9-8,0-7.4-2.9-7.4-2.9-12.5,0-2.3,0-4.6-1.1-4.6l3.4-10.3c4.6,1.7,6.8,5.1,6.8,8.5,0,0.6-.6,1.1-0.6,1.7s1.1,0.6,1.1,1.7-0.6,2.8-.6,4l-0.6,6.3c1.7,0,5.1,6.3,5.1,6.3,0,1.7-.6,5.1-0.6,6.3s2.3,3.4,8,3.4c-1.1,0,13.7-9.7,13.7-12.5,0.6,0,.6.6,1.1,0.6s6.3-9.1,13.7-9.1c3.4,0,6.8,2.3,6.8,7.4,0,3.4-15.9,8-15.9,17.1,2.8,0,3.4,5.7,9.1,5.7,0,0,11.4-13.7,12.5-13.7,4,0,5.1,4,5.1,5.7,0,0-2.3,9.7-5.1,11.4,1.1,5.7,1.1,7.4,8,7.4,0-2.3,4.6-1.7,6.3-2.3,0,0,3.4,4.6,6.3,4.6-0.6,0,10.8-8.5,10.8-14.2,0-.6-0.6-1.1-1.7-1.1,0.6-2.3.6-4.6,1.1-6.3-5.7,0-8-3.4-8-12.5,1.1-.6,3.4-2.8,5.1-2.8,4.6,1.7,4.6,4,9.1,4,0.6-1.7,1.1-6.8,5.1-6.8,1.7,0,2.3,2.8,2.9,5.1-0.6,0-4.6,14.2-4.6,18.2a0.9,0.9,0,0,1,1.1,1.1c4-1.7,9.1-11.4,9.1-14.2s-0.6-3.4-1.1-3.4c0.6-2.3,1.7-5.1,4-5.1,4,0,4.5,7.4,9.6,7.4,6.8,0,5.6-10.8,13.6-10.8v4.6c0,0.6.6,0,.6,1.1a25.3,25.3,0,0,1,5.7-1.1c4-.6,3.4-8.9,9.1-8.9s1.2,10.4,8,10.4H3416c1.1-3,3.4-2.5,5.7-3.6,0,2.8,4,1.6,4,5.6a23.5,23.5,0,0,1-.6,2.8c0,2.8,2.3,4.5,17.1,8,0-2.8,7.4-3.4,9.7-3.4,0,1.1,1.1,2.8,1.1,4.6s-2.3,4.6-2.3,7.4c0,4.6,2.8,9.1,6.3,9.1s5.7-2.3,9.1-2.3c0,4-2.9,6.8-4,10.8s6.8,11.4,8.5,11.4a61.3,61.3,0,0,1,9.1-1.1c2.3,0,4,.6,4,2.8-4.6,2.8-10.8,6.8-10.8,12,1.7,1.1,2.3,3.4,2.3,5.1s-1.1,5.7-1.1,8.5c0-.6,5.7,6.8,6.3,6.8,0,8-11.4,15.9-11.4,21.1,0,3.4,1.7,6.8,3.4,6.8s2.3-.6,4-0.6c0,2.8,8,9.7,13.7,10.8,4,1.1,0,8.2,13.7,8.2,0.6,0,0-.9,1.1-0.9h-1.1c0.6,0,8,.3,18.2,10.6,1.7,0,7.4,11.8,9.1,11.8a7.9,7.9,0,0,0-1.1,3.4c1.1,0,1.1,2.8,1.1,6.2,0,6.3,0,7.4-.6,7.4s0-.6.6-0.6-3.4,4-5.7,12C3514.5,5725.1,3509.4,5739.9,3501.4,5740.4Zm-405,94c-1.7-.6-1.1,0-2.3-1.1C3095.3,5833.3,3096.4,5832.7,3096.4,5834.4Zm-1.1-703.8c1.1,0,4.6-1.3,4.6-2.4,2.3,0,8.5.8,8.5,3.6s-4.6,4.2-5.7,4.2h-0.6C3102.1,5134,3097,5132.9,3095.3,5130.6Zm23.4,826.8a5,5,0,0,1-5.1,4c-4,0-6.3,0-6.3-5.1,0-2.8.6-5.7,4-6.8C3116.4,5949.5,3118.6,5952.3,3118.6,5957.4Zm23.9-635.7c0-4.6,0-4.6,4.6-5.7,0,0.6,8,9.7,8.5,9.7-0.6,2.8-.6,6.3-1.1,9.1C3149.4,5333.7,3142.6,5325.8,3142.6,5321.8Zm34.7,134.4c5.1,1.7,4.6,7.4,4.6,12C3178.5,5468.2,3177.3,5459,3177.3,5456.2Zm33,460.2c1.7,0,2.3,1.1,2.3,2.8,0,6.3-3.4,7.4-9.1,8,0-.6-1.1-2.3-1.1-4s2.3-5.1,5.1-6.3A24.8,24.8,0,0,0,3210.4,5916.4Zm-4-626c0-2.3,0-5.1.6-6.3,5.1,1.7,4,5.1,4.6,10.3-1.1,0-1.7,1.1-1.7,2.3s0.6,2.8.6,3.4a7,7,0,0,1-1.1,2.8c0-.6-1.7-1.7-1.7-5.7,0-1.1,0-2.3.6-2.8C3206.4,5294.4,3206.4,5292.7,3206.4,5290.4Zm6.3,263.2c-1.1-1.1,0-.6-2.3-1.1C3211.5,5553.6,3210.4,5553,3212.6,5553.6Zm-1.7,391.3c0-5.1,5.7-6.8,10.3-6.8s6.8,4.6,8,10.3c-1.1,0-1.7.6-1.7,1.1a0.6,0.6,0,0,1,.6.6c0,1.1-4,2.8-6.8,2.8-5.7,0-8.5-5.7-9.7-5.7A3.4,3.4,0,0,1,3210.9,5944.9Zm3.9-11.4c0-1.7,3.1-2.3,5.1-2.8v5.7C3218,5936.4,3214.9,5936.9,3214.9,5933.5Zm16.6-389c-2.8,0-5.7-2.8-5.7-6.8s1.1-7.4,5.1-7.4,9.1,2.8,9.1,7.4c0,2.3-2.3,4-4.6,5.7S3232.6,5544.5,3231.4,5544.5Zm4.6-50.1a5.1,5.1,0,0,1,5.1-5.1c2.9,0,4.6,4.6,4.6,8.5,0,1.1-.6,2.8-0.6,3.4a2,2,0,0,1-1.1-.6,1.2,1.2,0,0,0-1.1,1.1,1.8,1.8,0,0,0,.6,1.1A9.1,9.1,0,0,1,3236,5494.4Zm4-31.9a1.5,1.5,0,0,0,1.7-1.7,1.9,1.9,0,0,0-.6-1.1v0.6c1,0,5.8-18.2,16-18.2,5.7,0,1.2,7.4,6.3,7.4a2,2,0,0,0,.6-1.1c9.7,2.3,15.4,2.8,15.4,21.1,0,5.1-8,6.8-8,12-13.7,0-13.7-14.2-20.5-14.2-2.9,0-4,2.8-6.8,2.8S3240,5467,3240,5462.5Zm21.6-147c0,1.1-1.1,2.3-3.4,2.8,0-1.1-.6-2.3-0.6-3.4s2.8-8,2.8-9.7-1.1-1.1-1.1-3.4a1.2,1.2,0,0,1,1.1-1.1c1.1,0,1.7,2.3,1.7,4.6s-0.6,4.6-1.7,4.6C3260.5,5312.1,3261.6,5313.8,3261.6,5315.5Zm-1.1-25.6c1.7,1.1,1.7,1.7,2.3,3.4-1.1,0-1.7,1.1-1.7,2.8s0.6,2.8.6,3.4C3259.9,5299.6,3260.5,5291.6,3260.5,5289.9Zm14.2-181.7c-5.1,0-6.3-2.8-6.3-6.8,0-2.3,3.4-5.1,6.8-5.1s3.4,4.6,3.4,6.3-0.6,2.8-2.9,4.6A0.9,0.9,0,0,1,3274.7,5108.2Zm-6.3,303.1c0.6-8,7.4-12.3,9.7-19.3h2.3c-1.1,6-4.6,7.9-4.6,13.6S3271.3,5411.3,3268.5,5411.3Zm12,487.5c0,2.8-2.3,6.3-2.3,8-1.1-1.1-.6-2.3-2.3-2.3,0-1.1,1.1-2.3,1.1-3.4s-1.7-1.7-1.7-2.8,1.7-2.3,2.8-3.4A4.9,4.9,0,0,1,3280.4,5898.8Zm-0.6-536c0,0.6-.6.6-1.1,0.6s-1.7-.6-1.7-1.1C3279.3,5362.2,3279.8,5362.8,3279.8,5362.8Zm13.1,528.6c0,1.1-.6,2.3-0.6,4s0.6,2.8.6,4-0.6,1.7-2.8,1.7c0-2.8-.6-5.1-0.6-8,0-1.1.6-2.8,0.6-4C3292.4,5889.1,3292.9,5890.2,3292.9,5891.4Zm-2.3-518.9c0-2.3,2.3-6.3,4-6.3,4.6,0,5.7,8,5.7,8.5,0,4.6-1.1,8.5-1.7,12.5-4.6,0-4.6-3.4-6.3-7.4C3291.2,5378.2,3290.7,5375.3,3290.7,5372.5Zm6.3-167.5c0-2.8,3.4-15.9,9.7-25.6,4,1.7,3.4,3.4,4.6,8-1.1,0-1.7,1.7-1.7,3.4a32.1,32.1,0,0,0,.6,4c-2.3,5.7-2.9,13.1-9.7,14.8C3296.9,5209.6,3296.9,5208.4,3296.9,5205Zm23.4,264.3c-2.3,0-2.9-1.1-2.9-2.8s1.7-3.4,4.6-3.4,4,0.6,4,1.7-0.6,2.3-.6,3.4A16.6,16.6,0,0,1,3320.3,5469.3Zm5.1,418.7c0,1.7-1.1,3.4-2.3,3.4-4.6,0-4.6-10.3-4.6-14.2C3320.9,5877.1,3325.4,5885.7,3325.4,5888Zm4.6-771.2c0-12.5-1.1-33,15.9-33,1.1,0,10.3,9.1,10.3,29,0,12.5-6.8,23.4-17.7,23.4C3331.1,5135.5,3330,5125.3,3330,5116.7Zm8.5,278c1.7-4.6,10.8-8,10.8-8.5,4,1.1,5.1,5.1,5.1,9.1s-0.6,6.3-.6,8.5-5.1,15.9-13.1,15.9-6.8-10.8-6.8-15.9C3334.5,5403.8,3336.2,5398.1,3338.5,5394.7Zm5.1,527.3h-2.3a31,31,0,0,0-1.1-6.8C3343.6,5915.2,3341.4,5921,3343.6,5922Zm15.4,26.3c0,2.8-1.1,2.3-3.4,3.4,0-8.5-10.8-8.5-10.8-24.5,5.1,2.3,12,13.7,12,18.8C3358.5,5946.1,3358.5,5947.2,3359,5948.3Zm-1.7-506.4c2.9,0,4.6,5.1,4.6,8,0,8-6.8,6.8-12.5,8.5-1.1-2.8-1.1-5.7-1.1-9.1C3350.5,5449.4,3348.8,5442,3357.3,5442Zm5.7,497.3,0.6,0.6c-6.8-2.3-8.5-12.5-13.7-14.8a0.6,0.6,0,0,0,.6-0.6c1.1,0,12,6.3,14.2,14.2C3364.1,5938.7,3363,5938.7,3363,5939.2Zm19.9-219.3c-1.7,1.1-6.3,6.8-9.7,6.8a3,3,0,0,1-2.3-1.7c-1.1,2.8-1.7,2.3-4,3.4,0-2.3-1.1,0-1.1-2.3a7.7,7.7,0,0,0,4-3.4,24.6,24.6,0,0,1-2.8-.6c-1.1,0-6.8,1.1-6.8,2.8s3.4,3.4,4.6,5.7c-3.4,1.1-6.8,1.7-6.8,4,0,6.3,9.7,9.7,14.8,9.7s13.7-15.9,13.7-16.5C3386.4,5723.9,3384.7,5723.3,3382.9,5719.9Zm-13.1-264.9c2.3,4,5.7,4.6,5.7,10.8,0,4-5.1,7.4-8,7.4s-6.8-2.3-6.8-5.1c0-1.1.6-2.3,0.6-3.4C3361.3,5461.3,3363,5455.1,3369.8,5455.1Zm18.8,545.9c0,8.5-8,10-8,11h-4c0,1,0,1.5-.6,1.5l-0.6-.7a23.8,23.8,0,0,1,2.3,6.8,8,8,0,0,0-3.4,1.1c0-1.1-1.1-4.6-2.3-4.6a11.6,11.6,0,0,1,.6-2.9c0-1.7-10.3-2.3-10.3-12.5s6.8-10.3,8.5-14.2c2.8,0.6,5.7.7,8.5,1.2C3385.2,5988.3,3387.5,6001,3388.6,6001Zm-23.9-293.6c4-.6,7.4,0,7.4-5.7,0-3.4-3.4-3.4-5.1-4C3367,5701.1,3364.7,5704.5,3364.7,5707.4Zm2.3,109.4c2.8,0,9.1-.6,9.1,2.8s-2.9,5.7-4.6,5.7a6.1,6.1,0,0,1-5.7-5.1C3367.6,5820.2,3367,5819,3367,5816.8Zm15.4-89.4a1.2,1.2,0,0,1-1.1,1.1c-0.6,0-1.1-.6-1.1-2.3C3381.8,5726.2,3382.4,5726.8,3382.4,5727.3Zm2.8,48.4a4.3,4.3,0,0,1-4-4c0-1.7,1.1-2.3,1.7-4l3.4-1.1c0,1.7,4.6,3.4,4.6,5.7s-0.6,1.7-2.8,2.8A5.1,5.1,0,0,1,3385.2,5775.7Zm33-262.6c2.3,0,1.1-9.1,10.3-9.1,0,0,6.3,8.5,6.3,10.8,0,4.6-6.3,7.4-10.3,8S3418.3,5516.6,3418.3,5513.2Zm23.9,373.7c-1.1,0-2.3.6-3.4,0.6s-2.3-.6-2.3-1.7c1.1,0.6-14.2-6.8-14.2-9.7l0.6,0.6c0.6,0,.6-1.6.6-1.6h4.6c1.1,2,2.8,2.8,5.1,3.9C3437.6,5880.6,3441,5881.7,3442.2,5886.8Zm-8.5-110.8c-0.6,3-1.1,4.1-1.1,5.9,1.1,0,1.1,3.5,1.1,6.9,0,5.7-1.1,6.3-4,6.3s-4.6-1.8-4.6-4.7c0-5.1,5.1-9.4,7.4-14.4h1.1Zm0-327.8a11.5,11.5,0,0,1,6.3-1.7c0.6,2.8,1.1,4.6,1.1,6.3s-0.6,5.7-2.8,5.7-1.7-.6-2.3-1.7A16.6,16.6,0,0,1,3433.6,5448.2Zm30.2,336.1c0,4-1.7,5.1-5.1,5.1-1.1-2.8-4-4-4-6.8s0.6-3.4.6-4.6c0-2.8-1.7-4.6-2.3-9.1,2.3,0,2.3,4,3.4,5.7C3461,5776.3,3463.8,5779.7,3463.8,5784.3Zm15.4-31.9c-1.7-.6-1.1,0-2.3-1.1C3478.1,5751.3,3479.2,5750.7,3479.2,5752.4Zm10.3-10.8c2.3,1.7,6.8,8,6.8,8s1.7-.6,2.3-0.6c4.6,0,8,6.8,8,11.4a52.8,52.8,0,0,0-5.1,1.7c0-1.1-6.3-2.3-8-9.7C3492.9,5752.4,3489.5,5743.8,3489.5,5741.6Zm26.2,67.2c0-2.8,4.6-5.1,6.8-5.1,5.7,0.6,10.8,2.3,15.9,3.4,0,5.1-5.7,6.3-12,6.3a17.5,17.5,0,0,1-8.5-2.3C3516.2,5810.5,3515.7,5809.4,3515.7,5808.8Zm57.5,176.6c-0.6,0-2.3,1.5-3.4,1.5s-0.6-.9-0.6-1.9h-4.6c-4.6-6-15.9-8.4-23.9-19.2,10.8,0,13.1,9.8,20.5,9.8,0,2.3,5.7.6,5.7,3.5C3569.8,5980.8,3572.6,5981.9,3573.2,5985.4Zm-26.2-139c6.3,0,19.4.6,21.1,5.7C3562.4,5852.1,3548.7,5851.5,3547,5846.4Zm46.7-133.3c-13.1,0-21.6-17.7-21.6-17.7s1.1-1.7,1.1-2.8-1.1-1.7-1.1-4c0-6.3,2.3-5.3,5.7-15l0.6,0.4h-0.6c0-1,9.7-7.8,22.2-7.8,16.5,0,20.5,22.9,21.6,25.2-2.8,0-2.3,5.2-4.6,5.2,0,2.3,1.1,3.4,1.1,4.6s-6.8,5.7-9.7,6.3C3606.8,5712.5,3598.8,5713.1,3593.7,5713.1Zm41,55.8c-4.6,2.3-5.1,3.3-10.3,3.3-3.4,0-4-1.2-8-1.2h-4.6a1.2,1.2,0,0,1-.6,1.2c-0.6,0,0-1.1-1.7-1.1s-0.6.6-1.1,1.2-2.9-1.1-4.6-1.1c1.7-4.6,14.8-7.4,23.4-7.4a16.6,16.6,0,0,1,5.1,1.1C3634.7,5766.1,3634.7,5766.1,3634.7,5768.9Zm104.8,207.9c0,4-1.7,4-4,4s-2.3-1.1-3.4-1.1-1.7.6-2.3,0.6-14.8-4.6-14.8-9.1a3.4,3.4,0,0,1,.6-2.3C3724.7,5970,3728.7,5972.8,3739.5,5976.8Zm-17.1-38.7a3.9,3.9,0,0,1-4-4,12.5,12.5,0,0,1,1.7-5.6,3.7,3.7,0,0,0,2.3-.5h-0.6c0-1,.6-0.7,1.1-0.7a1.5,1.5,0,0,0,1.7,1.7,23.8,23.8,0,0,1,2.8-.6c0.6,2.3,1.1,3.4,1.1,5.1s-1.1,2.8-3.4,4C3724.7,5938.1,3723.6,5938.1,3722.4,5938.1Zm158.9-299c0,1.7-.6,2.8-1.7,2.8l1.1,6.8c-1.7,0-6.8,3.4-6.8,4.6s0,0.6,1.1.6c-2.3,8-13.7,10.8-19.9,10.8-13.1,0-18.8-18.2-22.8-18.2,0-1.1,1.1-2.3,1.7-2.8s-2.3-2.8-2.3-6.3c0-1.7,1.1-1.1,2.8-3.4s4.6-15.9,14.8-15.9c2.3,0,2.8,1.1,4,1.1,0-2.3,6.8-3.4,7.4-3.4s1.7,0.6,2.9,1.7,14.2,4,14.2,12.5c0,3.4,0,4,2.3,5.7A6.1,6.1,0,0,1,3881.4,5639Z" transform="translate(-2860.6 -5083.7)"/>
</svg>
