<svg id="CV" xmlns="http://www.w3.org/2000/svg" viewBox="0 0 342.4 217.9">
  <defs>
    <style>
      .cls-1 {
        fill: #fbfbfc;
      }
    </style>
  </defs>
  <title>email</title>
  <g>
    <g>
      <path class="cls-1" d="M12812.8,5642.2c0.2,0.6.6,0.3,0.5-1.3l-0.7-1.1Z" transform="translate(-12473.5 -5427.4)"/>
      <path class="cls-1" d="M12814,5631.5c-0.3-1.9-.9-4-1.5-2.8s0.4,2.3,1.1,4.3-0.2,2.8-.5,2.5-0.1,2.5.3,3.3a19.6,19.6,0,0,0,.1-7.4C12813.7,5630.8,12813.9,5631.4,12814,5631.5Z" transform="translate(-12473.5 -5427.4)"/>
      <path class="cls-1" d="M12815.1,5475.7v1A8.3,8.3,0,0,0,12815.1,5475.7Z" transform="translate(-12473.5 -5427.4)"/>
      <path class="cls-1" d="M12763,5429.1h0Z" transform="translate(-12473.5 -5427.4)"/>
      <path class="cls-1" d="M12746.5,5428.3h0Z" transform="translate(-12473.5 -5427.4)"/>
      <path class="cls-1" d="M12815.1,5475.7l0.2-2.6C12815.1,5473,12815.1,5474.5,12815.1,5475.7Z" transform="translate(-12473.5 -5427.4)"/>
      <path class="cls-1" d="M12812.4,5610a10.4,10.4,0,0,0,.2,1.4v-1.3h-0.1Z" transform="translate(-12473.5 -5427.4)"/>
      <path class="cls-1" d="M12815.6,5518.3v0.8l0.3,0.7Z" transform="translate(-12473.5 -5427.4)"/>
      <path class="cls-1" d="M12815.7,5550.9a1.7,1.7,0,0,0-.8-1.3,3.9,3.9,0,0,1,.4,1.6A0.5,0.5,0,0,0,12815.7,5550.9Z" transform="translate(-12473.5 -5427.4)"/>
      <path class="cls-1" d="M12814.7,5602.7v0Z" transform="translate(-12473.5 -5427.4)"/>
      <path class="cls-1" d="M12815.7,5494.9l0.2-.3A0.4,0.4,0,0,0,12815.7,5494.9Z" transform="translate(-12473.5 -5427.4)"/>
      <path class="cls-1" d="M12776.3,5639.6a0.2,0.2,0,0,0,0,.1C12776.5,5639.6,12776.5,5639.6,12776.3,5639.6Z" transform="translate(-12473.5 -5427.4)"/>
      <path class="cls-1" d="M12814.1,5642.4h-0.5a0.7,0.7,0,0,0-.1.3Z" transform="translate(-12473.5 -5427.4)"/>
      <path class="cls-1" d="M12716.3,5427.6h0.1C12717.3,5427.6,12716.8,5427.6,12716.3,5427.6Z" transform="translate(-12473.5 -5427.4)"/>
      <path class="cls-1" d="M12474.4,5467.6c0.5-3.1.6,5.1,1.2,0.4C12475.4,5468.5,12474.8,5463.7,12474.4,5467.6Z" transform="translate(-12473.5 -5427.4)"/>
      <path class="cls-1" d="M12812.5,5609.2v-1.3C12812.5,5608.4,12812.5,5608.8,12812.5,5609.2Z" transform="translate(-12473.5 -5427.4)"/>
      <path class="cls-1" d="M12475.6,5468h0v0Z" transform="translate(-12473.5 -5427.4)"/>
      <path class="cls-1" d="M12646.8,5428l0.7,0.2Z" transform="translate(-12473.5 -5427.4)"/>
      <path class="cls-1" d="M12698.6,5428.8h0Z" transform="translate(-12473.5 -5427.4)"/>
      <path class="cls-1" d="M12620,5428.8h-1.6A4.7,4.7,0,0,1,12620,5428.8Z" transform="translate(-12473.5 -5427.4)"/>
      <path class="cls-1" d="M12592,5428.8h0Z" transform="translate(-12473.5 -5427.4)"/>
      <path class="cls-1" d="M12691.3,5639.8l1.3,0.5C12692.1,5639.9,12696.2,5639.8,12691.3,5639.8Z" transform="translate(-12473.5 -5427.4)"/>
      <path class="cls-1" d="M12812.8,5610a1.4,1.4,0,0,1-.2-0.8v0.9C12812.6,5610.2,12812.7,5610.2,12812.8,5610Z" transform="translate(-12473.5 -5427.4)"/>
      <path class="cls-1" d="M12618.8,5433.2h0Z" transform="translate(-12473.5 -5427.4)"/>
      <path class="cls-1" d="M12490.6,5639.9h0Z" transform="translate(-12473.5 -5427.4)"/>
      <path class="cls-1" d="M12601.2,5433.2l-2.5-.4h-0.5Z" transform="translate(-12473.5 -5427.4)"/>
      <path class="cls-1" d="M12692.6,5640.4h0Z" transform="translate(-12473.5 -5427.4)"/>
      <path class="cls-1" d="M12721.8,5639c-4.2,0-2,.7-2.9,1.1-5.1.2-2.3-.5-4.1-0.9s-5.6.9-7.9,0.8c-0.2-.1-0.6-0.2-0.1-0.3-3.3.6-9.9,0-13.8,0.8l-0.5-.2c0.6,0.4.7,0.7,0.6,1-1.9,0-3.5.5-4.2,0a3.9,3.9,0,0,0,1.8-.3l-2,.2c-1.8-.7,2.7-0.2,2.7-0.8-3.9.2-8.4,0.8-11.4,0.6-0.6-.7,7-0.2,3-0.8l4.6,0.3c-3.5-1.1,2.8.1-.4-1.1-6.1-.2-6.8.3-12.8,0.1-1.4.4,0.4,0.6-.9,0.9-8.6.7-6.8-1.7-13.1-.8-1.6.5-2.3,1.3-6.8,0.9l1.5-.8c-5.9-.1-3.3,1.1-9.5.6,1.1-.3,4.6-0.3,3.7-0.3-4-.6-2.8.4-5.9,0.4l-0.6-.7c-6.2.1-13.1,0.6-20,.7,0.4-.2,1.6-0.4-0.1-0.6-8.7.3-18.6-.1-27-0.5l-3.2.6c-0.7,0-1.4-.3-0.6-0.4-3.3-.2-0.2.4-1.7,0.6s-2.5-.3-1.3-0.5c-5.8.5-16.5,1.1-22.6,0.4l1.2-.2c-4.7-.2-5.4,1.2-9.8.7h0.8c-10.3-.3-21.7.3-29.5-0.6-1.5.8-10.2-.4-10.9,0.8-5.9-.6-4.2-0.8-12.5-1.2-2.2-.1-3.3.7-6,0.9v-0.6l-3.7.6-2-.7-2.6.2c1,0,2.2.3,2,.5-4,.3-9.8-0.4-9.9-0.7l-3.5.2h-1.2v-0.7a1,1,0,0,1,.4.4h0a0.4,0.4,0,0,1-.1-0.4l0.2-.2c0.2-.2.3,0.6,0-1.9-0.1.6-.4-0.3-0.5-0.4a77.5,77.5,0,0,0,.2-11.5l0.4,0.7c0.1-7-.2-14.8-0.2-22.7-0.2,2.8-.9,2.2-1-0.1l0.7-.9c-0.4-1.5-.2,2.4-0.7-0.7s0.7-2,1-.3l-0.2-3.6c0.2-.2.3,0.6,0.5,0.8-0.4-1.5.7-6.2,0-8.3l0.2-.2c0-7.9-.2-11.5-0.3-17.9-0.6-.1-0.4-2.6-0.9-4.6,0.2-4.7.6-10,.6-15.6-0.3-4-.5-1.2-0.8-3,0.5-.3.5-6,0.8-3-0.1-6.8-.1-8.7-0.5-17.4-0.2.9-.3,2-0.5,1.4s0.2-3.6.5-3.3v0.4c-0.8-9.7,1.5-22.4.4-30.1v0.4l-0.6-8c0.1-3.7.4,2.2,0.7-.5-0.9-8.6.1-13.6-.4-20.7,1.5-5.5-.1-19.5.9-27l-0.4.4c-0.3-1.9.2-2.3,0.3-3.7-0.3.2-.3,2.1-0.5,0.9v-6.3h8.1l10.4,0.3,20.9,0.6c6.1,0.1,3.5-1.8,11.1-1l-2.2.7c12.3-.8,25.2,0,37.2-0.6a5.3,5.3,0,0,1-1.9.3c2.5,0.5,9.4,0,9.5-.4,1.9,0,.4.4,1.6,0.6s6.4-.6,7.8-0.1a2.6,2.6,0,0,1-1.2.2c1.7-.2,7.7.1,6.2-0.5,4.5,0.3,8.6-.2,12.3.1s7.7,0.3,8.5-.6c-0.3.9,7.9,0.7,10.8,0.3-1,.3,2.5.3,1.4,0.7,3.3,0,6.3-.2,5.7-0.6,6,1.1,12.1-.9,15.5.5,9.7-.5,18.7-0.8,27.4-1-0.3.9-9.6,0.1-9.3,1,8.3-.4,13-1.1,21.2-0.9,2.1,0.1-1.2.4-1.9,0.5,8.3-.4,16,0.1,23.3-0.4l-1.6.2c1.4,0,3.4.1,3.2-.3h-1.4c-2.3-.6,5.8-1.2,6-1.6-2.5,1.2,7.3.3,3.4,1.8,1-.1,2.1-0.3,1.9-0.5,1.4,0.1,1.9.2,0.4,0.6,5.2-.2,3.3-0.7,8-0.7a6.2,6.2,0,0,1-1.5.5,38.1,38.1,0,0,1,8.7-.6c-0.2.1,0.2,0.3-1,.3,6.8-.1,11.6-1,19.1-0.7-2.2.9,2.5,0.3,2.9,1l4-.2-1.6-.4c3.5,0,6.6-.5,9.7-0.3l-2.6.3h6.6l-3.7-.3c3.6-.4-0.4-0.9,4.3-0.7-1,.1,3.5,0,5.4.4h0a27,27,0,0,1,6.1-.3c0.7,0.2-.5.8-0.1,1s8.3-.2,10.4-0.8c-0.7.2-.8,0.5-0.5,0.6l1.4-.5c1.6,0.2,1.9.2,1.6,0.6,4.9,0.1-1.6-.9,4.3-0.5l-1.2.2c5.9,0.2,11.3-.3,16.7-0.1,1.6,0.8-4.7.2-2.9,0.8h5.1v2.8l0.2,4.3c0.1,2.8.2,5.6,0.1,8.4v-1.4c1.1,1-.5,5.6,0,9.4-0.1-.9-0.6-1.2-0.5-1-0.2,5.1.3,10.5,0.6,18.3l-0.3-1c-0.2,3-.1,8-0.3,11.3,0.3,1,.2,2.8.6,1.7-1.6,10.1.8,19.3-.5,28.2,0-1.1-.2-2.6-0.2-1.7l0.3,7.6c0.5-.6.3-1,0.6-2.6a22.9,22.9,0,0,1,.5,5c-0.3-3.4-.7,0-1,1.5,0.1-.2.3,0.3,0.4,0.1-0.8,4,.9.7,0.4,6.1l-0.2-.3c0.1,2,.4,3.9.4,6.1s-0.2-2.2-.7-2.3c0,3.1,1,6.1.5,8.9-0.1-1.3-.2-3.2-0.3-4.5a23.8,23.8,0,0,0-.6,5.7v-0.2l-0.3,5.2,0.2-1.3c1.4,3.9.3,7.9,1.2,13.1-0.9-5.1-.5-0.8-1.1-1.2-0.2,1.3-.4,3.3-0.5,2.8,0.5,2.5-.4,4.1.3,7.6-0.2.2,0,2.6-.5,2.1,0.2,3.2.3-.8,0.6-0.5,0.7,4.9-.8,11.6.1,18.7s1,7.2,1.4,12.9c-0.3,1.9-.7-1.6-0.7-1.6a45.2,45.2,0,0,0,0,8.3c-0.2-.6-0.3,0-0.5.9s0.7,1.6.4,4.6a10.3,10.3,0,0,1-.8-2.3c0.2,2.8.5,5.5,0.7,8.3-0.3.8-.5-1.7-0.7-2.7,0.2,3.2.3,8.3,0.8,9.3l0.2-2.1c0,1.2-.5.6-0.6-0.3-0.4-2.7.2-4,.4-4.1v2c1.1-2.1-.2-8.1-0.1-12.2l0.8,1.7-0.7-4.2c0.2-.9.7-1.5,0.8,0.5,0.4-2.9-.3-2.6.2-5.1,0.1-.3.1-0.2,0.1,0.1l-0.2-2.9c0.2,0.6.6-.5,0.5,1.3,0.5-5.1-.6-8.3,0-10.2v0.4c-0.3-7.1-.6-0.7-1.3-6l1.5-3.6-0.6-.7c0-.7.1-2.2,0.3-1.9-0.4-2.7-.3.5-0.7-1.1,0.6-3.5-.3-9.7.7-10.5s-0.4,3.4-.7-0.4c1-1.1-.2-4.4.3-7.6,0.5,1,.3,4.1.7,0.8s0.2-6.3,0-9c-0.7-.1-0.3-5.9-0.5-10.5,0.2,0.3.4-8.6,0.7-12.9h0.1c-0.7-.8-0.6-5.2-0.7-8.4,0.4,0.1.6,0.7,0.8,2.4v-3a13.6,13.6,0,0,1-.4-3.6l0.5,0.8c0-4-.6-8-0.3-13.2-0.5-.3-1.4,4.1-1.8-1.3,0.3-.2.8-0.4,0.9,1a12.7,12.7,0,0,1-.1-2.6l0.5,2.2c0.2-2.3-.4-1.2-0.3-3.1,0.4,0,.3-1.4.6-1.1a15.6,15.6,0,0,0,0,2.4,27.3,27.3,0,0,1,.6-5.5c-0.2.2-.5,0-0.6-1.5,0-4,.5-1.4.7-3.7s0-3.5-.6-3.6a3.6,3.6,0,0,1,.4-1.8c-0.3-2.1-.1-9.7-0.7-7.3v0.2h0c-0.6-6.8.3-14.1,0.1-20.8h0.2c-0.2-4-.1-8.9-0.6-11.8,0-1.2.4-2.8,0.6-2.3a41.9,41.9,0,0,1,0-7.8c0.3,3.1.3-1.1,0.3,3.2l0.2-3.8c0.1-1.4.1-3,0-4.8l-3,.2c1.1-.3.2-0.4-1.6-0.5h-3.7l2.8,0.4h-5.9l1-.7c-8.2-.8-14.7,1.4-20.9,0-2.2.5,4.4,0.3,2.5,0.9-3.8-.1-7.7-1-8.8-1-5.1-.4-4.8,1-10.2.7,0.7,0.2,1.3.9-2.7,1.1s-4.6-1-2.2-1.2a2.1,2.1,0,0,1,1.3.1c1.2-.1,2.8-0.2,1.3-0.4l-0.5.2c-1.9-.2-7-0.2-5.8-0.6-2.8.2-1.2,0.4,0.9,0.5-4.8-.3-7.5,0-12.5-0.2,0.8,0.1,1.5.4,0.7,0.4-7.3-.3-3.2.5-8.1,0.6-2.8-.4,1-0.9-4-0.6-3-.2-0.6-0.6.6-0.8-4.5.5-8.4-.3-11-0.4l2.4-.2h-3.8l1.4,0.5c-1.4-.1-2.6-0.1-2.6-0.3s1.1,0.8-1.8,1.2-5.7.3-6.3-.4c5.9,0.2-.6-0.6,4.3-0.7h-3.5c-0.2-.1.2-0.1,0.6-0.2-5.6-.6-2.6.7-8.4,0.7,0.7-.4-1.3-0.7-2.3-0.6,2.3,0,1.1.6-1,.9-3.7-.3-4.1.2-6,0.2h2.2c-0.8.4-2.6,0.3-5.2,0.4-0.2-.3,2.4-0.2,1.4-0.3-2.9.6-6.5-.6-10.5-0.2-1.9-.2-0.2-0.7-1.8-0.8-4.5.5-4.9-.5-9.6-0.1,1.4,0.5,1.6.4-1.7,0.8l7.8-.3-5,.7c2.4,0,5-.3,6.4-0.2-2.4.4-2.1,0.3-1,.7-3.2-.7-6.4.4-10.1-0.1v-1.2c-5.6-.5-9.9.6-17.2,0.3l2.3,0.2c-1,.5-4.5.1-6.8,0.3,0.2-.4-1.3-0.5-2.3-0.8s-5.3,0-6,.8l-3.2-.5c-5.9-.2-6.7,1.1-12.3,1,1.7-.4-0.9-0.7,2.9-1-1.9,0-3.6-.1-3.6.2s-5.2.5-6.9,0.2a7.4,7.4,0,0,1-3.2.6c-0.2-.1,0-0.2,0-0.2s-3.3.3-1.5,0.7c-5.8-1.2-16.2.1-21.2-1l-12.8.3c0.2-.1,0-0.2.7-0.2-5.1-.4-3.2,1.1-9,0.7-3-.6,3.1-0.3,1.2-0.6s-7.1.2-11-.6h1c-3-.4-7.3.5-12.3,0.4,0,0,.2-0.1,0-0.2-3.4.7-9.7,0.9-14.5,1.1,1.5-.5,2.1-0.3,1.3-0.8s0.6,0.8-3.6,1c-1.4-.3-4.4-0.5-4.8-1.1h4c-2-.7-5.2,0-7.3-0.1l0.3-.3c-6.1.1-6.2,0.9-12.8,0.8l0.7,0.2c-3.6.8-3-.4-6.6,0.1l-1.1-.8c-2.4.2-8.3,0.8-12.6,0.9,2.4-.6,7.4-0.9,10.5-1.2-2.4,0-8,.1-9.2.4a16.1,16.1,0,0,1,3.1-.1,55.2,55.2,0,0,1-11.4.9c0.3-.5-0.9-0.7-2.8-0.8h-8.4v4c0,0.4,0,.9-0.1,1.1a11.2,11.2,0,0,1-.4,2.5c0.6,8.3-.2,16.4-0.2,26.1,1.2-3.4,0,2.8,1.3,2.2a16.8,16.8,0,0,1,0,3.3l-0.7,6.8c-0.4,1.6-.3-2.1-0.5-1.9-0.1,4.9-.5,2.1-0.8,5.3,0.4-.7.6,1.7,0.5,4.5l0.6-4c0.7,6.9-1,5.9-.4,12.9l-0.4-2.2c0.2,3.6,0,13.1,1,16.6-0.1.6-.5,1.5-0.6-0.1-0.1,8.5,1,18.9.4,25.5l-0.3-.6c0.1,1.6.6,2.8,0.3,4.7-0.1-.1-0.3-0.6-0.3.1a37.7,37.7,0,0,1,.3,6.3l-0.3-1.8c-0.4,8.3.8,12.7,1,19.7-0.9,0-1.2,6.5-1.3,9.8h-0.1c-0.1,9.7.7,16.4,1.1,25.4-1,5.6-.4,18.8-0.9,27.7,0.2-1.4.7,0.2,0.8,1.8s0.6,5.8-.2,5.5v-0.7c-0.8,1.6-.6,5.9-0.6,9.2l1.1,0.6c-0.2,1.5-.3,3.3-0.4,5.3h9l7.1-.2c4.5-.1,8.5-0.2,10.6.4s4.7-.3,6.9-0.5v0.6c5.9,0.1,8.8.2,16.1,0.1l-1.5.4c4.1,0,5.2-1.6,9-1.7l1.1,0.8c7.1,0,14.4.7,21.5,0-0.1.1-.3,0.4-1.5,0.4,3.4,0,13,.6,11.8-0.6,0.1,0.8,7.4.1,11.2-.3l-0.6.6a30.6,30.6,0,0,1,7.9-1.1c1.1,0.1.9,0.4-.5,0.3,3.6,0.3,2.8-.5,7.2-0.2l-1.6.4a15.3,15.3,0,0,0,5.4-.6c2.3-.2,7,0.1,7.6.6a10.9,10.9,0,0,1,4.7-.6c0.3,0.2-.5.3-0.9,0.4,6.2,0.4,9.2-.6,13.4-0.1a0.9,0.9,0,0,0,.7.3h-8.5c0,0.5,4,.6.8,1.3,3.2-.4,8.6-1.2,12.5-1l0.5,0.2h2l3.2,0.2c0.5,0.4,4.5.2,6.5,0.3-0.2-.6,2.4-0.5,0-0.9h-7.3a15.6,15.6,0,0,1,5.4-.2l2.8-.9c2.7,0.8,7.9,1.2,8.7,1.7,6-.3,14.2-0.2,18-1.3a4.6,4.6,0,0,1,2.6.5c-1,.1-2.2.1-2.7,0.2,3.4-.3,10.2-0.1,11-0.8,4.3,0.3-2.4.7,3.5,0.6l-0.8.2c11.7,1.2,19-1.9,32-.4l-1.5-.3c14.8,0.7,30.5-.6,45.1.4,4.1,0.2,4.6-.3,7.1-0.6l0.9,0.6,4.3-.7c6.1-.5,10.6,1.5,18.4.5l-1-.4c2.8,0.1,8.8-.2,8.4.2a3.5,3.5,0,0,1,2-.2v0.3l6.9-.5c5.3,0.2-.8,1.3,6.9,1.3,2.9-.1,8.2-0.9,7.1-1.1s-3-.2-3.1-0.5l2.6-.2c0.5-.9,2.5-1.9-4-2.5l-4.5.6-1.5-.5h3.8a12,12,0,0,0-5,.2,4.4,4.4,0,0,0-1.9-.5l-4.4.9c-0.5-.4,2-0.7-1-0.9s2,0.8-1.4,1.1-1.5-.8-4.1-0.4c-0.4-.2.2-0.4,1.2-0.5-2.3.3-6,.1-7.1,0.6s-7.6.1-7.4-.7a35.8,35.8,0,0,1-6,.7c3.8-1.1-7.8-.1-6.8-1.2-2.8.9-10.1,0.4-15.1,0.9a3.7,3.7,0,0,1,1.3-.2,48.2,48.2,0,0,1-5.4-.5c-0.4.8-4.7,1-7,1.4s2.1-.9,1-1.6-5.9.6-4.8,1.2c-2.6-.5-2.3-0.2-3.6-0.9-0.5,1-2.4.2-4.6,0.8-3.8-.5-1-0.9-5.1-0.6C12718.1,5639.4,12721.8,5639,12721.8,5639Zm-98.9,1.7h0Zm-8.3,0h3.6c0.3,0.2,0,.4-0.9.4S12615.8,5640.9,12614.6,5640.7Zm17.6,3.9a3.7,3.7,0,0,1-1.9-.1h2.5Z" transform="translate(-12473.5 -5427.4)"/>
      <path class="cls-1" d="M12634.6,5643.9h-0.2l-0.5.2h0.7Z" transform="translate(-12473.5 -5427.4)"/>
      <path class="cls-1" d="M12815,5476.9v0Z" transform="translate(-12473.5 -5427.4)"/>
      <polygon class="cls-1" points="26.3 212.3 26.3 212.4 27 212.3 26.3 212.3"/>
      <path class="cls-1" d="M12813,5522.7a1.8,1.8,0,0,0-.1.6A2.3,2.3,0,0,0,12813,5522.7Z" transform="translate(-12473.5 -5427.4)"/>
      <path class="cls-1" d="M12812.9,5542.5l-0.2,2.8C12812.8,5544,12812.9,5543.2,12812.9,5542.5Z" transform="translate(-12473.5 -5427.4)"/>
      <path class="cls-1" d="M12812.6,5557.7l0.2,0.3h0Z" transform="translate(-12473.5 -5427.4)"/>
      <path class="cls-1" d="M12699.7,5432.5h0Z" transform="translate(-12473.5 -5427.4)"/>
      <path class="cls-1" d="M12771.6,5431.2l-2.3.3C12770.6,5431.5,12771.6,5431.5,12771.6,5431.2Z" transform="translate(-12473.5 -5427.4)"/>
      <path class="cls-1" d="M12619.3,5433.2h0Z" transform="translate(-12473.5 -5427.4)"/>
      <path class="cls-1" d="M12766,5431.5a19.6,19.6,0,0,0,3.3,0h-3.3Z" transform="translate(-12473.5 -5427.4)"/>
      <path class="cls-1" d="M12812.4,5623.6v0.7h0.1v-0.8Z" transform="translate(-12473.5 -5427.4)"/>
      <path class="cls-1" d="M12812.5,5624.4v0.8A2.6,2.6,0,0,0,12812.5,5624.4Z" transform="translate(-12473.5 -5427.4)"/>
      <path class="cls-1" d="M12812.7,5626.9v-1.7A5.5,5.5,0,0,0,12812.7,5626.9Z" transform="translate(-12473.5 -5427.4)"/>
      <path class="cls-1" d="M12812.6,5603.4l-0.2-.2Z" transform="translate(-12473.5 -5427.4)"/>
      <path class="cls-1" d="M12812.6,5597.3a52.7,52.7,0,0,0-.3,5.7l0.2,0.2C12812.1,5602.3,12812.9,5598.7,12812.6,5597.3Z" transform="translate(-12473.5 -5427.4)"/>
      <path class="cls-1" d="M12815.1,5571.8l-0.2,5.1c0.2-.9.5-2.1,0.6,0.3C12816.2,5570.7,12815,5578.5,12815.1,5571.8Z" transform="translate(-12473.5 -5427.4)"/>
      <path class="cls-1" d="M12815.4,5555.9c0.1,2.8.3,0,.4,0.1C12815.7,5554.3,12815.6,5553.8,12815.4,5555.9Z" transform="translate(-12473.5 -5427.4)"/>
      <path class="cls-1" d="M12815.4,5441l0.5,0.3C12815.9,5439.2,12815.7,5441.3,12815.4,5441Z" transform="translate(-12473.5 -5427.4)"/>
      <polygon class="cls-1" points="329.3 4.3 331.4 4.7 332.4 4.2 329.3 4.3"/>
      <polygon class="cls-1" points="316.4 0.7 317.3 0.6 313.8 0.8 316.4 0.7"/>
      <path class="cls-1" d="M12597,5428.3l0.6,0.6C12599,5428.8,12599.3,5428.1,12597,5428.3Z" transform="translate(-12473.5 -5427.4)"/>
      <path class="cls-1" d="M12513.7,5428.9a11.4,11.4,0,0,0-4.7-.2C12510.9,5428.7,12512.7,5429,12513.7,5428.9Z" transform="translate(-12473.5 -5427.4)"/>
      <polygon class="cls-1" points="2.5 217.3 0.6 217.4 0.5 216.2 0.6 217.5 5.1 217.3 2.5 217.3"/>
    </g>
    <g>
      <path class="cls-1" d="M12814.9,5431.5c0.1-.3-0.2-0.5-0.7-0.1v0.8Z" transform="translate(-12473.5 -5427.4)"/>
      <path class="cls-1" d="M12810.9,5432.7c-0.4.7-.7,1.6,0,1.8a18.7,18.7,0,0,0,.7-1.8c0.4-.4,1-0.4,1-0.2s0.8-.4.9-0.9a2.9,2.9,0,0,0-2.4,1.5C12810.9,5433.1,12810.9,5432.9,12810.9,5432.7Z" transform="translate(-12473.5 -5427.4)"/>
      <path class="cls-1" d="M12762.5,5465.3l0.4-.2Z" transform="translate(-12473.5 -5427.4)"/>
      <path class="cls-1" d="M12732.6,5485.7a0.4,0.4,0,0,0,.3-0.3C12732.7,5485.5,12732.5,5485.7,12732.6,5485.7Z" transform="translate(-12473.5 -5427.4)"/>
      <path class="cls-1" d="M12727.1,5488.6l0.3-.2Z" transform="translate(-12473.5 -5427.4)"/>
      <path class="cls-1" d="M12762.5,5465.3l-0.9.4C12761.6,5465.9,12762.1,5465.5,12762.5,5465.3Z" transform="translate(-12473.5 -5427.4)"/>
      <path class="cls-1" d="M12805.2,5438.7l0.3-.4-0.4.3h0Z" transform="translate(-12473.5 -5427.4)"/>
      <path class="cls-1" d="M12775.2,5455.7l0.2-.2a1.7,1.7,0,0,0,0-.4Z" transform="translate(-12473.5 -5427.4)"/>
      <path class="cls-1" d="M12785.2,5448.6a1,1,0,0,0,.1.9,0.9,0.9,0,0,1,.3-0.7Z" transform="translate(-12473.5 -5427.4)"/>
      <path class="cls-1" d="M12801.7,5438.4l0.2-.3Z" transform="translate(-12473.5 -5427.4)"/>
      <path class="cls-1" d="M12768,5460.6h0Z" transform="translate(-12473.5 -5427.4)"/>
      <path class="cls-1" d="M12486.9,5440.6h0.1C12486.8,5440.6,12486.8,5440.6,12486.9,5440.6Z" transform="translate(-12473.5 -5427.4)"/>
      <path class="cls-1" d="M12476.8,5430.2h0.2l0.2-.2h-0.4Z" transform="translate(-12473.5 -5427.4)"/>
      <path class="cls-1" d="M12717.5,5494.5h0C12717.7,5494.2,12717.6,5494.3,12717.5,5494.5Z" transform="translate(-12473.5 -5427.4)"/>
      <path class="cls-1" d="M12635.3,5538.2c0.7,1.1-1.9-.6-0.8.9C12634.5,5538.8,12636.3,5539.3,12635.3,5538.2Z" transform="translate(-12473.5 -5427.4)"/>
      <path class="cls-1" d="M12804.9,5438.8l-0.4.3Z" transform="translate(-12473.5 -5427.4)"/>
      <path class="cls-1" d="M12634.5,5539.1h0.1v-0.2Z" transform="translate(-12473.5 -5427.4)"/>
      <path class="cls-1" d="M12696.3,5509.7h0Z" transform="translate(-12473.5 -5427.4)"/>
      <path class="cls-1" d="M12712.7,5499.2l-0.4.2Z" transform="translate(-12473.5 -5427.4)"/>
      <path class="cls-1" d="M12688.5,5516.1a1.4,1.4,0,0,0-.6.4h0.1A0.7,0.7,0,0,1,12688.5,5516.1Z" transform="translate(-12473.5 -5427.4)"/>
      <path class="cls-1" d="M12679.9,5522.1h0.2l0.3-.2Z" transform="translate(-12473.5 -5427.4)"/>
      <path class="cls-1" d="M12513.1,5458.6a1.7,1.7,0,0,1-.1-0.7C12512.9,5458.4,12511.6,5457.6,12513.1,5458.6Z" transform="translate(-12473.5 -5427.4)"/>
      <path class="cls-1" d="M12805,5438.4a0.4,0.4,0,0,1-.1.4l0.3-.2Z" transform="translate(-12473.5 -5427.4)"/>
      <path class="cls-1" d="M12690.7,5520l-1.4.9Z" transform="translate(-12473.5 -5427.4)"/>
      <path class="cls-1" d="M12574.8,5501.6l-0.4-.2Z" transform="translate(-12473.5 -5427.4)"/>
      <path class="cls-1" d="M12685.3,5523.7l-1,.2v0.2Z" transform="translate(-12473.5 -5427.4)"/>
      <path class="cls-1" d="M12513,5457.9h0Z" transform="translate(-12473.5 -5427.4)"/>
      <path class="cls-1" d="M12503.3,5452.8c1.3,0.9,1-.2,1.5-0.3s0.4,0.9.7,1.6,2.2,0.5,2.9,1,0.1,0.3-.2.3c1.4,0.2,3.1,2.1,4.7,2.3a0.5,0.5,0,0,1,.1.3,1.4,1.4,0,0,1,.4-1c0.6,0.4,1.3.4,1.3,0.9a0.8,0.8,0,0,0-.7-0.1l0.7,0.3c0.2,1-1-.4-1.3,0,1.3,0.6,3,1.1,3.8,1.9s-2.3-1.3-1.4,0l-1.3-1.2c0.5,1.6-.8-0.7-0.5,1s2.3,1.2,4,2.6,0.2-.6.8-0.6c3,1.3,1.1,2.8,3.6,3.5,0.8,0,1.4-.6,2.6.7l-0.9.3c1.8,1.3,1.7-.2,3.2,1.6-0.5,0-1.6-.8-1.3-0.5s1.1,0.2,2.1.9l-0.2.7c2,1.2,4.4,2.3,6.6,3.7-0.2.1-.7,0-0.3,0.5a45.9,45.9,0,0,1,8,6.2l1.3,0.2c0.2,0.2.3,0.5,0,.4s0.3-.3.9-0.1,0.6,0.8.1,0.7c2.1,0.8,5.7,2.7,7.2,4.5h-0.5c1.3,1.2,2.3.2,3.4,1.6h-0.3c3,2.4,6.8,4.4,8.7,6.8,0.9-.4,2.9,2.5,3.8,1.7,1.5,1.7.8,1.6,3.2,3.6,0.6,0.5,1.4.1,2.3,0.6l-0.3.5,1.5,0.3,0.2,1,0.9,0.4a0.8,0.8,0,0,1-.4-0.8c1.4,0.6,2.8,2.4,2.6,2.7l3.2,1.6a2.1,2.1,0,0,1-1.2-.3c1.9,0.6-.1.7,1.7,1.3-0.1-.2.3-0.2,0.4-0.3a11,11,0,0,0,3.4,2.6l-0.5.2c2.1,1.6,4.7,3,7.1,4.7-0.8-.8-0.1-1.2.6-0.8v0.7c0.7,0-.6-0.7.6-0.5s0.2,1-.5.8l1.2,0.6a1.2,1.2,0,0,1-.6.3c0.7,0,1.5,1.9,2.6,1.7v0.2c2.4,1.7,3.6,2.3,5.6,3.6,0.4-.4,1.1.2,1.9,0.2a44.1,44.1,0,0,0,4.5,3.8c1.4,0.6.6-.1,1.4,0s1.6,1.7.5,1.3a50.8,50.8,0,0,0,5.6,3.3c-0.2-.4-0.4-0.7-0.2-0.7s1,0.9.8,1.1h-0.2c3.4,1.4,6,6,9,6.8h-0.2l2.8,1.3c1.1,0.9-.9-0.2-0.2.7,3.1,1.1,4.1,3,6.6,4.1,0.8,2.4,6.1,4.1,7.8,6.5v-0.4c0.8,0.1.6,0.7,1,1s-0.5-.7,0-0.6l0.7,0.4,1,0.7,2.3,1.6,2.7-1.9,1-.7,0.8-.5,3.4-2,6.7-4c1.9-1.2,0-2.3,2.9-3.2l-0.3,1c3.3-3.3,7.7-5.4,11.1-8.5a1,1,0,0,1-.4.7c1.1-.2,2.9-2,2.7-2.3s0.3,0.2.8,0.1,1.6-1.9,2.3-1.8-0.1.3-.3,0.4,2.4-1.6,1.6-1.7c1.5-.8,2.5-2.1,3.8-2.6s2.5-1.4,2.3-2.3c0.4,0.8,2.9-1.1,3.5-2.1s0.9-.3.8,0.3,1.8-1.5,1.4-1.7c2.5-.4,3.2-3.3,5-2.9,2.7-2.5,5.3-4.7,7.8-6.7,0.4,0.8-2.9,2.1-2.3,2.8,2.3-2.1,3.3-3.7,6-5.3,0.7-.4-0.1.6-0.3,0.9,2.3-2.1,5-3.4,6.9-5.3a1.1,1.1,0,0,1-.3.5c0.4-.3,1.1-0.6.8-0.9l-0.4.4c-1.1,0,1.1-2.3,1-2.6-0.1,1.5,2.4-1.3,2,.7,0.2-.3.5-0.7,0.3-0.9s0.7-.2.4,0.4c1.5-1.3.7-1.3,2.1-2.3a1.9,1.9,0,0,1-.2.7,5.7,5.7,0,0,1,2.3-2.4c0,0.1.2,0.2-.1,0.4,2.1-1.5,3-3.3,5.5-4.6-0.2,1.2.9-.3,1.5,0.2l1.1-1h-0.7c1.1-.7,1.7-1.9,2.8-2.3l-0.6.8,1.9-1.5-1.3.6c0.9-1.1-.7-0.7.9-1.5a9.4,9.4,0,0,1,1.9-.8h0a4,4,0,0,1,1.7-1.6c0.3,0.1.3,0.8,0.5,0.8s2.4-1.9,2.7-2.9a0.5,0.5,0,0,0,.2.6l0.2-.7c0.6-.2.7-0.2,0.8,0.1s-1-.4,1-1.4a1.8,1.8,0,0,1-.3.4c1.9-1.1,3.3-2.7,5.1-3.6s-1.3,1.2-.4,1.3c2.3-1.8,4.4-4.2,6.8-5.6l-0.5.2c-0.3-1.1,2-.8,2.9-2s0,0.7,0,.6c1.7-1,3.1-2.5,5.3-4.4v0.4c1.1-.5,2.5-1.6,3.6-2.2s0.7-.8.2-0.9c4-.9,5.4-4.8,8.9-5.7-0.3.2-.6,0.7-0.4,0.6l2.2-1.8c-0.4-.2-0.5,0-1.2,0a3.6,3.6,0,0,1,1.3-1.5c-0.9,1,.4.6,1,0.5a1.5,1.5,0,0,1-.2-0.4c1.7-.2-0.3-0.9,1.7-1.6v0.3a9,9,0,0,1,1.7-1.6c0.6,0.2-.5.7-0.3,1.1s1.3-2.1,2.5-2.3l-1.2,1.2a3.7,3.7,0,0,0,2.1-.7h-0.1l1.8-.9h-0.5c0.4-2,2.3-1.9,3.3-3.8-1.1,1.8,0,.6.3,1.2s1.2-.4,1.2-0.2,1.5-.6,2.1-1.9,0.8-.5.9,0-0.4-.1-0.5-0.4,4-1.8,5.7-4.1,1.6-2.4,3.2-3.9-0.1.9-.1,0.9a6.4,6.4,0,0,0,2.6-1.8c-0.1.3,0.2,0.3,0.6,0.2s0.1-.9,1.2-1.3a3.1,3.1,0,0,1-.3,1.1c0.7-.7,1.4-1.6,2.1-2.4s-0.2.8-.4,1.2,2.4-2,2.4-2.7l-0.7.3c0.3-.3.4,0.3,0.2,0.5a1.1,1.1,0,0,1-1.5.6l0.6-.5c-1.3-.5-2.4,1.9-3.7,2.7v-1l-0.9,1.5c-0.4,0-.9-0.2-0.3-0.8-1.1.3-.6,0.8-1.7,1s-0.1-.1-0.1-0.1l-0.7.8c0.1-.3-0.5-0.4.1-0.7-1.9.7-2.2,2.3-3.1,2.2h0.1c-2,1.8.1,0.6-1.1,2.4l-2-.5v0.7c-0.2.1-.7,0.4-0.8,0.2s0.3,0.1,0,.8-2.8,2.3-3.6,1.7,1.2-.4.3,0.6c-0.9-.6-1.2,1.1-2.5,1.4s1.1-1.1-.2-0.8-2,1.2-2.8,1.9-1.6,1.5-2.9,2.7-2.9,1.5-4.3,2.2h0c0.2,0.8-1.3,1.6-2.2,2.4a0.9,0.9,0,0,1,.3-1.2l-0.9.6a2.3,2.3,0,0,1-.8,1.1v-0.6c-1.2.9-2.1,2.3-3.9,3.1,0.2,0.5,2.1.3,0.6,1.7a0.6,0.6,0,0,1-.2-0.9,1.9,1.9,0,0,1-.7.6l0.4-.8c-0.8.3-.2,0.6-0.8,0.9s-0.6.1-.7-0.2a2.2,2.2,0,0,0,.7-0.5,4.3,4.3,0,0,1-2,.7c0.2,0.1.3,0.4-.1,0.8s-0.7-.1-1.5.2-1.1.7-.8,1.2a0.8,0.8,0,0,1-.8,0c-0.5.7-2.9,2.1-1.8,2.1h0.1c-1.7,1.9-4.5,2.7-6.4,4.4v-0.2c-1.1,1-2.7,2-3.3,3s-1.1.3-1,0a6,6,0,0,1-2.4,1.7c0.8-.9-0.5,0,0.8-0.9-1.3.7-1.8,0.6-2.8,2,0.2-.7-1.3.1-1.8,0.7l1.1-.3-1.8,1.3V5476c-3,1.1-3.7,4.3-6.4,4.5-0.4.8,1.5-.7,1.3,0.2s-3,.8-3.3,1-0.9,1.8-2.7,2.8c0.3,0,.9.4-0.2,1.5s-2,.2-1.4-0.5,0.4-.2.5-0.2,0.8-.8.2-0.6v0.3c-0.7.2-2.3,1.3-2.1,0.8s-0.1.6,0.6,0.2c-1.7.8-2.3,1.6-4,2.5,0.3-.1.7,0,0.5,0.2-2.4,1.3-.7,1.1-2.2,2.2s-0.2-.9-1.5.4-0.6-.4-0.3-0.8c-1.1,1.3-2.8,1.6-3.6,2l0.6-.7-1.1.9h0.7a1.2,1.2,0,0,1-.9.3c-0.3.6,0.8,0.4,0.2,1.4s-1.6,1.4-2.2,1.1c1.9-1.1-.6-0.4.9-1.5l-1.1.7c-0.1,0,0-.1.1-0.3-2,.7-0.4,1.1-2.2,2.4,0-.4-0.8-0.3-1,0s0.7,0.2.2,0.9-1.1,1-1.7,1.4l0.8-.4c0,0.5-.6.8-1.4,1.5s0.6-.7.3-0.6-2.4.9-3.4,2.1-0.4-.5-1-0.3-1.8.6-3,2c0.7,0.1.7,0-.1,1l2.2-1.9-1.1,1.6c0.7-.5,1.4-1.3,1.8-1.5s-0.5.7,0.1,0.8c-1.4.1-1.7,1.7-3.1,2.1l-0.6-1c-2,.8-2.7,2.6-5.1,3.9l0.8-.3c0,0.6-1.3,1-2,1.7s-0.7-.2-1.1-0.2-1.6,1.1-1.4,1.9l-1.3.3c-1.9,1.1-1.4,2.4-3.2,3.5,0.3-.7-0.7-0.4.3-1.5-0.6.4-1.1,0.7-1,.9s-1.3,1.6-2,1.6a1.5,1.5,0,0,1-.7,1.1,0.2,0.2,0,0,1-.1-0.2c0.1,0.2-.9.9,0,0.9-2.5.2-4.9,3.5-7.1,3.8l-3.8,3c0-.1-0.1-0.2.1-0.3-1.8.8-.3,1.6-2.4,2.5s0.8-.9,0-0.7-2.1,1.7-3.7,1.9l0.2-.3c-1.2.3-2,2-3.5,3a0.2,0.2,0,0,0-.1-0.2c-0.7,1.3-2.5,2.8-3.8,4,0.2-.7.5-0.7-0.1-0.9s0.7,0.5-.6,1.6-1.7.5-2.1,0.2l1.2-.9c-1-.1-1.6,1.1-2.3,1.5V5536c-1.8,1.4-1.4,2.1-3.5,3.4h0.3c-0.7,1.4-1.2.3-1.9,1.5l-0.8-.4a43.2,43.2,0,0,1-3.3,3.4,18.7,18.7,0,0,1,2.5-3.3c-0.7.5-2.4,1.8-2.6,2.3a2.3,2.3,0,0,1,.9-0.8,8.4,8.4,0,0,1-3,3.2c-0.2-.5-0.7-0.4-1.3-0.1h-0.4l-0.3.2-0.6.3a1.2,1.2,0,0,1-.6-1.1c-2.9-1.3-4.9-3.7-7.9-5.7,0.4,1.7-.9-0.6-1.4.6a2.4,2.4,0,0,1-1-.7l-1.7-2.1c-0.3-.6.8,0.2,0.9,0-1.5-1.1-.3-0.9-1.2-1.8s-0.9.1-1.7-.6l0.9,1.3c-2.5-.9-1.2-2.1-3.7-3.1l0.9,0.2c-1.2-.6-4-2.8-5.7-2.8-0.1-.3-0.2-0.7.4-0.4-2.5-1.9-6.4-3.2-8.1-5.1h0.4c-0.5-.3-1.2-0.1-1.6-0.8s0.4-.1.2-0.3a5.5,5.5,0,0,1-2.1-1.1h0.7c-2.3-2.1-4.4-2.1-6.6-3.4,0.5-.7-1.3-2.4-2.3-3.2h0.1c-2.9-2.2-5.5-2.9-8.4-4.6-1.2-2-5.5-4.4-8-6.7,0.3,0.4-.5.5-1,0.2s-2.1-.7-1.6-1.3l0.2,0.2c0-1-1.5-1.7-2.5-2.5l-0.8.7c-1.8-3.1-7.4-4.5-8.1-6.6-0.8-.2-1.6-0.8-2.4-1l0.4-.4a42.2,42.2,0,0,0-4.9-3.5h0.7c-1.2-.9-2.5.2-3.7-0.6v-0.9c-2.2-1.5-4-3.7-6.6-4.6a0.5,0.5,0,0,1,.7,0c-1-.7-3.7-3.3-4-2,0.4-.6-2.2-1.6-3.6-2.2l0.5-.3a5.2,5.2,0,0,1-3.1-.8c-0.3-.3,0-0.6.3-0.1s-1.2-.2-2.3-1.3h0.7a2.5,2.5,0,0,0-2-.7c-0.8-.3-2.1-1.6-2-2.1a1.9,1.9,0,0,1-1.8-.5c0-.2.3-0.1,0.5-0.1-1.7-1.6-3.2-1.4-4.2-2.8a0.4,0.4,0,0,0,0-.4l2.6,1.9c0.3-.4-0.9-1.3.5-1.3-1.2-.4-3.4-0.8-4.4-1.9a0.7,0.7,0,0,1-.1-0.3h0.2l-0.8-.5-0.9-.8c0.1-.4-1.3-1.2-1.9-1.6s-1-.1-0.5.8l0.6,0.3h0.2l1.5,1a2.3,2.3,0,0,1-1.8-1l-1.4.2c-0.4-1.2-1.7-2.7-1.7-3.2-2-1-4.5-2.9-6.3-2.8a0.9,0.9,0,0,1-.5-0.9,4.3,4.3,0,0,0,1,.4c-1.2-.5-3.2-2.1-3.9-1.7-1.1-1.2,1.1,0-.8-1.2h0.4c-2.9-3.5-6.9-2.5-10-6.6a0.9,0.9,0,0,1,.3.5c-4.2-3.7-9.7-6-13.6-10-1.2-1.1-1.6-.8-2.5-1v-0.7l-1.7-.4c-2.2-.9-2.4-3.5-5.4-4.4v0.5c-0.8-.7-2.9-1.7-2.4-2a0.6,0.6,0,0,1-.7-0.3l0.2-.3-2.4-1c-1.5-1.3,1-.9-1.4-2.6s-3-1-2.8-.6a1.3,1.3,0,0,1,.6,1.1l-0.9-.4c-0.7.7-1.8,1-.2,2.9l1.7,0.5,0.2,0.7-1.2-.8a1.8,1.8,0,0,0,1.7.9,1.1,1.1,0,0,0,.3.8l1.9,0.2c0,0.4-1,.2-0.2,1s-0.1-1.1,1.1-.6,0,1,1,1.2-0.3.3-.6,0.2,1.9,1.2,2.5,1,2.4,1.5,1.8,2.2a5.8,5.8,0,0,1,2.3.7c-1.8.1,2.3,1.7,1.4,2.4,1.4-.2,3.3,1.8,5.2,2.5a0.6,0.6,0,0,1-.5-0.1,7.5,7.5,0,0,1,1.3,1.6c0.6-.6,2,0.2,3,0.3s-1.2.3-1.3,1.1,2.2,0.8,2.1.1c0.5,0.9.6,0.7,0.6,1.5,0.7-.7.8,0.4,1.9,0.4s-0.2,1,1.2,1.6S12503.3,5452.8,12503.3,5452.8Zm31.4,19.8h0l-0.6-.4Zm2.6,1.8-1.1-.8c0-.2.2-0.3,0.5-0.1S12536.9,5473.9,12537.2,5474.3Zm-3.2-7a0.6,0.6,0,0,1,.5.5l-0.7-.4h0.2Z" transform="translate(-12473.5 -5427.4)"/>
      <path class="cls-1" d="M12532.9,5467.5h-0.2l0.2,0.3h0Z" transform="translate(-12473.5 -5427.4)"/>
      <path class="cls-1" d="M12762.9,5465.1h0Z" transform="translate(-12473.5 -5427.4)"/>
      <polygon class="cls-1" points="98.3 72.5 98.4 72.3 98.1 72.3 98.3 72.5"/>
      <path class="cls-1" d="M12778.1,5456.9h0Z" transform="translate(-12473.5 -5427.4)"/>
      <path class="cls-1" d="M12784.2,5452.7l1-.4Z" transform="translate(-12473.5 -5427.4)"/>
      <path class="cls-1" d="M12789,5449.7a0.7,0.7,0,0,0,0-.3h0v0.3Z" transform="translate(-12473.5 -5427.4)"/>
      <path class="cls-1" d="M12715.1,5502.1h0Z" transform="translate(-12473.5 -5427.4)"/>
      <path class="cls-1" d="M12736.5,5485.6l-0.6.7C12736.4,5486.1,12736.7,5485.8,12736.5,5485.6Z" transform="translate(-12473.5 -5427.4)"/>
      <path class="cls-1" d="M12690.9,5519.9h0Z" transform="translate(-12473.5 -5427.4)"/>
      <path class="cls-1" d="M12734.9,5487a2.8,2.8,0,0,0,1-.7A4.3,4.3,0,0,0,12734.9,5487Z" transform="translate(-12473.5 -5427.4)"/>
      <path class="cls-1" d="M12809.4,5435.8h0.2Z" transform="translate(-12473.5 -5427.4)"/>
      <path class="cls-1" d="M12809.6,5435.6l0.2-.2Z" transform="translate(-12473.5 -5427.4)"/>
      <path class="cls-1" d="M12810.3,5434.9l-0.4.5A0.9,0.9,0,0,0,12810.3,5434.9Z" transform="translate(-12473.5 -5427.4)"/>
      <path class="cls-1" d="M12803.1,5439.9v0.2A0.3,0.3,0,0,0,12803.1,5439.9Z" transform="translate(-12473.5 -5427.4)"/>
      <path class="cls-1" d="M12801.2,5441.3a7.7,7.7,0,0,0,1.9-1v-0.2C12803,5440.6,12801.5,5440.7,12801.2,5441.3Z" transform="translate(-12473.5 -5427.4)"/>
      <path class="cls-1" d="M12792,5444.7l1.7-1c-0.4,0-.9,0-0.2-0.5C12791,5444,12794.1,5443.3,12792,5444.7Z" transform="translate(-12473.5 -5427.4)"/>
      <path class="cls-1" d="M12786.9,5447.8c0.8-.7-0.2-0.3-0.2-0.4S12786.2,5448.1,12786.9,5447.8Z" transform="translate(-12473.5 -5427.4)"/>
      <path class="cls-1" d="M12751.6,5472.4l-0.2-.5C12750.8,5472.5,12751.5,5472.1,12751.6,5472.4Z" transform="translate(-12473.5 -5427.4)"/>
      <polygon class="cls-1" points="272.9 51.9 273.7 51.7 273.7 51.1 272.9 51.9"/>
      <polygon class="cls-1" points="266.8 51.7 267 51.5 266.1 52.4 266.8 51.7"/>
      <path class="cls-1" d="M12681.2,5520.6l0.6,0.4C12682.1,5520.6,12681.8,5519.9,12681.2,5520.6Z" transform="translate(-12473.5 -5427.4)"/>
      <path class="cls-1" d="M12656,5539a1.7,1.7,0,0,0-1.6.8A12.3,12.3,0,0,0,12656,5539Z" transform="translate(-12473.5 -5427.4)"/>
      <polygon class="cls-1" points="108 73 108.6 73.2 107.5 72.7 108 73"/>
    </g>
    <g>
      <path class="cls-1" d="M12612.3,5525.3c0-.2-0.3-0.5-0.5-0.2l0.3,0.6Z" transform="translate(-12473.5 -5427.4)"/>
      <path class="cls-1" d="M12610.1,5525.6a1.5,1.5,0,0,0,.6,1.4,13.2,13.2,0,0,0-.2-1.3,0.4,0.4,0,0,1,.6.1c0-.2.4-0.2,0.2-0.6a0.7,0.7,0,0,0-1,.7A0.6,0.6,0,0,1,12610.1,5525.6Z" transform="translate(-12473.5 -5427.4)"/>
      <path class="cls-1" d="M12590.4,5541.5h0Z" transform="translate(-12473.5 -5427.4)"/>
      <path class="cls-1" d="M12578.3,5551.6a0.2,0.2,0,0,0,0-.2C12578.3,5551.5,12578.2,5551.6,12578.3,5551.6Z" transform="translate(-12473.5 -5427.4)"/>
      <path class="cls-1" d="M12575.8,5552.8h0Z" transform="translate(-12473.5 -5427.4)"/>
      <path class="cls-1" d="M12590.4,5541.5h-0.5C12590,5541.8,12590.2,5541.6,12590.4,5541.5Z" transform="translate(-12473.5 -5427.4)"/>
      <path class="cls-1" d="M12608.6,5529.1a0.5,0.5,0,0,0,.1-0.3v0.2h0.1Z" transform="translate(-12473.5 -5427.4)"/>
      <path class="cls-1" d="M12595.2,5536.5h0.1v0.1Z" transform="translate(-12473.5 -5427.4)"/>
      <path class="cls-1" d="M12599.2,5532.9a1.5,1.5,0,0,0,.4.7,0.5,0.5,0,0,1-.1-0.5Z" transform="translate(-12473.5 -5427.4)"/>
      <path class="cls-1" d="M12606.2,5528.1v0Z" transform="translate(-12473.5 -5427.4)"/>
      <path class="cls-1" d="M12592.3,5538.9h0Z" transform="translate(-12473.5 -5427.4)"/>
      <path class="cls-1" d="M12483.1,5640.1h0Z" transform="translate(-12473.5 -5427.4)"/>
      <path class="cls-1" d="M12476.7,5642.1h0l-0.2-.2v0.3Z" transform="translate(-12473.5 -5427.4)"/>
      <path class="cls-1" d="M12571.6,5555.5h0C12571.7,5555.4,12571.7,5555.4,12571.6,5555.5Z" transform="translate(-12473.5 -5427.4)"/>
      <path class="cls-1" d="M12538,5585.5c0.7,0-.2,1,0.7.9S12538.7,5585.3,12538,5585.5Z" transform="translate(-12473.5 -5427.4)"/>
      <path class="cls-1" d="M12608.4,5529.1h0Z" transform="translate(-12473.5 -5427.4)"/>
      <path class="cls-1" d="M12538.7,5586.5h0Z" transform="translate(-12473.5 -5427.4)"/>
      <path class="cls-1" d="M12563.3,5563.2h0Z" transform="translate(-12473.5 -5427.4)"/>
      <path class="cls-1" d="M12570.2,5558.3h0Z" transform="translate(-12473.5 -5427.4)"/>
      <path class="cls-1" d="M12560.6,5566.7a0.3,0.3,0,0,0-.3.2h0.1A0.2,0.2,0,0,1,12560.6,5566.7Z" transform="translate(-12473.5 -5427.4)"/>
      <path class="cls-1" d="M12557.1,5569.7h0Z" transform="translate(-12473.5 -5427.4)"/>
      <path class="cls-1" d="M12493.4,5630.8l-0.5-.2C12493.2,5630.8,12492.8,5631.4,12493.4,5630.8Z" transform="translate(-12473.5 -5427.4)"/>
      <path class="cls-1" d="M12608.4,5528.8a0.3,0.3,0,0,1,.1.3h-0.1Z" transform="translate(-12473.5 -5427.4)"/>
      <path class="cls-1" d="M12563.3,5570.1l-0.6.4Z" transform="translate(-12473.5 -5427.4)"/>
      <path class="cls-1" d="M12517.9,5609.2v0Z" transform="translate(-12473.5 -5427.4)"/>
      <path class="cls-1" d="M12561.2,5572h-0.6v0.2h0.5Z" transform="translate(-12473.5 -5427.4)"/>
      <path class="cls-1" d="M12492.9,5630.6h0Z" transform="translate(-12473.5 -5427.4)"/>
      <path class="cls-1" d="M12490.2,5634.7c0.5-.4-0.2-0.8-0.4-1.2s0.6,0.2,1.1.3,0.1-1.3.4-1.5a0.3,0.3,0,0,1,.2.2c0-.8,1.2-1.1,1.2-2.1h0.2l-0.7-.7c0.2-.2.1-0.7,0.5-0.4s0,0.3,0,.4v-0.4c0.7,0.3-.2.5,0.2,0.9s0.5-1.5,1-1.7-0.7.9,0.2,0.9l-0.7.3c1.1,0.4-.4.2,0.8,0.8s0.6-1,1.5-1.5-0.4-.4-0.5-0.8,2,0.6,2.1-.8-0.6-1.2.3-1.4l0.3,0.7c0.8-.6-0.3-1.2.8-1.5a5.8,5.8,0,0,1-.2.7c0.9,0,.1-0.6.4-1l0.5,0.4c0.7-.8,1.2-1.9,2-2.7s0.1,0.5.4,0.5a8.9,8.9,0,0,1,3.6-2.5v-0.8a0.2,0.2,0,0,1,.3.2c0.5-.2-0.2-0.3-0.2-0.6a0.3,0.3,0,0,1,.5.2c0.4-1,1.3-2.6,2.5-2.8v0.3c0.7-.3-0.1-1.5.8-1.5v0.2c1.4-.9,2.5-2.5,4-2.7-0.4-.8,1.5-0.8.8-1.8,1.1-.2,1,0.1,2.3-0.4s-0.1-.9.2-1.3l0.4,0.5v-0.9l0.7,0.3,0.2-.4a0.5,0.5,0,0,1-.5-0.1,1.4,1.4,0,0,1,1.7-.5l0.8-1.4a0.9,0.9,0,0,1-.1.7c0.2-1,.5.4,0.7-0.5a0.7,0.7,0,0,1-.3-0.4,2.2,2.2,0,0,0,1.5-1.1l0.2,0.4c0.9-.7,1.7-1.7,2.7-2.6a0.6,0.6,0,0,1-.6-0.8l0.5,0.4c-0.1-.5-0.5.1-0.4-0.6s0.7,0.3.7,0.7l0.3-.6a1.9,1.9,0,0,1,.3.5c-0.1-.5,1.2-0.2,1-0.9h0.2c1-.8,1.3-1.4,2-2.1s0-.6,0-1.2a8.9,8.9,0,0,0,2.3-1.2c0.3-.6-0.2-0.5-0.2-0.9s1-.3.9,0.3a10,10,0,0,0,1.8-2.3c-0.3-.1-0.4,0-0.5-0.2a0.5,0.5,0,0,1,.7,0h0c0.7-1.6,3.7-1.3,4-2.9h0l0.6-1.3c0.5-.3,0,0.5.5,0.5,0.5-1.6,1.8-1.4,2.2-2.6,1.7,0.5,2.3-2.2,3.9-2.2l-0.3-.2c0-.5.4-0.1,0.6-0.2s-0.5,0-.4-0.3c1.7-2.1,4.5-3.2,6.7-4.8s-0.8-1.8.7-1.9l0.2,0.7c1-1.9,3.1-2.7,4.1-4.5a0.5,0.5,0,0,1,0,.5,1.1,1.1,0,0,0,.9-1.3c0.3-.2.3,0.2,0.6,0.2s0.4-1.1.9-.9,0,0.2,0,.3,1-.8.4-1,0.9-1.1,1.6-1.3,1.1-.6.7-1.3,1.5-.3,1.5-0.9,0.5-.1.6,0.4,0.6-.8.3-1.1c1.4,0.2.9-2,2.2-1.3a30.2,30.2,0,0,1,2.7-3.7c0.6,0.7-1.1,1.1-.5,1.8,0.8-1.2.8-2.3,2-3s0.1,0.4.1,0.6,2-1.7,2.6-2.8a0.5,0.5,0,0,1,0,.4c0.2-.2.5-0.3,0.2-0.6v0.2c-0.7-.2-0.1-1.6-0.3-1.8s1.1-.6,1.6,1a0.5,0.5,0,0,0-.1-0.6c0.2-.1.4,0,0.4,0.4s0-.9.6-1.4a1.9,1.9,0,0,1,.2.5,1.4,1.4,0,0,1,.7-1.4c0,0.1.2,0.2,0.1,0.3s0.7-2,1.9-2.5,0.5-.1,1,0.5l0.3-.6h-0.4c0.4-.4.5-1.1,1-1.3v0.5l0.7-.8-0.6.2c0.2-.7-0.7-0.7,0-1a2.3,2.3,0,0,1,1-.2h0a0.9,0.9,0,0,1,.6-0.9,8.2,8.2,0,0,1,.6.8c-0.2-.7.9-1,0.7-1.8a0.9,0.9,0,0,0,.3.5l-0.2-.5a0.4,0.4,0,0,1,.6.2c0.7-.5-0.8-0.5.2-0.9a0.8,0.8,0,0,1,0,.3c0.9-.5,1.2-1.5,2-1.8s-0.5.6,0.2,0.9,1.4-2.4,2.4-3.1h-0.2c-0.6-.9,1-0.2,1.2-1a0.6,0.6,0,0,0,.2.5c0.7-.4,1.1-1.3,1.9-2.4v0.3a9.3,9.3,0,0,0,1.6-1c-0.1-.3.2-0.5-0.2-0.7,2.3,0.1,1.8-2.7,3.8-2.7-0.1.1-.2,0.5-0.1,0.4l0.8-1a1.1,1.1,0,0,0-.7-0.2,1,1,0,0,1,.3-0.9c-0.2.6,0.5,0.6,0.8,0.6l-0.3-.3c1,0.2-.5-0.8.5-0.9v0.2a2,2,0,0,1,.5-0.9c0.5,0.3-.1.4,0.2,0.8s0.1-1.4.8-1.3-0.3.5-.4,0.7a1,1,0,0,0,1.1-.2h0l0.8-.3h-0.3c-0.4-1.5.8-1,.8-2.3,0,1.2.2,0.5,0.6,1s0.6-.1.7,0.1,0.8-.2.7-1.1,0.3-.3.6,0.2-0.3-.2-0.4-0.4,2-.6,2.2-2.1,0.2-1.6.7-2.4,0.3,0.7.3,0.7a1.3,1.3,0,0,0,1-.9,0.5,0.5,0,0,0,.5.3c0.3-.3-0.3-0.7.3-0.8a2.9,2.9,0,0,1,.2.8c0.2-.4.3-1,0.5-1.4a0.9,0.9,0,0,1,.2.8c0.3-.5.8-1.1,0.6-1.6h-0.4c0.1-.1.4,0.3,0.3,0.4s-0.6.3-.8,0.2l0.2-.3c-1-.6-0.9,1-1.4,1.4l-0.3-.8v1c-0.3-.1-0.6-0.4-0.5-0.7s-0.1.5-.7,0.4h-0.1l-0.2.5c0-.2-0.4-0.4-0.2-0.5s-0.6,1.4-1.3,1.1h0c-0.7,1,.3.5,0.1,1.6l-1.4-.7,0.3,0.5a0.3,0.3,0,0,1-.4,0c-0.1.6,0.2,0.1,0.3,0.6s-1,1.2-1.8.6,0.6-.1.4,0.6-0.4.6-1.1,0.6,0.3-.6-0.4-0.6-0.9.5-1.1,0.9-0.5.9-.9,1.5-1.3.6-2,.9h-0.1c0.4,0.6-.2,1-0.5,1.5a0.9,0.9,0,0,1-.2-0.9l-0.4.3a0.8,0.8,0,0,1-.1.7l-0.3-.5c-0.5.5-.6,1.4-1.4,1.6s1.4,0.6,1,1.5a0.9,0.9,0,0,1-.4-0.8,0.4,0.4,0,0,1-.2.4v-0.6c-0.4.1,0.1,0.4-.2,0.6s-0.4-.1-0.5-0.3,0.3-.1.3-0.2a1.3,1.3,0,0,1-1.1.1,0.5,0.5,0,0,1,.2.6c-0.5.5-.5-0.2-0.9-0.1s-0.4.4-.1,0.8a0.5,0.5,0,0,1-.5-0.1c-0.1.4-1.1,1.1-.4,1.3h0.1c-0.4,1.2-1.9,1.3-2.6,2.2h-0.1a5.5,5.5,0,0,0-1.1,1.7,0.5,0.5,0,0,1-.7-0.2,1.2,1.2,0,0,1-.9.9c0.2-.6-0.3-0.1.2-0.5s-0.9.2-1.1,1-0.8-.2-0.9.2h0.6a2.6,2.6,0,0,1-.7.6l-0.3-.6c-1.5.3-.9,2.6-2.6,2.3,0,0.6.8-.2,0.9,0.4s-1.6,0-1.8.2,0.1,1.2-.8,1.6a0.8,0.8,0,0,1,.4,1.1,0.7,0.7,0,0,1-1.1-.7h0.2c0.1-.2.2-0.4-0.1-0.5v0.2c-0.4,0-1,.6-1.1.2s0.1,0.4.4,0.3-0.9.8-1.7,1.2,0.5,0.1.4,0.2-0.1.7-.6,1.3-0.4-.8-0.9,0-0.5-.4-0.5-0.7-1.2.7-1.6,0.9l0.2-.4a1.2,1.2,0,0,1-.4.5l0.5,0.2c-0.2.1-.4,0.2-0.5,0.1s0.7,0.5.6,1.1-0.5.8-1,.4-0.5-.4,0-1a0.7,0.7,0,0,1-.4.4,0.1,0.1,0,0,1,0-.2c-1.1.2,0.2,0.8-.6,1.4a0.4,0.4,0,0,0-.7-0.2c0.3-.2.5,0.3,0.4,0.8s-0.4.6-.6,0.8h0.4a0.9,0.9,0,0,1-.4.9c-0.2-.2.2-0.4,0-0.4s-1.2.2-1.4,1-0.5-.5-0.8-0.4-0.9.2-1.2,1,0.4,0.1.3,0.8l0.7-1.1-0.2,1.1a9,9,0,0,1,.6-0.8c0,0.5-.1.4,0.3,0.6s-0.5,1-1.3,1l-0.8-.9c-1,.2-0.8,1.5-1.9,2.1h0.4c0.2,0.5-.5.5-0.7,0.9a1.1,1.1,0,0,0-.8-0.3c0.2,0.2-.7.6-0.2,1.2h-0.7c-0.9.5-.1,1.6-0.9,2.1s-0.6-.4-0.3-1.1-0.5.3-.3,0.5-0.3,1-.7.9,0.3,0.6,0,.8h-0.1c0.1,0.1-.2.6,0.3,0.7-1.5-.3-1.9,1.8-3.2,1.6l-1.4,1.6c0-.1-0.1-0.1,0-0.2s0.4,1.2-.6,1.5,0.2-.6-0.2-0.6-0.7.9-1.7,0.7v-0.2c-0.7,0-.6,1.2-1.2,1.6v-0.2a4.3,4.3,0,0,1-1.1,2.4c-0.2-.5.1-0.4-0.4-0.7s0.6,0.6.2,1.1a2.1,2.1,0,0,1-1.3-.3l0.5-.5c-0.7-.3-0.6.6-1,0.7l-0.2-.3c-0.7.7-.2,1.3-1,2h0.2c0.1,1-.7,0-0.7.8l-0.7-.5a10.2,10.2,0,0,1-.9,2,5.8,5.8,0,0,1,.5-2.1,2,2,0,0,0-.8,1.3,0.5,0.5,0,0,1,.3-0.4,2.2,2.2,0,0,1-.8,1.9c-0.9-1.2-1.8,1-3,.5-0.6,1.3-2.2,1.6-3.3,2.7,1.2,0.5-.3.3,0.6,1.2s-0.3.4-.4,0.3l-1.3.2c-0.4-.1.1-0.4-0.1-0.6s-0.6-.2-1.2-0.1,0.2,0.7-.3.8h0.9c-0.4,1.2-1.4-.1-1.8,1.1v-0.5c-0.3.6-1.6,1.4-1.4,2.5s-0.5-.2-0.4-0.4-1.6,2.8-2.8,3.1v-0.3c-0.1.2,0,.7-0.4,0.7s-0.1-.3-0.2-0.2a1.3,1.3,0,0,1-.5.9v-0.4c-1.3.6-1,2-1.7,2.9-0.6-.7-1.6-0.2-2.1.1h-0.1c-1.3,1-1.5,2.3-2.4,3.5s-2.6,1.7-4,2.3c0.3,0,.4.5,0.3,0.8s-0.3,1.1-.8.4h0.1c-0.7-.4-1.1.2-1.5,0.5l0.6,0.9c-2.1-.2-2.5,2.9-3.9,2.4s-0.4.7-.5,1.1l-0.4-.4a8,8,0,0,0-2,1.7v-0.5c-0.5.4,0.4,1.8,0,2.2l-0.7-.5c-0.9.8-2.2,1-2.6,2.3a0.4,0.4,0,0,1-.1-0.5c-0.4.3-2,1-1.1,1.7s-1,.7-1.2,1.4l-0.3-.5a1.9,1.9,0,0,1-.2,1.7c-0.2.1-.4-0.2-0.1-0.3s0,0.7-.7.9v-0.4c-0.5.4-.3,0.5-0.3,1a1,1,0,0,1-1.4.3,0.7,0.7,0,0,1-.2.9,0.4,0.4,0,0,1-.1-0.4c-1,.4-0.7,1.5-1.6,1.5l-0.3-.2,1.1-.8c-0.3-.4-0.9,0-1-0.9-0.1.6-.2,1.9-0.9,2.1h-0.2a0.4,0.4,0,0,0-.2.3l-0.5.2c-0.3-.3-0.7.3-1,0.5s0,0.6.6,0.7,0-.1.1-0.2h0.1l0.6-.6c0,0.4,0,.7-0.5.7l0.3,1c-0.8-.3-1.8-0.1-2.2-0.3s-1.6,1.7-1.4,2.9-0.4,0-.6-0.1a1.1,1.1,0,0,0,.2-0.5c-0.2.6-1.2,1.2-.8,1.8s-0.1-.8-0.8,0v-0.3c-2.2.4-1.1,3.5-3.7,3.7h0.4c-2.3,1.1-3.3,3.7-5.8,4.5-0.6.3-.4,0.7-0.5,1.2l-0.5-.4v1c-0.4,1-2.3,0-2.6,1.6l0.4,0.2c-0.4.2-.9,1.1-1.2,0.7s0.2,0.4-.1.4l-0.2-.2-0.5,1.1c-0.8.4-.7-1-1.7-0.2s-0.4,1.6-.1,1.6a0.6,0.6,0,0,1,.7.1l-0.2.4c0.6,0.8.9,1.7,2.2,1.5l0.2-.9,0.5,0.2-0.4.4c0.5,0.1.5-.3,0.5-0.7l0.6,0.2v-1.1c0.3,0.2.2,0.8,0.7,0.6s-0.8-.4-0.5-1,0.7,0.4.8-.1a0.4,0.4,0,0,1,.2.5c0.1-.5.7-0.7,0.5-1.2s0.8-.9,1.4-0.2a1.9,1.9,0,0,1,.3-1.2c0.2,1.2,1-.8,1.6.2-0.3-1,1-1.4,1.2-2.3s0,0.3,0,.3a2.1,2.1,0,0,1,1-.2c-0.5-.6-0.1-1.2-0.1-1.8s0.4,0.9,1,1.3,0.3-1.1-.2-1.4a1.4,1.4,0,0,1,1,.3c-0.6-.8.2-0.4,0.1-1.1s0.7,0.6,1-.1S12490.2,5634.7,12490.2,5634.7Zm11-11.9h0l-0.2.2Zm1-.9-0.5.4c-0.2-.1-0.3-0.3-0.1-0.4A0.7,0.7,0,0,0,12502.2,5621.9Zm-4.7-1a0.2,0.2,0,0,1,.3-0.1l-0.2.3h0v-0.3Z" transform="translate(-12473.5 -5427.4)"/>
      <path class="cls-1" d="M12497.7,5621.7h0.1v-0.2h-0.1Z" transform="translate(-12473.5 -5427.4)"/>
      <path class="cls-1" d="M12590.6,5541.4h0Z" transform="translate(-12473.5 -5427.4)"/>
      <polygon class="cls-1" points="43.5 183 43.4 182.9 43.4 183.1 43.5 183"/>
      <path class="cls-1" d="M12597.5,5538h0Z" transform="translate(-12473.5 -5427.4)"/>
      <path class="cls-1" d="M12600,5535.9h0Z" transform="translate(-12473.5 -5427.4)"/>
      <path class="cls-1" d="M12602,5534.5v-0.2h0v0.2Z" transform="translate(-12473.5 -5427.4)"/>
      <path class="cls-1" d="M12572.8,5561h0Z" transform="translate(-12473.5 -5427.4)"/>
      <path class="cls-1" d="M12580.8,5552.3v0.4C12580.8,5552.6,12581,5552.5,12580.8,5552.3Z" transform="translate(-12473.5 -5427.4)"/>
      <path class="cls-1" d="M12563.4,5570.1h0Z" transform="translate(-12473.5 -5427.4)"/>
      <path class="cls-1" d="M12580.2,5553.1a0.6,0.6,0,0,0,.4-0.4A0.8,0.8,0,0,0,12580.2,5553.1Z" transform="translate(-12473.5 -5427.4)"/>
      <path class="cls-1" d="M12610.3,5527.6h0Z" transform="translate(-12473.5 -5427.4)"/>
      <path class="cls-1" d="M12610.3,5527.5h0.1A0.1,0.1,0,0,0,12610.3,5527.5Z" transform="translate(-12473.5 -5427.4)"/>
      <path class="cls-1" d="M12610.5,5527.1v0.3A0.2,0.2,0,0,0,12610.5,5527.1Z" transform="translate(-12473.5 -5427.4)"/>
      <path class="cls-1" d="M12607.6,5529.6v0Z" transform="translate(-12473.5 -5427.4)"/>
      <path class="cls-1" d="M12606.9,5530.3a1.7,1.7,0,0,0,.9-0.4h-0.1C12607.8,5530.1,12606.9,5529.9,12606.9,5530.3Z" transform="translate(-12473.5 -5427.4)"/>
      <path class="cls-1" d="M12602.1,5531.2l0.7-.4c-0.3-.1-0.6-0.2-0.3-0.4S12603,5530.5,12602.1,5531.2Z" transform="translate(-12473.5 -5427.4)"/>
      <path class="cls-1" d="M12600,5532.6c0.3-.4-0.2-0.2-0.3-0.3S12599.6,5532.7,12600,5532.6Z" transform="translate(-12473.5 -5427.4)"/>
      <path class="cls-1" d="M12585.9,5544.9l-0.3-.4C12585.4,5544.8,12585.7,5544.7,12585.9,5544.9Z" transform="translate(-12473.5 -5427.4)"/>
      <polygon class="cls-1" points="111.4 121.9 111.9 121.9 111.7 121.5 111.4 121.9"/>
      <polygon class="cls-1" points="107.4 120.6 107.5 120.4 107.2 120.9 107.4 120.6"/>
      <path class="cls-1" d="M12557.4,5568.8l0.5,0.4C12558,5568.9,12557.6,5568.4,12557.4,5568.8Z" transform="translate(-12473.5 -5427.4)"/>
      <path class="cls-1" d="M12547.6,5578.2c-0.3-.1-0.7,0-0.7.3A2.5,2.5,0,0,0,12547.6,5578.2Z" transform="translate(-12473.5 -5427.4)"/>
      <polygon class="cls-1" points="42.8 176.9 42.9 176.5 42.6 177 42.8 176.9"/>
    </g>
    <g>
      <path class="cls-1" d="M12680.4,5523.3c-0.2.1-.4,0.4-0.2,0.5l0.6-.4h-0.4Z" transform="translate(-12473.5 -5427.4)"/>
      <path class="cls-1" d="M12680.9,5525.4a1.5,1.5,0,0,0,1.3-.8,13.2,13.2,0,0,0-1.3.4,0.4,0.4,0,0,1,0-.6c-0.2.1-.2-0.4-0.6-0.2a0.7,0.7,0,0,0,.8.9A0.6,0.6,0,0,1,12680.9,5525.4Z" transform="translate(-12473.5 -5427.4)"/>
      <path class="cls-1" d="M12699.3,5542.9v0Z" transform="translate(-12473.5 -5427.4)"/>
      <path class="cls-1" d="M12710.9,5553.5h0Z" transform="translate(-12473.5 -5427.4)"/>
      <path class="cls-1" d="M12712.4,5555.8h-0.1C12712.3,5555.8,12712.4,5555.9,12712.4,5555.8Z" transform="translate(-12473.5 -5427.4)"/>
      <path class="cls-1" d="M12699.3,5542.9l0.2,0.4C12699.6,5543.2,12699.4,5543.1,12699.3,5542.9Z" transform="translate(-12473.5 -5427.4)"/>
      <path class="cls-1" d="M12684.6,5526.5h0Z" transform="translate(-12473.5 -5427.4)"/>
      <path class="cls-1" d="M12693.7,5538.7h0Z" transform="translate(-12473.5 -5427.4)"/>
      <path class="cls-1" d="M12689.7,5535.3a1.5,1.5,0,0,0,.7-0.5h-0.5Z" transform="translate(-12473.5 -5427.4)"/>
      <path class="cls-1" d="M12684,5529h0Z" transform="translate(-12473.5 -5427.4)"/>
      <path class="cls-1" d="M12696.5,5541.3v0Z" transform="translate(-12473.5 -5427.4)"/>
      <path class="cls-1" d="M12811.2,5636.2h0Z" transform="translate(-12473.5 -5427.4)"/>
      <path class="cls-1" d="M12814,5642.3h-0.1l-0.2.2Z" transform="translate(-12473.5 -5427.4)"/>
      <path class="cls-1" d="M12715.6,5559.6h0C12715.5,5559.6,12715.6,5559.6,12715.6,5559.6Z" transform="translate(-12473.5 -5427.4)"/>
      <path class="cls-1" d="M12749.9,5589c-0.1-.7,1.1.1,0.8-0.9S12749.6,5588.4,12749.9,5589Z" transform="translate(-12473.5 -5427.4)"/>
      <path class="cls-1" d="M12684.6,5526.6h0Z" transform="translate(-12473.5 -5427.4)"/>
      <path class="cls-1" d="M12750.7,5588.2h0Z" transform="translate(-12473.5 -5427.4)"/>
      <path class="cls-1" d="M12724.4,5566.8v0Z" transform="translate(-12473.5 -5427.4)"/>
      <path class="cls-1" d="M12718.6,5560.7v0Z" transform="translate(-12473.5 -5427.4)"/>
      <path class="cls-1" d="M12728.2,5569.1a0.3,0.3,0,0,0,.2.2h0A0.2,0.2,0,0,1,12728.2,5569.1Z" transform="translate(-12473.5 -5427.4)"/>
      <path class="cls-1" d="M12731.6,5572.1h-0.1v0.2Z" transform="translate(-12473.5 -5427.4)"/>
      <path class="cls-1" d="M12800.6,5627.2l-0.2.5C12800.7,5627.4,12801.3,5627.7,12800.6,5627.2Z" transform="translate(-12473.5 -5427.4)"/>
      <path class="cls-1" d="M12684.4,5526.7h0.1v0.2Z" transform="translate(-12473.5 -5427.4)"/>
      <path class="cls-1" d="M12731.3,5565.9l0.5,0.5Z" transform="translate(-12473.5 -5427.4)"/>
      <path class="cls-1" d="M12776,5605.8h0Z" transform="translate(-12473.5 -5427.4)"/>
      <path class="cls-1" d="M12733.4,5567.8a1.1,1.1,0,0,0,.1.6h0.2Z" transform="translate(-12473.5 -5427.4)"/>
      <path class="cls-1" d="M12800.5,5627.8h0Z" transform="translate(-12473.5 -5427.4)"/>
      <path class="cls-1" d="M12804.9,5629.9c-0.5-.5-0.7.3-1.1,0.6s0.1-.7.1-1.1-1.3.1-1.5-.2a0.3,0.3,0,0,1,.2-0.2c-0.8.1-1.2-1-2.2-.9v-0.2a3.1,3.1,0,0,1-.6.8c-0.2-.2-0.7,0-0.5-0.5s0.3,0,.4-0.1h-0.4c0.2-.7.5,0.1,0.8-0.3s-1.6-.3-1.8-0.8,1,0.6.9-.3l0.4,0.7c0.3-1.2.3,0.4,0.7-.9s-1.1-.5-1.7-1.3-0.3.5-.7,0.6,0.3-2-1.1-2-1.1.7-1.4-.1l0.7-.4c-0.7-.7-1.1.5-1.5-0.6a5.8,5.8,0,0,1,.7.1c-0.1-.9-0.6,0-1-0.3l0.4-.6c-0.8-.6-2-1-2.9-1.6s0.5-.1.4-0.5a8.9,8.9,0,0,1-3-3.3h-0.8a0.2,0.2,0,0,1,.2-0.3c-0.3-.5-0.3.3-0.6,0.3a0.3,0.3,0,0,1,.2-0.5c-1-.2-2.7-1-3.1-2.1h0.3c-0.4-.7-1.4.3-1.6-0.6h0.2c-1.1-1.3-2.8-2.1-3.2-3.6-0.7.5-1-1.4-1.9-.6-0.3-1.1,0-1-.7-2.2s-0.9.2-1.3,0l0.4-.5h-0.9l0.2-.8-0.4-.2a0.5,0.5,0,0,1-.1.6,1.4,1.4,0,0,1-.7-1.6l-1.5-.6a0.9,0.9,0,0,1,.7,0c-1-.1.3-0.6-0.6-0.7a0.7,0.7,0,0,1-.4.3,2.2,2.2,0,0,0-1.3-1.4l0.4-.2c-0.8-.8-2-1.4-2.9-2.3a0.6,0.6,0,0,1-.7.7l0.3-.6c-0.4.1,0.1,0.4-.6,0.5s0.2-.8.6-0.7l-0.6-.2,0.5-.3c-0.4.1-.3-1.2-1-0.9v-0.2c-1-.9-1.5-1.1-2.4-1.7s-0.6,0-1.1.2a8.9,8.9,0,0,0-1.5-2.1c-0.7-.2-0.5.2-0.9,0.3s-0.4-1,.2-1a10,10,0,0,0-2.5-1.5c0,0.3,0,.4-0.1.5a0.5,0.5,0,0,1-.1-0.7h0.1c-1.7-.5-1.8-3.5-3.4-3.5h0.1l-1.3-.4c-0.4-.5.5-0.1,0.4-0.6s-1.6-1.6-2.8-1.9c0.3-1.7-2.5-2-2.7-3.5l-0.2.3c-0.5.1-.2-0.4-0.3-0.6s0,0.5-.2.5c-2.3-1.4-3.8-4-5.6-6s-1.6,1-2-.5l0.7-.3c-2-.7-3.1-2.7-5-3.5a0.5,0.5,0,0,1,.5-0.1,1.1,1.1,0,0,0-1.4-.7c-0.2-.2.2-0.3,0.2-0.6s-1.2-.2-1-0.7h0.3c-0.4,0-.9-0.9-1.1-0.3s-1.2-.7-1.4-1.4-0.8-1.1-1.4-.5-0.5-1.4-1.1-1.4-0.1-.5.3-0.6-0.9-.5-1.1-0.1c0-1.5-2.1-.6-1.6-2a30.1,30.1,0,0,1-4-2.2c0.6-.6,1.2,1,1.8.2-1.3-.6-2.4-0.5-3.2-1.6s0.4-.2.6-0.2-1.9-1.8-3.1-2.2h0.4c-0.2-.1-0.3-0.5-0.6-0.1h0.2c-0.1.7-1.5,0.3-1.8,0.5s-0.7-1,.8-1.7a0.5,0.5,0,0,0-.6.2c-0.1-.2-0.1-0.4.3-0.5s-0.8.1-1.4-.4l0.5-.2a1.4,1.4,0,0,1-1.5-.5c0.1-.1.2-0.2,0.3-0.1s-2.1-.5-2.8-1.6c0.8-.4-0.1-0.5.3-1.1l-0.6-.3v0.4c-0.4-.4-1.2-0.3-1.4-0.8h0.5l-0.9-.6,0.3,0.6c-0.7-.1-0.6.8-1,0.1a2.3,2.3,0,0,1-.4-0.9h0a0.9,0.9,0,0,1-1-.4,8.1,8.1,0,0,1,.7-0.7c-0.6.3-1.1-.8-1.8-0.5a0.9,0.9,0,0,0,.5-0.4l-0.5.2a0.4,0.4,0,0,1,.2-0.6c-0.5-.6-0.4.9-0.9-0.1h0.3c-0.6-.8-1.6-1-2.1-1.7s0.7,0.4.9-.3-2.6-1-3.4-2v0.2c-0.8.7-.3-1-1.1-1a0.6,0.6,0,0,0,.4-0.2c-0.5-.7-1.5-0.9-2.6-1.5h0.3a9.3,9.3,0,0,0-1.2-1.4c-0.3.1-.5-0.1-0.6,0.3-0.2-2.3-2.9-1.4-3.2-3.4,0.1,0.1.5,0.1,0.4,0l-1.1-.6a1.1,1.1,0,0,0-.1.8,1,1,0,0,1-.9-0.2c0.6,0.1.5-.6,0.5-0.9l-0.3.3c0.1-1-.7.6-1-0.4l0.2-.2a2,2,0,0,1-1-.4c0.2-.5.4,0,0.7-0.3s-1.4.1-1.4-.6l0.7,0.3a1,1,0,0,0-.3-1h0l-0.5-.8v0.3c-1.4.6-1.1-.7-2.4-0.5,1.2-.1.4-0.3,0.9-0.7s-0.2-.6,0-0.7-0.2-.7-1.1-0.6-0.3-.3.1-0.6-0.1.3-.3,0.5-0.9-1.9-2.4-1.9-1.6,0-2.5-.4,0.7-.4.7-0.4a1.3,1.3,0,0,0-1-.9,0.5,0.5,0,0,0,.2-0.5c-0.3-.2-0.7.4-0.8-0.2l0.8-.3-1.5-.4a0.9,0.9,0,0,1,.8-0.3c-0.5-.2-1.2-0.7-1.7-0.4v0.4c-0.2-.1.2-0.4,0.4-0.4s0.4,0.6.3,0.7h-0.3c-0.5,1.1,1.1.7,1.6,1.2l-0.8.4h1c0,0.3-.3.7-0.6,0.6s0.5,0.1.5,0.7h0.4c-0.2.1-.3,0.5-0.5,0.2s1.4,0.4,1.2,1.1h-0.1c1.1,0.6.5-.4,1.6-0.4l-0.6,1.5,0.5-.4a0.3,0.3,0,0,1,0,.4c0.6,0,.1-0.2.6-0.4s1.4,0.9.8,1.7-0.2-.6.5-0.5,0.7,0.3.7,1-0.7-.2-0.6.5,0.6,0.8,1.1,1,0.9,0.4,1.6.7,0.8,1.2,1.1,1.9h-0.1c0.6-.5,1,0.1,1.5.3a0.9,0.9,0,0,1-.8.3l0.4,0.3a0.8,0.8,0,0,1,.7.1l-0.5.3c0.5,0.4,1.4.4,1.8,1.2s0.4-1.5,1.3-1.2a0.9,0.9,0,0,1-.7.5,0.4,0.4,0,0,1,.4.2h-0.6c0.2,0.4.4-.2,0.6,0.1s0,0.4-.3.6-0.1-.3-0.3-0.3a1.3,1.3,0,0,1,.3,1,0.5,0.5,0,0,1,.6-0.3c0.5,0.4-.1.5,0,0.9s0.4,0.4.8-.1a0.5,0.5,0,0,1-.1.5c0.4,0,1.2,1,1.4.3h0c1.2,0.3,1.5,1.8,2.5,2.3h-0.1a5.5,5.5,0,0,0,1.8.8,0.5,0.5,0,0,1-.1.7,1.2,1.2,0,0,1,1,.8c-0.6-.1-0.1.3-0.6-0.1s0.3,0.9,1.2.9-0.1.8,0.3,0.9v-0.6a2.6,2.6,0,0,1,.7.6l-0.6.4c0.5,1.5,2.7.5,2.6,2.2,0.6-.1-0.3-0.7.3-0.9s0.3,1.6.4,1.7,1.2-.2,1.7.6a0.8,0.8,0,0,1,1-.5,0.7,0.7,0,0,1-.5,1.1c-0.1-.1-0.1-0.2-0.1-0.2s-0.5-.2-0.5.2h0.2c0.1,0.4.7,0.9,0.3,1.1s0.4-.2.2-0.5,0.9,0.8,1.4,1.5,0.1-.5.2-0.4,0.7,0,1.4.5-0.7.5,0.1,0.8-0.3.5-.6,0.6,0.8,1.1,1.1,1.5h-0.4l0.5,0.3v-0.5c0.1,0.2.3,0.3,0.1,0.5s0.4-.7,1-0.7,0.9,0.4.5,1-0.3.5-1,.1a0.7,0.7,0,0,1,.4.4h-0.2c0.3,1,.8-0.3,1.5.4a0.4,0.4,0,0,0-.1.7c-0.3-.3.3-0.6,0.7-0.5s0.6,0.3.9,0.5l-0.2-.3a0.9,0.9,0,0,1,.9.2c-0.2.2-.4-0.1-0.4,0.1s0.4,1.2,1.1,1.3-0.4.5-.3,0.8,0.3,0.9,1.1,1.1,0-.4.8-0.4l-1.2-.6h1.1a9,9,0,0,1-.9-0.5c0.5,0,.4,0,0.6-0.4s1.1,0.4,1.2,1.1l-0.8.9c0.3,1,1.6.6,2.3,1.6l-0.2-.4c0.4-.2.6,0.4,1,0.5a1.1,1.1,0,0,0-.2.8c0.2-.2.6,0.6,1.2,0.1v0.7c0.6,0.8,1.6-.1,2.2.6s-0.4.6-1,.5,0.4,0.4.6,0.2,1,0.2,1,.6,0.5-.3.8-0.1h-0.1c0.1-.1.6,0.2,0.6-0.4-0.1,1.5,2,1.7,2,3l1.8,1.2c-0.1.1-.1,0.1-0.2,0s1.1-.5,1.6.4-0.6-.1-0.5.3,1,0.6,1,1.6h-0.2c0.1,0.7,1.2.4,1.8,1h-0.1a4.3,4.3,0,0,1,2.5.8c-0.5.2-.4,0-0.7,0.5s0.5-.7,1.1-0.3a2.1,2.1,0,0,1-.1,1.3l-0.5-.4c-0.2.8,0.6,0.5,0.8,0.9l-0.2.2c0.8,0.6,1.3,0,2.1.7V5580c1-.2.1,0.7,0.9,0.6l-0.4.7a10.2,10.2,0,0,1,2.1.7,5.8,5.8,0,0,1-2.1-.2,2,2,0,0,0,1.4.7,0.5,0.5,0,0,1-.5-0.2,2.2,2.2,0,0,1,2,.5c-1.1,1.1,1.2,1.6.9,2.9,1.4,0.5,1.9,1.9,3.1,2.9,0.4-1.3.4,0.3,1.1-.7s0.4,0.3.4,0.4l0.4,1.3c0,0.4-.4,0-0.6.2s-0.1.6,0.1,1.2,0.6-.3.9,0.1v-0.8c1.3,0.2.1,1.4,1.3,1.7h-0.5c0.6,0.2,1.6,1.4,2.7,1.1s-0.1.5-.4,0.4,3,1.2,3.4,2.4l-0.3.2c0.3,0.1.7-.1,0.8,0.3s-0.3.2-.2,0.2a1.3,1.3,0,0,1,1,.4h-0.4c0.8,1.2,2.1.8,3.1,1.3-0.6.7,0,1.6,0.3,2h-0.1c1.1,1.1,2.5,1.2,3.8,1.9s2,2.3,2.8,3.7c-0.1-.3.5-0.5,0.7-0.4s1.1,0.2.5,0.7h-0.1c-0.3.8,0.3,1.1,0.7,1.4l0.8-.7c0.1,2.1,3.2,2,2.9,3.6l1.2,0.3-0.4.4a8,8,0,0,0,1.9,1.8h-0.4c0.5,0.5,1.7-.7,2.2-0.3l-0.4.8c0.9,0.8,1.3,2.1,2.7,2.3a0.4,0.4,0,0,1-.4.1c0.4,0.4,1.2,1.8,1.8.8-0.5.6,0.9,0.8,1.5,1l-0.4.4a1.9,1.9,0,0,1,1.7,0c0.1,0.2-.2.4-0.3,0.2s0.7-.1,1,0.6h-0.4c0.4,0.4.5,0.3,1,.2a1,1,0,0,1,.5,1.3,0.7,0.7,0,0,1,1,.1,0.4,0.4,0,0,1-.4.2c0.5,0.9,1.6.5,1.7,1.4a0.5,0.5,0,0,0-.1.3l-1-1c-0.3.4,0.1,0.9-.8,1.1,0.6,0.1,1.9,0,2.2.6v0.2h-0.1l0.4,0.2,0.3,0.5c-0.2.4,0.4,0.7,0.6,0.9s0.6-.1.6-0.7h-0.4l-0.6-.5c0.4,0,.7-0.1.8,0.4l0.9-.4c-0.2.9,0.2,1.8-.1,2.2s1.9,1.4,3,1,0,0.4,0,.6h-0.5c0.6,0.2,1.3,1,1.9.5s-0.7.3,0.1,0.8h-0.2c0.7,2.1,3.6.6,4.2,3.2a0.4,0.4,0,0,1,0-.4c1.4,2.1,4.1,2.8,5.2,5.2,0.4,0.6.7,0.3,1.3,0.3l-0.3.6h1c1.1,0.3.3,2.3,1.9,2.4v-0.4c0.3,0.4,1.2.8,0.9,1.1s0.4-.2.4,0.1l-0.2.2,1.2,0.3c0.5,0.7-.9.9,0,1.7s1.6,0.2,1.6-.1a0.6,0.6,0,0,1,0-.7l0.4,0.2c0.7-.6,1.5-1.1,1.2-2.3h-0.9v-0.5l0.5,0.4c0-.6-0.4-0.4-0.8-0.4a0.8,0.8,0,0,0,.1-0.6l-1.1.2c0.2-.3.7-0.3,0.5-0.8s-0.3.8-.9,0.7,0.3-.7-0.2-0.7a0.4,0.4,0,0,1,.5-0.2c-0.5,0-.8-0.5-1.3-0.3s-1-.7-0.4-1.4a1.9,1.9,0,0,1-1.2-.1c1.2-.4-0.9-0.9,0-1.6-1,.4-1.5-0.8-2.5-0.9h0.3a2.1,2.1,0,0,1-.3-1c-0.6.6-1.2,0.2-1.8,0.3s0.9-.5,1.2-1.1-1.1-.2-1.4.4a1.4,1.4,0,0,1,.1-1c-0.7.7-.4-0.1-1.1,0.1s0.5-.8-0.2-1S12804.9,5629.9,12804.9,5629.9Zm-13.2-9.3h0l0.3,0.2Zm-1-.9,0.4,0.4c-0.1.2-.3,0.3-0.4,0.2A0.7,0.7,0,0,0,12790.7,5619.7Zm-0.4,4.8a0.2,0.2,0,0,1-.1-0.3l0.3,0.2h0.1Z" transform="translate(-12473.5 -5427.4)"/>
      <path class="cls-1" d="M12791,5624.2h0.1V5624h-0.1Z" transform="translate(-12473.5 -5427.4)"/>
      <path class="cls-1" d="M12699.2,5542.7h0a0.2,0.2,0,0,1,0-.1h0Z" transform="translate(-12473.5 -5427.4)"/>
      <polygon class="cls-1" points="303.8 179.2 303.7 179.3 303.9 179.3 303.8 179.2"/>
      <path class="cls-1" d="M12694.9,5536.3a0.3,0.3,0,0,0,0-.2A0.4,0.4,0,0,0,12694.9,5536.3Z" transform="translate(-12473.5 -5427.4)"/>
      <path class="cls-1" d="M12692.5,5534.1l-0.2-.5Z" transform="translate(-12473.5 -5427.4)"/>
      <path class="cls-1" d="M12690.8,5532.3h-0.2Z" transform="translate(-12473.5 -5427.4)"/>
      <path class="cls-1" d="M12720.9,5557.7h0Z" transform="translate(-12473.5 -5427.4)"/>
      <path class="cls-1" d="M12711.2,5551h0.5C12711.6,5550.9,12711.4,5550.7,12711.2,5551Z" transform="translate(-12473.5 -5427.4)"/>
      <path class="cls-1" d="M12731.2,5565.8h0Z" transform="translate(-12473.5 -5427.4)"/>
      <path class="cls-1" d="M12712.1,5551.4a0.6,0.6,0,0,0-.4-0.4A0.8,0.8,0,0,0,12712.1,5551.4Z" transform="translate(-12473.5 -5427.4)"/>
      <path class="cls-1" d="M12682.9,5525h0Z" transform="translate(-12473.5 -5427.4)"/>
      <path class="cls-1" d="M12682.8,5525h0Z" transform="translate(-12473.5 -5427.4)"/>
      <path class="cls-1" d="M12682.3,5524.9h0.3A0.2,0.2,0,0,0,12682.3,5524.9Z" transform="translate(-12473.5 -5427.4)"/>
      <path class="cls-1" d="M12685.2,5527.4h0Z" transform="translate(-12473.5 -5427.4)"/>
      <path class="cls-1" d="M12686,5528a1.7,1.7,0,0,0-.5-0.8h-0.1C12685.7,5527.1,12685.6,5528.1,12686,5528Z" transform="translate(-12473.5 -5427.4)"/>
      <path class="cls-1" d="M12687.5,5532.6l-0.5-.7c0,0.3-.1.6-0.4,0.4S12686.7,5531.8,12687.5,5532.6Z" transform="translate(-12473.5 -5427.4)"/>
      <path class="cls-1" d="M12689.2,5534.6c-0.4-.2-0.2.2-0.3,0.3S12689.4,5534.9,12689.2,5534.6Z" transform="translate(-12473.5 -5427.4)"/>
      <path class="cls-1" d="M12703.3,5546.9l-0.4.4C12703.2,5547.4,12703.1,5547.1,12703.3,5546.9Z" transform="translate(-12473.5 -5427.4)"/>
      <polygon class="cls-1" points="234.2 119.9 234.2 119.4 233.8 119.6 234.2 119.9"/>
      <polygon class="cls-1" points="233.4 124 233.3 124 233.8 124.2 233.4 124"/>
      <path class="cls-1" d="M12730.7,5571.9l0.3-.5C12730.8,5571.3,12730.3,5571.8,12730.7,5571.9Z" transform="translate(-12473.5 -5427.4)"/>
      <path class="cls-1" d="M12741.3,5580.4c-0.1.3,0.1,0.7,0.4,0.7A2.5,2.5,0,0,0,12741.3,5580.4Z" transform="translate(-12473.5 -5427.4)"/>
      <polygon class="cls-1" points="297.8 180.6 297.4 180.6 297.9 180.8 297.8 180.6"/>
    </g>
  </g>
</svg>
