<svg xmlns="http://www.w3.org/2000/svg" xmlns:xlink="http://www.w3.org/1999/xlink" viewBox="0 0 662.2 391.3">
  <defs>
    <style>
      .a {
        fill: none;
        stroke: #000;
        stroke-miterlimit: 10;
        stroke-width: 2px;
      }

      .b {
        clip-path: url(#a);
      }
    </style>
    <clipPath id="a" transform="translate(-6841.2 -5344.1)">
      <path class="a" d="M7501.5,5719.3c-0.1-.1-6.5,3.9-6.5,3.8-1-1.8-36.1.6-37.1-1.2s-4.7,3.1-4.8,2.8-4.1-2.1-4.3-2.3-5.5,3.5-5.7,3.3-25.2-4.1-25.9-5.4-4.7,3.1-4.9,2.8-29,.1-29.8-1.3-2.9,2.1-3.1,1.8-30.6-2.5-31.4-4-10.2,6.2-10.3,6l-4.6-5.7c-0.2-.3-5.1,3.3-5.3,3s-15.3.6-15.7-.1-3.5,2.4-3.7,2.1-16.5-3.3-16.9-4.1-1.6,1.3-1.8,1-25.1,2.1-25.9.8-4,2.7-4.2,2.4c-1.1-1.9-37.7-4.4-38.7-6.2-0.2-.3-12.1,7.3-12.2,7.1s-5.5-4.6-5.7-5-2.8,2-3,1.7-18.8-1.4-19.3-2.3-4.7,3.1-4.9,2.8-30.2-1.4-31.1-2.9-2.7,1.9-2.8,1.6c-1.3-2.3-46.3,1.6-47.6-.7-0.2-.3-0.1.4-0.3,0.2s-22,.4-22.6-0.6-2.9,2-3,1.8-30.5-.5-31.4-2-3.7,2.5-3.8,2.2-28.3.2-29.1-1.2-3.5,2.4-3.6,2.1-3.6-2.8-3.8-3.1-5.5,3.5-5.7,3.3-28.2-2-29-3.4-4.7,3.1-4.9,2.8-30-3.3-30.9-4.8-8.2,5.1-8.3,4.8-24.1-.2-24.7-1.4-4.5,3-4.7,2.7,2.6-5.5,2.4-5.8-9.7,5.9-9.8,5.7-10.9-2.6-11.2-3.2-5.2,3.4-5.4,3.1-4.5-4.4-4.7-4.8-1,1-1.2.7-4.6-16.1-5.1-16.9-10.4,6.2-10.5,6.1c-1-1.7,7.9-32.6,7-34.3-0.1-.2-2.8,1.8-2.9,1.6s3.5-21.8,2.8-22.9-2.8,1.8-2.8,1.6,3.5-23.3,2.8-24.4-2.8,1.8-2.8,1.6,3.7-28.7,2.8-30.1-2.7,1.8-2.8,1.6,0.7-8.8.5-9.3,0.1,0.2,0,0,6.3-19.5,5.7-20.5-4,2.5-4.1,2.4,1.5-25.3.8-26.5-2.7,1.8-2.8,1.6-0.5-11.8-.8-12.4-0.1.3-.2,0.1-0.7-7.2-.9-7.6-1.7,1.2-1.8,1,6.6-31.2,5.7-32.8-4.9,3.1-5,2.9,7.8-20.1,7.2-21.2-2.8,1.8-2.9,1.7,2-14.5,1.5-15.2-2.7,1.8-2.8,1.6,5.9-25.4,5.1-26.6-2.1,1.4-2.2,1.3,4.3-9.7,4-10.2-7.5,4.5-7.5,4.4,4.2-27.9,3.4-29.3-2.7,1.8-2.8,1.6,3.1-9.7,2.8-10.2-2.7,1.8-2.8,1.6,3-5.7,2.8-6-2.7,1.8-2.8,1.6-0.4-12.2-.7-12.8-4,2.5-4.1,2.4,10.1-14,9.6-14.8-8.4,5-8.5,4.9,7.3-20.5,6.6-21.6-2.2,1.5-2.3,1.3l-0.5,4.2c0.2,0.3,4.2-2.8,4.4-2.5,1.2,2.1,42-3.5,43.2-1.5,0.2,0.3,2.8-2,3-1.7s12.1,3.4,12.4,4,5.2-3.3,5.3-3.1,27.4,0.9,28.2,2.3,4.7-3.1,4.9-2.8c1,1.8,36.2-.2,37.2,1.6,0.2,0.3,3.1-2.1,3.3-1.9,1.1,1.8,37.2-1.5,38.2.3,0.2,0.3,2.6-1.9,2.8-1.6s-0.2,4.5,0,4.7,6.4-4.1,6.6-3.8,21.2,0.4,21.8,1.5,3-2.1,3.2-1.8c1.3,2.3,46.8-.6,48.1,1.7,0.2,0.3,4.1-2.7,4.3-2.5,1.1,1.9,38.8,2.5,39.9,4.4,0.2,0.3,8.9-5.5,9-5.2s20,3,20.5,3.9,0.7-.8.9-0.5c1.3,2.3,47.4-2.1,48.7.2,0.2,0.3,5.6-3.6,5.7-3.3s23.3,3.8,24,5,4.9-3.2,5-2.9,5.3,0.9,5.5,1.1,0.2-.5.4-0.2c1.1,2,40.2,0,41.4,2,0.2,0.3,4.7-3.1,4.9-2.8,1.3,2.3,46-.1,47.3,2.2,0.2,0.3,1.9-1.4,2-1.2s31.7,0.3,32.6,1.9,4.7-3.1,4.9-2.8,13.9,1.7,14.3,2.4,0.6-.7.7-0.4,22.5,2,23.2,3.1,5-3.2,5.2-3,32.4,0.4,33.3,2,9.2-5.7,9.3-5.4,0.3,21.9.9,23,8.1-4.9,8.2-4.7-10.4,8.8-10,9.5,8.5-5.1,8.6-5-2.7,6.1-2.5,6.4,3.9-2.4,3.9-2.3-8.1,31.5-7.2,33.1,2.8-1.8,2.8-1.6-6,20.5-5.4,21.6,7.1-4.3,7.2-4.1-3.1,8.7-2.9,9.2,5.8-3.6,5.9-3.4c1,1.7-11,33.3-10,35.1,0.1,0.2,7.3-4.4,7.4-4.3s-10.3,8.6-9.9,9.2,9.6-5.7,9.7-5.6-5.5,25.4-4.8,26.7,2.7-1.8,2.8-1.6-2.8,10.4-2.4,10.9,1.5-1.1,1.6-.9-2.2,8.2-2,8.6,2.7-1.8,2.8-1.6-4,6.6-3.8,6.9,7.8-4.7,7.8-4.5-11.2,16.5-10.7,17.5,6.1-3.7,6.2-3.6-3.3,22.4-2.6,23.6,4.3-2.7,4.4-2.6-2.1,6-1.9,6.3,4.8-3,4.9-2.8-6.6,17.6-6,18.6,4.5-2.8,4.6-2.6-2.8,15.9-2.3,16.7,0-.2.1-0.1-4.7,6.3-4.5,6.6,1.4-1,1.5-.8-0.8,4.6-.7,4.8,2.1-1.4,2.2-1.3,2.4,11.2,2.7,11.8,1.7-1.2,1.7-1-11.1,30.4-10.2,32,4.4-2.7,4.5-2.6-1.1,22.5-.4,23.6,0.1-.2.1-0.1-3.8,26.9-3,28.3,4.6-2.8,4.7-2.7-7.4,14.2-7,15,12.6-7.5,12.7-7.3-8.9,25.6-8.2,27,4.1-2.6,4.2-2.4"/>
    </clipPath>
  </defs>
  <title>glitchspace</title>
  <g>
    <g class="b">
      <image width="1280" height="763" transform="translate(2.8) scale(0.51)" xlink:href="../../Illustrator Design/Project Images/glitchspace_screenshot_hi_res.png"/>
    </g>
    <path class="a" d="M7501.5,5719.3c-0.1-.1-6.5,3.9-6.5,3.8-1-1.8-36.1.6-37.1-1.2s-4.7,3.1-4.8,2.8-4.1-2.1-4.3-2.3-5.5,3.5-5.7,3.3-25.2-4.1-25.9-5.4-4.7,3.1-4.9,2.8-29,.1-29.8-1.3-2.9,2.1-3.1,1.8-30.6-2.5-31.4-4-10.2,6.2-10.3,6l-4.6-5.7c-0.2-.3-5.1,3.3-5.3,3s-15.3.6-15.7-.1-3.5,2.4-3.7,2.1-16.5-3.3-16.9-4.1-1.6,1.3-1.8,1-25.1,2.1-25.9.8-4,2.7-4.2,2.4c-1.1-1.9-37.7-4.4-38.7-6.2-0.2-.3-12.1,7.3-12.2,7.1s-5.5-4.6-5.7-5-2.8,2-3,1.7-18.8-1.4-19.3-2.3-4.7,3.1-4.9,2.8-30.2-1.4-31.1-2.9-2.7,1.9-2.8,1.6c-1.3-2.3-46.3,1.6-47.6-.7-0.2-.3-0.1.4-0.3,0.2s-22,.4-22.6-0.6-2.9,2-3,1.8-30.5-.5-31.4-2-3.7,2.5-3.8,2.2-28.3.2-29.1-1.2-3.5,2.4-3.6,2.1-3.6-2.8-3.8-3.1-5.5,3.5-5.7,3.3-28.2-2-29-3.4-4.7,3.1-4.9,2.8-30-3.3-30.9-4.8-8.2,5.1-8.3,4.8-24.1-.2-24.7-1.4-4.5,3-4.7,2.7,2.6-5.5,2.4-5.8-9.7,5.9-9.8,5.7-10.9-2.6-11.2-3.2-5.2,3.4-5.4,3.1-4.5-4.4-4.7-4.8-1,1-1.2.7-4.6-16.1-5.1-16.9-10.4,6.2-10.5,6.1c-1-1.7,7.9-32.6,7-34.3-0.1-.2-2.8,1.8-2.9,1.6s3.5-21.8,2.8-22.9-2.8,1.8-2.8,1.6,3.5-23.3,2.8-24.4-2.8,1.8-2.8,1.6,3.7-28.7,2.8-30.1-2.7,1.8-2.8,1.6,0.7-8.8.5-9.3,0.1,0.2,0,0,6.3-19.5,5.7-20.5-4,2.5-4.1,2.4,1.5-25.3.8-26.5-2.7,1.8-2.8,1.6-0.5-11.8-.8-12.4-0.1.3-.2,0.1-0.7-7.2-.9-7.6-1.7,1.2-1.8,1,6.6-31.2,5.7-32.8-4.9,3.1-5,2.9,7.8-20.1,7.2-21.2-2.8,1.8-2.9,1.7,2-14.5,1.5-15.2-2.7,1.8-2.8,1.6,5.9-25.4,5.1-26.6-2.1,1.4-2.2,1.3,4.3-9.7,4-10.2-7.5,4.5-7.5,4.4,4.2-27.9,3.4-29.3-2.7,1.8-2.8,1.6,3.1-9.7,2.8-10.2-2.7,1.8-2.8,1.6,3-5.7,2.8-6-2.7,1.8-2.8,1.6-0.4-12.2-.7-12.8-4,2.5-4.1,2.4,10.1-14,9.6-14.8-8.4,5-8.5,4.9,7.3-20.5,6.6-21.6-2.2,1.5-2.3,1.3l-0.5,4.2c0.2,0.3,4.2-2.8,4.4-2.5,1.2,2.1,42-3.5,43.2-1.5,0.2,0.3,2.8-2,3-1.7s12.1,3.4,12.4,4,5.2-3.3,5.3-3.1,27.4,0.9,28.2,2.3,4.7-3.1,4.9-2.8c1,1.8,36.2-.2,37.2,1.6,0.2,0.3,3.1-2.1,3.3-1.9,1.1,1.8,37.2-1.5,38.2.3,0.2,0.3,2.6-1.9,2.8-1.6s-0.2,4.5,0,4.7,6.4-4.1,6.6-3.8,21.2,0.4,21.8,1.5,3-2.1,3.2-1.8c1.3,2.3,46.8-.6,48.1,1.7,0.2,0.3,4.1-2.7,4.3-2.5,1.1,1.9,38.8,2.5,39.9,4.4,0.2,0.3,8.9-5.5,9-5.2s20,3,20.5,3.9,0.7-.8.9-0.5c1.3,2.3,47.4-2.1,48.7.2,0.2,0.3,5.6-3.6,5.7-3.3s23.3,3.8,24,5,4.9-3.2,5-2.9,5.3,0.9,5.5,1.1,0.2-.5.4-0.2c1.1,2,40.2,0,41.4,2,0.2,0.3,4.7-3.1,4.9-2.8,1.3,2.3,46-.1,47.3,2.2,0.2,0.3,1.9-1.4,2-1.2s31.7,0.3,32.6,1.9,4.7-3.1,4.9-2.8,13.9,1.7,14.3,2.4,0.6-.7.7-0.4,22.5,2,23.2,3.1,5-3.2,5.2-3,32.4,0.4,33.3,2,9.2-5.7,9.3-5.4,0.3,21.9.9,23,8.1-4.9,8.2-4.7-10.4,8.8-10,9.5,8.5-5.1,8.6-5-2.7,6.1-2.5,6.4,3.9-2.4,3.9-2.3-8.1,31.5-7.2,33.1,2.8-1.8,2.8-1.6-6,20.5-5.4,21.6,7.1-4.3,7.2-4.1-3.1,8.7-2.9,9.2,5.8-3.6,5.9-3.4c1,1.7-11,33.3-10,35.1,0.1,0.2,7.3-4.4,7.4-4.3s-10.3,8.6-9.9,9.2,9.6-5.7,9.7-5.6-5.5,25.4-4.8,26.7,2.7-1.8,2.8-1.6-2.8,10.4-2.4,10.9,1.5-1.1,1.6-.9-2.2,8.2-2,8.6,2.7-1.8,2.8-1.6-4,6.6-3.8,6.9,7.8-4.7,7.8-4.5-11.2,16.5-10.7,17.5,6.1-3.7,6.2-3.6-3.3,22.4-2.6,23.6,4.3-2.7,4.4-2.6-2.1,6-1.9,6.3,4.8-3,4.9-2.8-6.6,17.6-6,18.6,4.5-2.8,4.6-2.6-2.8,15.9-2.3,16.7,0-.2.1-0.1-4.7,6.3-4.5,6.6,1.4-1,1.5-.8-0.8,4.6-.7,4.8,2.1-1.4,2.2-1.3,2.4,11.2,2.7,11.8,1.7-1.2,1.7-1-11.1,30.4-10.2,32,4.4-2.7,4.5-2.6-1.1,22.5-.4,23.6,0.1-.2.1-0.1-3.8,26.9-3,28.3,4.6-2.8,4.7-2.7-7.4,14.2-7,15,12.6-7.5,12.7-7.3-8.9,25.6-8.2,27,4.1-2.6,4.2-2.4" transform="translate(-6841.2 -5344.1)"/>
  </g>
</svg>
