<svg id="CV" xmlns="http://www.w3.org/2000/svg" viewBox="0 0 772.5 15.6">
  <defs>
    <style>
      .cls-1 {
        fill: none;
        stroke: #fafafb;
        stroke-linecap: round;
        stroke-linejoin: round;
        stroke-width: 2px;
      }
    </style>
  </defs>
  <title>heading-underline</title>
  <path class="cls-1" d="M12234.2,5686.3l1.4-.8,1.3,5.3,6.6-3.8,2.8,4.2,9.1-5.3-5.2,9.2,20.3-11.7-4.7,9.3,14.6-8.4-3.6,8.8,8.6-4.9,4.2,3.9,6.9-4,1.8,5.5,12.6-7.3s-2.1,7.6-2.1,7.7l17.5-10.1c0,0.1-7.7,10.9-7.7,11l16.3-9.4,1.4,5.8,6-3.4,4,4.4,8.5-4.9,1,5.8,17-9.8c0,0.1-8.7,11.1-8.7,11.1l15.6-9s-1.4,7-1.4,7.1l15.6-9-3.6,8.8,8.2-4.7,3.1,4.3,12-6.9-5.6,9.5,17.2-9.9-4.4,9,15.8-9.1-4.9,8.7,14.1-8.1-4.8,8.6,17.4-10-5.1,9.1,10.9-6.3,2.7,4.6,10.9-6.3c0,0.1-7.2,10.7-7.1,10.8l19-11s-0.9,6.6-.9,6.7l6.4-3.7-4,9,15.7-9.1,3.7,4.5,9.9-5.7s-2.8,8.2-2.7,8.3l14.7-8.5,0.8,6,10.7-6.2-3.6,8.3,13.9-8s-1,6.9-1,6.9l15.6-9c0,0.1-9.2,11.2-9.1,11.3l20.9-12.1-4.5,9.3,13.7-7.9s-1.3,7.1-1.3,7.1l11.8-6.8c0,0.1-8.4,11.5-8.4,11.6l23.3-13.5-3.7,8.3,13.4-7.8-6.4,9.7,17.3-10c0,0.1-8.2,10.5-8.1,10.6l14.7-8.5-3.6,8.5,15.5-9s-0.4,6.7-.3,6.7l6.6-3.8,1.3,5.7,11.6-6.7-5.9,9.6,16-9.2,1.4,5.4,8.4-4.9,0.8,6.2,16.7-9.6-3.2,8.3,11.1-6.4-6.6,9.7,15.2-8.7s-1.6,7.7-1.5,7.7l16.4-9.5c0,0.1-6.3,10.1-6.3,10.2l19.8-11.4-2,7.2,8-4.6s-1.2,7.1-1.2,7.2l13.5-7.8-3.5,8.6,17.4-10-5.7,9.7,19.6-11.3-4.7,9.4,7.9-4.6,5,3.7,11.1-6.4s-1.5,7.5-1.5,7.5l11.8-6.8s-1.5,7.6-1.5,7.7l15.9-9.2-5.2,9.6,17.7-10.2-4.2,8.6,11.8-6.8c0,0.1-7,10.6-7,10.6l13.2-7.6s-1.7,7.2-1.7,7.2l17.5-10.1,1.8,5.7,7.3-4.2,1.7,4.8,10.7-6.2c0,0.1-7.3,10.6-7.3,10.7l15.4-8.9s-3,8.5-3,8.5l14.5-8.4,4.5,4.1,9.4-5.4-4.8,9.2,19.7-11.4s-1.4,7.3-1.4,7.3l10-5.8c0,0.1-7.7,10.9-7.7,10.9l14.6-8.4,3.5,4.3,9.8-5.7,2.2,5.3,11.2-6.5-3.1,8.4,7.3-4.2" transform="translate(-12233.2 -5681.8)"/>
</svg>
