<svg id="Design_Layer" data-name="Design Layer" xmlns="http://www.w3.org/2000/svg" viewBox="0 0 1478.9 540.5">
  <defs>
    <style>
      .cls-1 {
        fill: none;
        stroke: #fefefe;
        stroke-linecap: round;
        stroke-linejoin: round;
        stroke-width: 5px;
      }
    </style>
  </defs>
  <title>heading-scribbles</title>
  <g>
    <path class="cls-1" d="M5935.1,3918.4c0,0.7,8-.4,8-0.4l16.5,10.1c0.3,5.2,150.3-12.1,150.6-7.9,0.1,2-127.4,11.3-127.3,14.2,0,0,1213-68.8,1213.3-63.6,2,38.7-1214,100.3-1214,100.3,2.1,40.7,1182.6-96.3,1184.4-62.1,0,0-1276.3,80.9-1276,87.8,2.1,39.8,1382-90.8,1383-72.5,1.1,21-1294.7,65-1293,96.4,0.2,4,1327.2-104.5,1329-69.7l-1399.5,80c1.5,28.6,1418.2-83.9,1418.7-74.4,0.8,14.5-1407.5,101.2-1407.5,101.2,1.7,31.6,1336-70,1336-70,0.5,9.9-1356.9,87.4-1356.2,100.8,1.6,30,1426.3-88.8,1427-74.8s-1390.2,84.3-1389,107c1.3,24.9,1387.5-72.7,1387.5-72.7S5948.8,4131.7,5950,4153c0,0,1408.3-112.3,1410.3-73.9,0,0-1409.9,70.6-1408.3,101.5,0,0,1388.2-82.5,1388.8-72.8,0,0-1351.4,81.4-1351,89.7l1366.5-71.6c1,19.2-1015.6,37.5-1013.8,70.4,0,0,1020.3-87.6,1022.1-53.6,0,0-1013.2,26.1-1011.6,56.9,0.4,8.1,947-49.6,947-49.6,1,19.3-697,43.7-696.6,51.4,0.5,10.2,738.4-60.3,739.5-38.8,0,0-255.9,27.3-255.6,32.8s228.1-12,228.1-12c0.1,1.8-178.6,13-178.6,13,0.2,4.5,150.5-11.3,150.7-7.9,0,0.8-41.4,12.1-41.4,12.1s64.7-3.8,64.7-3.4-10.7.8-10.7,1,7.9-.4,7.9-0.4" transform="translate(-5888.1 -3664.5)"/>
    <path class="cls-1" d="M6172.6,3669.5c0,0.8,47.4-2.5,47.4-2.5s-85.7,7.4-85.7,7.4l85.5-4.5c0,0.3-28.2,5.4-28.2,6.3l113.2-5.9c0.1,1.4-61.4,31.7-61.3,32.4,0.5,9.8,610.4-32,610.4-32s-698.1,62.5-697.7,69.2c1.3,25.1,1083.9-79.5,1085.1-56.9,0.7,12.5-1015.5,35.5-1014.1,62.3,0.1,2.1,960.7-67,961.6-50.4,0.4,6.7-1030.3,47.6-1029.9,54.6s1097.8-84.8,1099.3-57.6c1.2,22.1-1094.7,63.9-1094,76,0,0,992-87.3,993.9-52.1,0,0-999.9,61.5-999.2,74,1.4,27,989.8-81.1,991.3-52,0.9,17.1-953.4,35.9-951.9,65.6,1,18.2,983.4-51.5,983.4-51.5,1.5,28.8-1049.8,85.5-1049.6,89.4,1.3,24.1,1127.7-74.7,1128.5-59.1,0.3,5-1020.5,72.7-1020,82.8,1.1,20.1,1009.1-86.3,1010.9-53,0.9,16.7-1064.7,44.2-1063.9,59.6,1.9,35.8,1015-69.2,1015.8-53.2,0.4,6.9-987.6,48.7-985.9,81l1029.2-53.9s-1065.8,27.2-1064.1,60c1.8,34.7,1048.9-55,1048.9-55,1.3,24.1-996,44.1-995,62.9,0,0,990.9-60.9,991.4-52" transform="translate(-5888.1 -3664.5)"/>
  </g>
</svg>
