<svg xmlns="http://www.w3.org/2000/svg" viewBox="0 0 451.1 388.5" preserveAspectRatio="none">
  <defs>
    <style>
      .a {
        fill: none;
        stroke: #fafafb;
        stroke-linecap: round;
        stroke-linejoin: round;
        stroke-width: 4px;
      }
    </style>
  </defs>
  <title>heading-scribbles-mobile</title>
  <path class="a" d="M5732.9,9161.5c0,0.8,132.9-7.8,133-7s-111.1,24.3-111,25.8c0.8,15.2,388.9-20.4,388.9-20.4L5762,9204.6c0.8,14.8,377-19.8,377-19.8,0.6,10.8-403,34.2-402.4,44.5,0.8,15.5,436.9-28.3,437.2-22.9L5769.4,9243c0.4,7.3,394.6-20.7,394.6-20.7,0.5,9.5-400,27.2-399.2,43.7,0,0,393.7-36.5,394.5-20.7,0,0-405.8,29.2-405.3,39.3,0.2,3.4,398.5-36.5,399.3-20.9,0.3,6.1-417.6,40-417.6,40,0.1,2.5,417.1-35.2,417.8-21.9,0,0-390.7,26.7-390.2,36.8,0.3,5.6,385.3-20.2,385.3-20.2s-396.3,27.3-395.6,40.3,412.1-21.6,412.1-21.6c0.9,17-402.6,47.5-402.6,47.5s379.1-34.3,379.9-19.9c0,0-388.5,46.7-388.4,47.8,0.7,13.5,426-22.3,426-22.3l-416.9,47c0.8,15.7,385-35.7,385.9-20.2,0.3,6.6-387.9,32.2-387.3,44.9,0.3,4.8,387-20.3,387-20.3,0.3,6.1-380.2,31.5-380,36.3s411-27,411.3-21.6c0.8,14.6-436.9,30.8-436.4,39.3,0,0,417.8-28.5,418.2-21.9,1,18.2-397.6,42.4-397.3,47.7,0,0,397.9-33,398.5-20.9,0,0-421.5,29.5-421.1,38.3s413.7-33,414.3-21.7c0.3,6.2-400.7,38.2-400.5,40.5l422.3-22.1c0.3,5.1-127,23.6-127,23.6s116.9-7,116.9-6.1" transform="translate(-5730.9 -9152.5)"/>
</svg>
