<svg xmlns="http://www.w3.org/2000/svg" viewBox="0 0 390 11.6">
  <defs>
    <style>
      .a {
        fill: none;
        stroke: #000;
        stroke-linecap: round;
        stroke-linejoin: round;
        stroke-width: 4px;
      }
    </style>
  </defs>
  <title>project-section-underline</title>
  <path class="a" d="M6356.1,4977c0.1,0.1,1.3-1,1.4-.8s5.2,4.3,5.5,4.7,3.9-2.6,4.1-2.4,13.6,0.3,13.8.7,4.1-2.7,4.2-2.4,10,1.9,10.1,2.2,7-4.3,7.1-4.1,5.3,4.9,5.4,5.1,4.8-2.9,4.9-2.8,7.9,3.3,8.1,3.7,9.5-5.7,9.6-5.6,10.3,1.7,10.6,2.3,3.2-2.2,3.4-1.9l2.9,5.8c0.2,0.3,5.2-3.5,5.4-3.1s10.6,2.8,10.7,3,5.7-3.7,5.9-3.4,7.1,2.6,7.2,2.8,2.2-1.5,2.3-1.3,8.2,1.8,8.4,2.2,10.5-6.4,10.6-6.1l3.3,7c0.2,0.4,9-5.5,9.1-5.3s9.7,2,9.9,2.4,6.5-4.3,6.7-3.9,1,6.3,1.1,6.5,5-3.4,5.2-3,9.4,2.3,9.8,3,7-4.3,7.1-4.1,11.1,1.3,11.2,1.5,3.6-2.3,3.7-2.2,7.4,2,7.7,2.6,5.1-3.1,5.1-3,5.7,3.6,5.9,4,5.8-3.5,5.9-3.4,7.1,2.6,7.4,3,7.1-4.4,7.3-4.2,4.1,4.6,4.2,4.8,8.8-5.2,8.8-5.1,5.6,4.7,5.9,5.2,5.3-3.3,5.4-3.1,8.6,3.2,8.9,3.7,6.3-4.1,6.5-3.7,13.4,0.5,13.7,1.1,5.4-3.5,5.5-3.2l3.6,5.5c0.1,0.2,9.2-5.7,9.3-5.4l4.2,6.2c0.2,0.4,8.2-5.2,8.4-4.9s8.6,2.6,8.9,3.1,8.4-5.2,8.6-5,5.2,3.9,5.3,4.1,3.5-2.5,3.7-2.1,13.8-.3,14.4.7,0.8-.9,1-0.6,3.8,4.4,4,4.7,7.2-4.5,7.4-4.3" transform="translate(-6354.1 -4972.8)"/>
</svg>
