<svg xmlns="http://www.w3.org/2000/svg" preserveAspectRatio="none" viewBox="0 0 687.4 396.4">
  <defs>
    <style>
      .a {
        fill: #ffcd42;
        opacity: 0.65;
      }
    </style>
  </defs>
  <title>project-background</title>
  <g>
    <path class="a" d="M6858.1,5709.1l73.6,0.7v2.4c0,1.5,0,3.6-.7,4.4,0.6,2.7.6,4-1.8,1.9,2.4,4.7,2.3,6-2.7,5.5,5,3.2,5,4.6,1.7,8.1,3.3-.9,3.3.4,2.2,3.4,1.1,0.6,1.1,2.6,1.1,4.1v2.4l-73.6-.7V5739c0-1.5,0-3.6,2-2.9-1.9-5.5-1.9-8.2,6.1-10.1-7.9-3.5-7.9-6.2-6.7-10.2-1.2-.7-1.2-2.8-1.2-4.3v-2.4Z" transform="translate(-6833.6 -5345.8)"/>
    <path class="a" d="M6865.8,5666.5l4.7,73.5-2.4.2c-1.5.1-3.6,0.2-4.5-.4-2.7.8-4,.9-2.1-1.6-4.5,2.7-5.8,2.8-5.7-2.3-2.8,5.2-4.2,5.3-7.9,2.3,1.1,3.2-.1,3.3-3.2,2.4-0.5,1.1-2.6,1.3-4.1,1.4l-2.4.2-4.7-73.5,2.4-.2c1.5-.1,3.6-0.2,3,1.8,5.3-2.3,8-2.5,10.5,5.3,2.9-8.2,5.6-8.4,9.7-7.4,0.6-1.3,2.7-1.4,4.2-1.5Z" transform="translate(-6833.6 -5345.8)"/>
  </g>
  <g>
    <path class="a" d="M6858.1,5378.8l73.6-.7v-2.4c0-1.5,0-3.6-.7-4.4,0.6-2.7.6-4-1.8-1.9,2.4-4.7,2.3-6-2.7-5.5,5-3.2,5-4.6,1.7-8.1,3.3,0.9,3.3-.4,2.2-3.4,1.1-.6,1.1-2.6,1.1-4.1v-2.4l-73.6.7v2.4c0,1.5,0,3.6,2,2.9-1.9,5.5-1.9,8.2,6.1,10.1-7.9,3.5-7.9,6.2-6.7,10.2-1.2.7-1.2,2.8-1.2,4.3v2.4Z" transform="translate(-6833.6 -5345.8)"/>
    <path class="a" d="M6865.8,5421.4l4.7-73.5-2.4-.2c-1.5-.1-3.6-0.2-4.5.4-2.7-.8-4-0.9-2.1,1.6-4.5-2.7-5.8-2.8-5.7,2.3-2.8-5.2-4.2-5.3-7.9-2.3,1.1-3.2-.1-3.3-3.2-2.4-0.5-1.1-2.6-1.3-4.1-1.4l-2.4-.2-4.7,73.5,2.4,0.2c1.5,0.1,3.6.2,3-1.8,5.3,2.3,8,2.5,10.5-5.3,2.9,8.2,5.6,8.4,9.7,7.4,0.6,1.3,2.7,1.4,4.2,1.5Z" transform="translate(-6833.6 -5345.8)"/>
  </g>
  <g>
    <path class="a" d="M7496.4,5378.8l-73.6-.7v-2.4c0-1.5,0-3.6.7-4.4-0.6-2.7-.6-4,1.8-1.9-2.4-4.7-2.3-6,2.7-5.5-5-3.2-5-4.6-1.7-8.1-3.3.9-3.3-.4-2.2-3.4-1.1-.6-1.1-2.6-1.1-4.1v-2.4l73.6,0.7v2.4c0,1.5,0,3.6-2,2.9,1.9,5.5,1.9,8.2-6.1,10.1,7.9,3.5,7.9,6.2,6.7,10.2,1.2,0.7,1.2,2.8,1.2,4.3v2.4Z" transform="translate(-6833.6 -5345.8)"/>
    <path class="a" d="M7488.7,5421.4l-4.7-73.5,2.4-.2c1.5-.1,3.6-0.2,4.5.4,2.7-.8,4-0.9,2.1,1.6,4.5-2.7,5.8-2.8,5.7,2.3,2.8-5.2,4.2-5.3,7.9-2.3-1.1-3.2.1-3.3,3.2-2.4,0.5-1.1,2.6-1.3,4.1-1.4l2.4-.2,4.7,73.5-2.4.2c-1.5.1-3.6,0.2-3-1.8-5.3,2.3-8,2.5-10.5-5.3-2.9,8.2-5.6,8.4-9.7,7.4-0.6,1.3-2.7,1.4-4.2,1.5Z" transform="translate(-6833.6 -5345.8)"/>
  </g>
  <g>
    <path class="a" d="M7496.4,5709.3l-73.6.7v2.4c0,1.5,0,3.6.7,4.4-0.6,2.7-.6,4,1.8,1.9-2.4,4.7-2.3,6,2.7,5.5-5,3.2-5,4.6-1.7,8.1-3.3-.9-3.3.4-2.2,3.4-1.1.6-1.1,2.6-1.1,4.1v2.4l73.6-.7v-2.4c0-1.5,0-3.6-2-2.9,1.9-5.5,1.9-8.2-6.1-10.1,7.9-3.5,7.9-6.2,6.7-10.2,1.2-.7,1.2-2.8,1.2-4.3v-2.4Z" transform="translate(-6833.6 -5345.8)"/>
    <path class="a" d="M7488.7,5666.7l-4.7,73.5,2.4,0.2c1.5,0.1,3.6.2,4.5-.4,2.7,0.8,4,.9,2.1-1.6,4.5,2.7,5.8,2.8,5.7-2.3,2.8,5.2,4.2,5.3,7.9,2.3-1.1,3.2.1,3.3,3.2,2.4,0.5,1.1,2.6,1.3,4.1,1.4l2.4,0.2,4.7-73.5-2.4-.2c-1.5-.1-3.6-0.2-3,1.8-5.3-2.3-8-2.5-10.5,5.3-2.9-8.2-5.6-8.4-9.7-7.4-0.6-1.3-2.7-1.4-4.2-1.5Z" transform="translate(-6833.6 -5345.8)"/>
  </g>
</svg>
