<svg xmlns="http://www.w3.org/2000/svg" preserveAspectRatio="none" viewBox="0 0 1421.4 968.5">
  <defs>
    <style>
      .a {
        fill: none;
        stroke: #000;
        stroke-linecap: round;
        stroke-linejoin: round;
        stroke-width: 3px;
      }
    </style>
  </defs>
  <title>project-border</title>
  <g>
    <path class="a" d="M5482.4,6260.8l5.1-2.4,5.7,11,16.1-7.7c0.1,0.1,33.7-.7,33.8-0.6l7.1-3.4,14.4,7,14.6-6.9,8.2,11,34.2-16.3,4.6,11.6,11-5.2,22.3,4.8,20.5-9.8,13.4,7.4,0.7-.3,14,8.9,27.5-13.1,11.6,8.1,13-6.2,6,11.9,14.2-6.7c0.1,0.1,28.8.9,28.9,1.1l13-6.2,6.6,12.5,18.6-8.8,24.9,2.6,13-6.2,17.5,5.7,23.4-11.1c0,0.1,1.6,13.3,1.7,13.4l8.9-4.2c0.1,0.1,36.5-2,36.6-1.9l11.9-5.7c0,0.1-.1,13.8,0,13.8l24.4-11.6,20.6,3.7,9.9-4.7,9.3,10.3,5.1-2.4c0.1,0.2,43.5-5.1,43.6-5l6.4-3,7.7,10.4,9.6-4.6c0.1,0.1,29.9,1.4,30,1.5l7.3-3.5,6.8,10.3,36-17.1,3.6,12.3,1.4-.7c0.1,0.1,40.3-3.9,40.4-3.8l16.2-7.7,7.5,11.2,5.1-2.4,10.6,8.4,20.9-10,22.3,3.8,1.3-.6,14.2,7.6,33.3-15.8,8.7,10.3,3.7-1.7,22.4,4.5,23.4-11.1,23.1,2.8,6.4-3.1,12.3,8.4,26.2-12.5c0,0.1-2.5,14.7-2.5,14.8l25.4-12.1c0,0.1-.5,15.3-0.5,15.4l19.3-9.2,22.9,3.9,5.4-2.6,26.4,1.7,13.1-6.2,14.3,6.8,5.2-2.5,23.7,4.2,22.5-10.7c0,0.1,2.1,14.1,2.1,14.2l38.3-18.2,5.4,12.5,13.1-6.2,22.4,3.8,16-7.6,17,6.2,12.5-6,11.8,9.8,13.1-6.2,7.1,10.2,22.8-10.9c0.1,0.1-17.3,23.5-17.3,23.7l22.6-10.7c0.1,0.2-29.4,27.9-29.3,28.1l17.2-8.2c0.1,0.1-8.8,19.8-8.7,19.9l7.6-3.6c0.1,0.1-7.7,17.4-7.6,17.5l5.7-2.7,4.2,13,2.1-1c0.1,0.1-14.2,20.8-14.1,20.9l14.5-6.9c0.1,0.1-12.4,21.1-12.3,21.2l7.6-3.6c0.1,0.1-7.6,19.2-7.6,19.3l7.6-3.6c0.1,0.1-4.6,17-4.5,17.1l1.3-.6c0.1,0.1-16.5,22.7-16.4,22.8l9.4-4.5,10.8,10.1,7.5-3.6c0.1,0.1-15.7,21.3-15.6,21.4l7.6-3.6,4.7,13.5,2.4-1.2c0.1,0.1-8.6,18.1-8.5,18.2l2.3-1.1c0.1,0.1-11.2,19.1-11.2,19.2l10.3-4.9c0.1,0.1-9.6,19.6-9.6,19.7l8.1-3.9c0.1,0.1-6.2,17.3-6.1,17.3l7.6-3.6c0.1,0.1-13.2,20.2-13.1,20.3l15.2-7.2c0.1,0.1-9.7,19.2-9.6,19.2l7.6-3.6c0,0.1-1,14.7-1,14.8l1.4-.7c0.1,0.1-8.1,19.3-8,19.4l7.6-3.6c0.1,0.1-13.1,21.6-13,21.7l3.2-1.5c0,0.1,2.2,12.7,2.2,12.8l7.6-3.6c0.1,0.1-13.5,21-13.4,21.1l6.9-3.3,7.4,11.4,3.3-1.6c0.1,0.1-14,20.2-13.9,20.3l2.6-1.2c0.1,0.1-11.4,20.6-11.3,20.7l30.6-14.6c0.1,0.1-18.6,22.3-18.6,22.4l6.8-3.3c0.1,0.1-14.8,22.4-14.7,22.5l22.8-10.9c0.1,0.1-13.2,22-13.1,22.1l14.9-7.1c0.1,0.1-18,23.3-17.9,23.4l7.6-3.6c0.1,0.1-15.4,21.7-15.3,21.9l14.8-7.1c0.1,0.1-7.2,18.7-7.1,18.7l7.6-3.6c0.1,0.1-8.5,19.4-8.4,19.5l9.4-4.5c0.1,0.1-8.6,19.3-8.5,19.3l7.6-3.6c0.1,0.1-21.1,24.7-21,24.8l26.5-12.6c0.1,0.1-13.1,19.8-13.1,19.9l7.6-3.6c0,0.1-3.7,15.3-3.7,15.3h0.2c0.1,0.1-9.1,18.1-9.1,18.2l13.2-6.3c0.1,0.1-8.3,18.3-8.3,18.4l7.6-3.6c0.1,0.1-17.7,24.1-17.6,24.2l13.3-6.3c0,0.1-3.3,15.9-3.2,15.9l7.6-3.6c0,0.1,1,14.6,1,14.7h0.2c0.1,0.1-20.9,23.5-20.8,23.6l30.7-14.6c0.1,0.2-29.1,27.4-29,27.6l24.3-11.6c0.1,0.1-14,20.9-13.9,21l7.6-3.6c0.1,0.1-16.1,22.7-16,22.8l21.9-10.4c0.1,0.1-13.6,20.8-13.5,20.9l7.6-3.6c0.1,0.1-18,24.1-17.9,24.3l8.1-3.8c0.1,0.1-6.9,18-6.9,18.1l14.2-6.8c0,0.1-5.1,15.8-5.1,15.9l7.6-3.6c0.1,0.1-18.2,23.9-18.2,24l17-8.1c0.1,0.1-17.8,22.6-17.7,22.7l9.7-4.6c0,0.1,1.6,14.5,1.6,14.5l7.6-3.6c0,0.1,1.3,14.7,1.3,14.7l7.6-3.6c0.1,0.2-29.4,27.3-29.2,27.4l24.3-11.5c0.1,0.1-22.8,24.9-22.8,25.1l29.3-14c0.1,0.1-22.3,25.1-22.2,25.2l5.4-2.6c0,0.1.5,14.6,0.5,14.7l9.9-4.7c0.1,0.1-24.1,25.8-24,26l17.7-8.4,3.9,14.1,5.4-2.6c0.1,0.2-27.7,28.9-27.6,29.1l8.2-3.9,6.2,12.2,10-4.7" transform="translate(-5447.4 -6250.9)"/>
    <path class="a" d="M5462.2,6260.6l3.9-1.8c0.1,0.1-3.2,17-3.2,17.1l3.8-1.8c0.1,0.1-5.7,17.9-5.6,18l3.8-1.8c0,0.1.3,15.5,0.4,15.6l4.3-2c0.1,0.1-12.1,21.3-12,21.4l14.7-7c0.1,0.1-9.2,19.2-9.1,19.3l2.7-1.3c0.1,0.1-3.7,16.6-3.6,16.7l7.4-3.5c0.1,0.1-7.5,19.1-7.4,19.2l7.4-3.5c0.1,0.1-16.3,22.7-16.2,22.8l4-1.9,4.8,12.6,7.4-3.5c0.1,0.1-7.5,18.3-7.4,18.4l7.4-3.5c0.1,0.1-19.3,23.9-19.2,24l10.9-5.2,11.3,9.2,5.5-2.6c0.1,0.1-16.1,22.7-16,22.8l7.5-3.5c0.1,0.1-7.5,17.5-7.5,17.6l7.5-3.5c0.1,0.1-13.3,21.7-13.2,21.8l3.3-1.6c0,0.1,2.4,13.3,2.4,13.3l7.5-3.6c0.1,0.1-15.2,22.6-15.2,22.7l17.6-8.4c0.1,0.1-9.4,18.4-9.3,18.5l17.2-8.2c0.1,0.1-9.8,19.3-9.7,19.4l5-2.4c0.1,0.1-9,18.1-8.9,18.2l7-3.3c0.1,0.1-20.4,25.1-20.3,25.3l5.9-2.8c0.1,0.1-7.6,17.1-7.5,17.2l27-12.9c0.1,0.1-15.9,21.6-15.8,21.7l12.9-6.1c0.1,0.1-13.8,21.6-13.7,21.8l10.7-5.1c0.1,0.1-6.8,16.8-6.7,16.9l11.7-5.6c0.1,0.2-28.3,27.4-28.1,27.5l25.1-12c0.1,0.1-12.5,20.8-12.4,20.9l7.5-3.6c0.1,0.1-16.2,22.7-16.2,22.8l3.8-1.8c0.1,0.1-7.3,18.5-7.2,18.6l28.3-13.5c0.1,0.1-24.1,26.9-24,27l11.8-5.6c0,0.1-4,15.3-3.9,15.4l7.5-3.6c0.1,0.1-8.5,19.3-8.5,19.3l13.3-6.3c0.1,0.1-6.8,17.3-6.7,17.3l1.4-.7c0.1,0.1-17,22.3-16.9,22.4l9.3-4.4c0,0.1-1.4,15.1-1.3,15.2l1.9-.9,7.2,10.2,5.2-2.5c0.1,0.1-24.2,26.5-24.1,26.6l14.3-6.8c0.1,0.1-11.1,19.6-11.1,19.7l24.9-11.8c0.1,0.1-16.4,22.7-16.3,22.8l7.5-3.6c0.1,0.1-20.8,23.3-20.7,23.4l15.9-7.6c0,0.1-2.8,16.2-2.7,16.2l7.5-3.6c0.1,0.1-10.3,18.5-10.2,18.5l16-7.6c0.1,0.1-4.1,17-4,17.1l9.6-4.6c0.1,0.1-12.9,21.9-12.8,22l13.3-6.3c0.1,0.2-32.9,30.7-32.8,30.9l22.5-10.7c0.1,0.1-9.2,20.1-9.2,20.2l7.5-3.6c0,0.1-4.7,15.7-4.7,15.8l12.9-6.2c0.1,0.2-26.8,28.2-26.7,28.4l15.9-7.5c0.1,0.1-5,16.8-4.9,16.9l7.5-3.6c0.1,0.1-7.6,18.5-7.5,18.6l7.5-3.6c0.1,0.1-15.9,22-15.8,22.1l21.7-10.3c0.1,0.1-13.5,21.7-13.4,21.8l7.5-3.6c0.1,0.1-7.6,18.9-7.5,19l7.6-3.6c0.1,0.1-8.5,17.7-8.4,17.7l7-3.3c0.1,0.1-6.2,18.5-6.1,18.6l7.6-3.6c0,0.1-1.1,16-1,16.1l12.3-5.9c0.1,0.1-18.9,24.5-18.8,24.7l7.6-3.6c0.1,0.1-20.4,23.1-20.3,23.2l25-11.9c0.1,0.1-12.3,20.1-12.3,20.2l7.6-3.6c0.1,0.1-7.6,19.3-7.6,19.4l7.6-3.6c0.1,0.1-7.6,18.9-7.6,19l7.6-3.6c0.1,0.1-7.6,19-7.6,19.1l7.6-3.6c0.1,0.1-2.1,16.5-2,16.6l12.9-6.1c0.1,0.1-10,20.3-10,20.4l2.5-1.2,13.8,8,14.2-6.8c0.1,0.1,35.3-1.4,35.3-1.3l9.7-4.6c0,0.1-.8,14.7-0.7,14.7l28-13.3,6.9,10.5,7.5-3.6c0.1,0.1,28.6.4,28.7,0.5l20.5-9.8,4.3,13.8,28.3-13.5,9.2,9.2,3.8-1.8,28.1,1.4,24.3-11.6,12.2,8,2.2-1.1,25.3,1.5,18-8.5c0,0.1-.7,16-0.6,16.1l29.1-13.9,20.3,4.9,10.6-5.1,10.7,9.1,21.2-10.1c0,0.1-1.9,15.4-1.9,15.5l30.6-14.5c0,0.1,2.2,13.8,2.2,13.8l29.1-13.8,23.4,4.6,6.7-3.2,18.7,7h0.1l20.5,4.5,8.9-4.3,19.8,5.2,13-6.2c0.1,0.1,34-2.3,34.1-2.2l2.3-1.1,6.4,11.2,33.1-15.8,11.8,8.3,5.1-2.4,12.4,9.9,37.8-18,9.6,10.6,12.5-5.9,7.1,10.7,25.6-12.2,16.6,8,18.5-8.8,21,4.1,14-6.7,4.6,13.7,8.6-4.1,14.4,6.8,31.2-14.8,5.5,10.9,13-6.2,13.5,8.7,11.6-5.5,27.4,1.9,21.2-10.1c0.1,0.1-6.6,16.7-6.5,16.8l28.7-13.6,10.9,10.3,19.8-9.4,15,7.3,10.2-4.9c0.1,0.1,35.5-1.4,35.6-1.2l8.6-4.1,3.7,13,24.6-11.7c0,0.1,1.5,14.1,1.6,14.1l23.3-11.1,10.4,10.6,20-9.5,18.3,5.7,20.3-9.7,22,5,0.6-.3,15.1,8.4,13.4-6.4c0.1,0.1,29.5,1.8,29.6,1.9l13-6.2,14.3,8.4,9.2-4.4" transform="translate(-5447.4 -6250.9)"/>
  </g>
</svg>
