<svg xmlns="http://www.w3.org/2000/svg" viewBox="0 0 408.1 10.5">
  <defs>
    <style>
      .a {
        fill: none;
        stroke: #000;
        stroke-linecap: round;
        stroke-linejoin: round;
        stroke-width: 3px;
      }
    </style>
  </defs>
  <title>project-underline</title>
  <path class="a" d="M6920.8,5317.7l5.6-3.2c0.2,0.4,14.8,1.7,15,2s0.9-.7,1-0.6,17.1,0,17.4.5,5-3.1,5-2.9,10.5,4.6,10.6,4.8,7.1-4.3,7.2-4.2,8.7,5.1,8.8,5.3,3.3-2.1,3.4-2,13.6,2.5,13.7,2.8,7-4.2,7.1-4.1,10.7,3.5,10.9,3.7,5.6-3.4,5.7-3.3,12.9,2.8,13.1,3.1,12.1-7.2,12.2-7,9,4.4,9.1,4.6,7.6-4.5,7.7-4.4,8.2,5,8.3,5.2,6.8-4.1,6.9-4,12.4,2.7,12.6,3,3.6-2.3,3.7-2.1,10.7,4.2,10.9,4.4,7.4-4.4,7.5-4.3,13.2,2.8,13.4,3.1,9.2-5.5,9.2-5.3,10.3,3.7,10.4,3.9,3.8-2.4,3.9-2.3,10.5,4,10.7,4.2,8.4-5,8.4-4.9,13.8,2.2,14,2.5,3.4-2.2,3.5-2,8.7,4.7,8.8,4.9,10.5-6.2,10.6-6.1l6.6,6.9c0.1,0.1,6.4-3.9,6.5-3.7s13.5,2.6,13.7,2.9,8.5-5,8.5-4.9,14,1.9,14.1,2.2,5.7-3.4,5.7-3.3,8.9,5.1,9,5.3,4.6-2.8,4.7-2.7,12.1,3.1,12.3,3.4,6.5-3.9,6.6-3.8,12.4,3,12.5,3.3,8.4-5,8.5-4.9" transform="translate(-6919.3 -5311.2)"/>
</svg>
