<svg id="Design_Layer" data-name="Design Layer" xmlns="http://www.w3.org/2000/svg" viewBox="0 0 847.6 18">
  <defs>
    <style>
      .cls-1 {
        fill: none;
        stroke: #000;
        stroke-linecap: round;
        stroke-linejoin: round;
        stroke-width: 3px;
      }
    </style>
  </defs>
  <title>underline</title>
  <path class="cls-1" d="M6157.6,5006.6l1.5-.9,1.4,5.8,7.2-4.1,3.1,4.6c0,0.1,9.9-5.8,10-5.8s-5.8,10-5.7,10.1,22.2-12.9,22.2-12.8-5.2,10.1-5.1,10.2,16-9.3,16-9.2-4,9.6-4,9.7,9.3-5.5,9.4-5.4l4.6,4.3c0,0.1,7.5-4.5,7.6-4.4l2,6.1c0,0.1,13.7-8,13.8-8s-2.3,8.4-2.3,8.4,19.2-11.2,19.2-11.1-8.5,12-8.4,12,17.8-10.4,17.8-10.3l1.5,6.4c0,0.1,6.5-3.9,6.5-3.8l4.4,4.8c0,0.1,9.3-5.5,9.3-5.4l1.1,6.3c0,0.1,18.6-10.9,18.7-10.8s-9.6,12.1-9.5,12.2,17.1-10,17.2-9.9-1.5,7.7-1.5,7.8,17-9.9,17.1-9.9-4,9.6-4,9.6,8.9-5.3,9-5.2l3.4,4.7c0,0.1,13.1-7.6,13.1-7.6s-6.2,10.4-6.1,10.4,18.8-11,18.9-10.9-4.9,9.9-4.9,9.9,17.2-10.1,17.3-10l-5.3,9.5c0,0.1,15.4-9,15.4-8.9l-5.3,9.5c0,0.1,19-11.1,19.1-11s-5.6,9.9-5.6,9.9,11.9-7,11.9-6.9l2.9,5c0,0.1,11.9-7,12-6.9s-7.9,11.7-7.8,11.8,20.8-12.1,20.9-12.1-1,7.3-1,7.3,7-4.1,7-4-4.4,9.8-4.3,9.9,17.2-10,17.2-9.9l4,4.9c0,0.1,10.8-6.3,10.8-6.2s-3,9-3,9,16.1-9.4,16.1-9.3l0.9,6.6c0,0.1,11.7-6.9,11.8-6.8l-3.9,9c0,0.1,15.2-8.9,15.3-8.8s-1.1,7.6-1.1,7.6,17-9.9,17.1-9.9-10.1,12.3-10,12.4,22.9-13.3,22.9-13.2-5,10.2-5,10.2,15-8.7,15-8.7-1.4,7.8-1.4,7.8,12.9-7.6,13-7.5-9.2,12.6-9.2,12.7,25.5-14.9,25.6-14.8l-4.1,9.1c0,0.1,14.7-8.6,14.7-8.5s-7.1,10.6-7.1,10.6,18.9-11,18.9-10.9-8.9,11.6-8.9,11.6,16.1-9.4,16.2-9.3-3.9,9.2-3.9,9.3,17-9.9,17-9.8-0.4,7.3-.4,7.3,7.2-4.3,7.3-4.2l1.4,6.2c0,0.1,12.7-7.4,12.8-7.4s-6.5,10.5-6.5,10.5,17.5-10.2,17.5-10.1l1.5,5.9c0,0.1,9.2-5.4,9.2-5.3s0.8,6.8.8,6.8,18.2-10.6,18.3-10.6-3.5,9.1-3.5,9.2,12.2-7.1,12.2-7.1-7.2,10.5-7.2,10.6,16.6-9.7,16.6-9.6-1.7,8.4-1.7,8.5,18-10.5,18-10.4-6.9,11.1-6.9,11.1,21.7-12.6,21.7-12.5-2.2,7.9-2.2,7.9,8.7-5.1,8.8-5.1-1.3,7.8-1.3,7.8,14.7-8.6,14.8-8.5-3.9,9.4-3.9,9.5,19-11.1,19.1-11-6.3,10.5-6.3,10.6,21.5-12.5,21.5-12.4-5.2,10.2-5.2,10.3,8.6-5.1,8.7-5l5.5,4.1c0,0.1,12.2-7.1,12.2-7.1s-1.7,8.2-1.7,8.2,12.9-7.5,12.9-7.5-1.7,8.4-1.6,8.4,17.4-10.2,17.5-10.1-5.7,10.5-5.6,10.5,19.4-11.3,19.4-11.2l-4.6,9.4c0,0.1,12.9-7.5,12.9-7.5s-7.7,11.6-7.6,11.7,14.5-8.5,14.5-8.4-1.9,7.9-1.8,7.9,19.2-11.2,19.2-11.1l2,6.3c0,0.1,8-4.7,8-4.6l1.9,5.3c0,0.1,11.6-6.8,11.7-6.7s-8,11.6-8,11.7,16.9-9.8,16.9-9.8-3.3,9.3-3.3,9.3,15.8-9.2,15.9-9.2l4.9,4.5c0,0.1,10.3-6,10.3-6s-5.3,10-5.3,10.1,21.5-12.5,21.6-12.4-1.5,8-1.5,8,10.9-6.4,11-6.3-8.5,11.9-8.4,12,16-9.3,16-9.2l3.8,4.8c0,0.1,10.8-6.3,10.8-6.2l2.4,5.8c0,0.1,12.3-7.2,12.3-7.1s-3.5,9.1-3.4,9.2l8-4.6" transform="translate(-6156.1 -5001.3)"/>
</svg>
